<svg version="1.1" id="Layer_1" xmlns="http://www.w3.org/2000/svg" xmlns:xlink="http://www.w3.org/1999/xlink" x="0px" y="0px"
 width="182" height="72" viewBox="0 100 1280 440" enable-background="new 0 0 1280 640" xml:space="preserve">
<path fill="none" opacity="1.000000" stroke="none" 
	d="
M783.000000,641.000000 
	C522.033875,641.000000 261.567780,641.000000 1.050843,641.000000 
	C1.050843,427.728333 1.050843,214.456650 1.050843,1.092481 
	C427.549469,1.092481 854.098938,1.092481 1280.824219,1.092481 
	C1280.824219,214.333221 1280.824219,427.666595 1280.824219,641.000000 
	C1115.123169,641.000000 949.311584,641.000000 783.000000,641.000000 
M167.485123,140.998108 
	C152.329453,147.700104 139.128983,157.422043 126.590767,168.028687 
	C116.481079,176.580917 107.793411,186.570709 100.004242,197.262222 
	C85.694534,216.903946 75.327057,238.455933 70.081841,262.250488 
	C68.205719,270.761383 66.482559,279.455566 66.145454,288.122711 
	C65.570129,302.914490 64.655029,317.957428 66.672409,332.508087 
	C68.531563,345.917480 74.138252,358.795380 77.949402,371.949371 
	C81.754852,385.083740 89.176323,396.389252 96.392693,407.685608 
	C103.655174,419.054169 112.337166,429.500641 122.778961,438.140961 
	C132.785294,446.420929 142.906265,454.701569 153.771606,461.758270 
	C161.836838,466.996368 170.952942,470.860291 180.000198,474.280029 
	C190.989990,478.433990 202.285751,481.923035 213.671463,484.828522 
	C220.082153,486.464447 226.981689,486.073761 233.589005,487.072449 
	C249.075256,489.413147 264.357178,487.584259 279.562469,484.981415 
	C285.976227,483.883484 292.266449,481.900085 298.500885,479.959625 
	C306.555847,477.452454 314.680359,475.014648 322.432281,471.736694 
	C328.595734,469.130463 334.105804,465.021606 340.151367,462.085205 
	C352.351593,456.159454 362.313995,447.248901 372.157410,438.279358 
	C381.824799,429.470215 389.920959,419.321014 397.565430,408.572968 
	C404.582367,398.707245 410.132721,388.259460 414.814606,377.365112 
	C418.826904,368.028748 421.724396,358.118256 424.158295,348.226318 
	C426.427979,339.001648 428.352325,329.508057 428.777374,320.058563 
	C429.348846,307.354767 428.864685,294.536163 427.823303,281.849792 
	C427.076324,272.749359 425.399597,263.574127 422.852966,254.805374 
	C418.168976,238.677246 411.955780,222.994354 402.395996,209.082657 
	C395.006927,198.329865 387.167419,187.736511 378.362671,178.141830 
	C365.162262,163.757111 349.724396,151.866730 331.920624,143.547440 
	C320.680145,138.295029 309.365997,132.877670 297.560303,129.233841 
	C280.149902,123.860130 262.051788,122.000023 243.756104,122.991013 
	C235.691360,123.427856 227.486328,123.001205 219.588638,124.371231 
	C209.026443,126.203468 198.561508,128.955856 188.322586,132.166962 
	C181.399002,134.338303 174.936737,137.980591 167.485123,140.998108 
M588.000854,275.527588 
	C588.470947,269.078613 587.082581,263.069641 583.921143,257.417480 
	C578.941101,248.514008 570.934082,242.966827 561.858337,239.587006 
	C551.286987,235.650284 540.317566,232.476944 529.262634,230.260956 
	C522.822632,228.970016 516.920837,227.201736 511.234009,224.041794 
	C505.534332,220.874710 504.070007,214.132782 508.270813,209.178177 
	C513.577026,202.919907 520.974243,201.255127 528.410767,201.213486 
	C534.762268,201.177933 541.093628,203.404480 547.489624,203.877670 
	C554.741760,204.414185 561.024353,207.487778 566.748657,211.198135 
	C571.240906,214.109848 571.808105,212.283157 573.098389,208.703751 
	C575.379395,202.375687 577.827271,196.088501 580.601257,189.963547 
	C582.804077,185.099792 582.892395,184.744690 577.844971,182.550110 
	C573.797913,180.790466 569.874329,178.625580 565.679688,177.353638 
	C558.794373,175.265778 551.789612,172.573914 544.735779,172.240433 
	C528.430420,171.469513 512.011536,170.976379 496.440857,177.917358 
	C487.796967,181.770569 480.246643,187.108170 475.819519,195.212646 
	C472.373993,201.520096 470.727905,208.965134 469.218536,216.102615 
	C468.578278,219.130356 470.636566,222.636673 470.944489,225.973831 
	C471.980652,237.202454 478.552704,244.590332 487.696991,249.933990 
	C495.561554,254.529800 503.889832,257.875763 513.137451,259.230347 
	C520.827393,260.356781 528.394958,262.711884 535.815613,265.138000 
	C540.357971,266.623077 544.889038,268.770264 548.710022,271.589386 
	C550.855347,273.172180 553.331726,277.485077 552.578552,279.262970 
	C549.454102,286.638275 544.707581,291.310364 534.922668,290.938019 
	C524.502258,290.541504 514.014709,292.390778 503.700928,288.208069 
	C497.129425,285.543030 490.249908,283.795319 484.575043,279.258331 
	C481.500427,276.800171 478.573273,277.949280 476.920074,281.534302 
	C474.549225,286.675537 471.240784,291.423462 469.251984,296.686707 
	C468.112793,299.701477 465.233276,303.984406 469.474884,306.645996 
	C474.204224,309.613586 479.466431,311.800751 484.655548,313.942780 
	C488.164978,315.391388 491.905396,316.364624 495.619141,317.216370 
	C503.096130,318.931183 510.581085,321.391418 518.145081,321.735718 
	C526.356934,322.109497 534.607849,322.611816 543.059509,320.396271 
	C550.034912,318.567749 557.043640,317.409698 563.589294,314.051422 
	C578.978088,306.156097 587.657349,294.079529 588.000854,275.527588 
M696.000305,441.431122 
	C696.280396,445.252808 696.560486,449.074463 696.848206,452.999634 
	C705.390991,452.999634 713.048584,452.885834 720.700012,453.053192 
	C723.957947,453.124420 725.111755,451.975342 725.053284,448.709167 
	C724.895264,439.880585 724.999878,431.047333 724.999939,422.215912 
	C725.000061,395.388428 724.882812,368.559967 725.109741,341.734375 
	C725.149841,336.994293 723.716858,335.609222 719.140381,335.911102 
	C713.499512,336.283203 707.808838,335.850311 702.154175,336.096405 
	C700.564941,336.165588 698.513123,336.995209 697.579041,338.186218 
	C695.992859,340.208679 695.260071,342.874359 693.930359,345.129150 
	C690.400452,351.114929 686.733948,357.020111 683.139099,362.967804 
	C679.739929,368.591797 676.318481,374.202972 672.986633,379.866791 
	C668.257690,387.905548 663.601990,395.987427 658.513550,404.741425 
	C655.381348,399.407440 652.672058,394.814240 649.982727,390.209412 
	C645.542114,382.605865 641.184082,374.953003 636.662170,367.398254 
	C631.848633,359.356506 626.762939,351.476044 622.033630,343.386292 
	C619.274841,338.667267 616.587097,334.796417 610.000183,335.865082 
	C605.616577,336.576233 601.001953,336.278046 596.531311,335.921661 
	C592.076294,335.566528 590.876221,337.190399 590.907288,341.564209 
	C591.094299,367.890472 591.000244,394.218719 591.000305,420.546326 
	C591.000305,429.877625 590.884399,439.211823 591.118286,448.537262 
	C591.155945,450.038422 592.706604,452.751038 593.637390,452.785950 
	C602.374634,453.113800 611.129150,452.980591 620.181335,452.980591 
	C620.181335,432.068787 620.181335,411.870605 620.181335,391.220276 
	C622.650879,394.703552 625.027832,397.594269 626.901367,400.780945 
	C634.063843,412.963043 640.954224,425.306458 648.229004,437.419861 
	C649.505859,439.545929 651.432251,441.138275 654.937317,441.244873 
	C661.930969,441.457672 666.755981,440.582794 670.194763,433.133759 
	C674.858215,423.031982 681.281494,413.734589 687.064148,404.161102 
	C689.675842,399.837463 692.563293,395.680420 695.997070,390.418884 
	C695.997070,407.940155 695.997070,424.193878 696.000305,441.431122 
M792.999878,252.560181 
	C792.798584,244.730682 790.993469,237.259460 787.981323,230.056213 
	C785.148071,223.280777 780.631165,217.936340 774.407898,214.031769 
	C763.999512,207.501312 752.314941,205.255402 740.381958,205.198578 
	C732.836365,205.162659 725.259033,206.019333 717.654114,207.677628 
	C707.546326,209.881653 698.457581,213.445953 689.690674,219.468826 
	C693.342529,227.096298 696.779785,234.600174 700.550293,241.932648 
	C701.547974,243.872879 703.118652,244.561127 705.837402,242.909592 
	C710.996033,239.775909 716.502258,236.421005 722.278870,235.305313 
	C729.018188,234.003708 736.218506,234.692459 743.187317,235.081741 
	C750.969604,235.516434 757.726318,243.497620 757.810120,252.000000 
	C752.336609,252.000000 746.862244,252.016968 741.387939,251.996552 
	C729.017151,251.950424 716.742554,251.479584 704.910461,256.833282 
	C696.736755,260.531677 690.386353,265.875183 688.254883,274.199524 
	C685.921936,283.310516 685.205444,292.922241 689.989441,301.934509 
	C694.853394,311.097412 702.732483,316.889069 712.426147,318.718323 
	C721.241699,320.381866 730.522278,320.135529 739.566956,319.825745 
	C745.134827,319.635040 750.535645,317.526825 754.930359,313.605682 
	C756.372742,312.318695 758.034058,311.277039 760.196777,309.678650 
	C760.196777,313.246552 760.196777,315.995300 760.196777,319.000000 
	C769.656128,319.000000 778.798218,318.825989 787.928223,319.081451 
	C791.848022,319.191132 793.124573,318.054779 793.086670,314.019501 
	C792.897217,293.863983 793.000000,273.705688 792.999878,252.560181 
M1046.551025,316.048645 
	C1047.831421,315.434387 1049.099121,314.792145 1050.394165,314.210327 
	C1059.250854,310.230896 1065.500610,303.509552 1070.260986,295.254120 
	C1072.388550,291.564362 1070.295654,289.659180 1067.210449,287.951721 
	C1062.379761,285.278290 1057.595459,282.496582 1052.961548,279.498047 
	C1048.113647,276.361023 1044.405273,276.114838 1042.305908,279.227448 
	C1035.458618,289.379486 1025.353760,293.762543 1013.902893,290.780396 
	C1010.265442,289.833099 1006.783020,287.527374 1003.755798,285.168121 
	C998.357483,280.961029 995.894592,275.084015 994.528748,268.319214 
	C992.803162,259.773285 996.428223,244.389465 1005.751953,239.669769 
	C1008.222839,238.419022 1010.544128,236.242340 1013.106934,235.935883 
	C1018.301819,235.314667 1024.356079,234.048935 1028.704956,236.024017 
	C1035.184326,238.966690 1040.494507,244.483963 1046.974487,249.417694 
	C1052.616943,246.206375 1059.053589,241.589417 1066.201172,238.784027 
	C1071.676880,236.634918 1071.855103,233.759644 1069.843628,229.790024 
	C1068.438110,227.016327 1066.043091,224.733246 1064.030151,222.280106 
	C1056.477905,213.075745 1046.088745,208.220032 1034.949829,206.287491 
	C1024.342285,204.447144 1013.473145,204.445419 1002.616760,207.716599 
	C995.051086,209.996262 987.931396,212.646393 981.560242,217.161316 
	C968.211548,226.620941 960.529236,239.698441 959.139709,255.881668 
	C957.983032,269.354370 959.889343,282.200500 967.795166,294.132965 
	C978.148560,309.759735 992.491150,318.269867 1010.547485,319.743103 
	C1022.310181,320.702789 1034.517456,321.704590 1046.551025,316.048645 
M804.464111,334.000153 
	C802.965515,333.981384 801.434692,334.156738 799.973450,333.913513 
	C787.066406,331.765137 774.828369,333.583282 762.796753,338.853973 
	C751.740051,343.697601 744.540161,351.638824 742.519897,363.267914 
	C740.822815,373.036865 741.047913,382.947540 748.536316,391.117950 
	C757.873718,401.305908 770.932312,403.149811 783.120667,407.004578 
	C790.264221,409.263855 797.543823,411.196228 804.474121,413.990265 
	C809.193115,415.892761 809.622559,424.367157 805.276245,426.796356 
	C799.796265,429.859161 793.524597,430.989838 787.377747,430.802948 
	C782.094482,430.642273 776.747437,429.371368 771.630188,427.893311 
	C766.798767,426.497803 762.220398,424.216095 757.549622,422.278534 
	C754.632202,421.068268 751.749939,419.773193 748.489929,418.359131 
	C748.133728,420.319946 748.177673,421.537262 747.695374,422.487671 
	C745.225586,427.355530 742.184875,431.992889 740.299988,437.066101 
	C739.647400,438.822418 741.152649,442.209290 742.739197,443.759521 
	C744.736877,445.711487 747.826538,446.547668 750.448120,447.859192 
	C761.569458,453.422913 773.802917,454.333435 785.806763,455.807800 
	C790.166321,456.343231 794.788940,454.199982 799.306335,454.120209 
	C805.345581,454.013611 810.783691,452.425812 816.288879,450.099426 
	C827.710022,445.273102 834.913574,436.539001 837.684631,425.046478 
	C839.369019,418.060669 838.969971,410.146881 834.914734,403.431641 
	C832.971619,400.213806 830.819336,396.711060 827.862793,394.591003 
	C817.633484,387.255615 805.513794,384.716919 793.486755,381.873260 
	C787.127747,380.369751 780.973267,377.816742 774.924011,375.268433 
	C772.080627,374.070679 770.781860,366.358246 772.511292,364.197937 
	C777.424255,358.060760 785.227112,359.722198 791.551575,357.419800 
	C794.154114,356.472412 797.832214,358.252411 800.961670,359.030975 
	C806.139099,360.318970 811.309814,361.667236 816.402039,363.251526 
	C819.390442,364.181274 822.221375,365.616730 824.403870,366.525299 
	C827.263306,360.332886 829.878113,355.432190 831.745850,350.261658 
	C832.525452,348.103210 832.681274,343.951324 831.472961,343.130066 
	C823.672485,337.828247 814.492676,335.920166 804.464111,334.000153 
M480.524170,436.042999 
	C491.791809,450.022217 508.078308,453.189972 524.372314,455.791107 
	C528.825073,456.501923 533.705627,454.791779 538.350403,453.969940 
	C543.125610,453.125061 547.873901,452.098236 552.596375,450.990875 
	C562.003906,448.784821 568.895874,442.685303 575.500916,436.103180 
	C577.560913,434.050385 577.293945,432.563965 575.291260,430.757324 
	C570.705750,426.620880 565.945496,422.627563 561.775391,418.098114 
	C558.704285,414.762360 556.325073,415.921875 554.267456,418.467712 
	C547.934998,426.302734 538.910950,429.017029 529.812073,429.622986 
	C524.213440,429.995819 518.116699,427.251831 512.686218,424.889893 
	C500.984863,419.800568 495.795105,410.015167 495.030884,397.643433 
	C494.825958,394.325470 494.432220,390.857544 495.140594,387.685211 
	C496.053070,383.598816 497.496246,379.456116 499.587128,375.845062 
	C503.598267,368.917725 509.455353,364.596741 517.267944,361.448273 
	C525.322449,358.202332 532.985596,358.657959 540.325623,360.599670 
	C545.604614,361.996277 549.829224,367.101868 554.797607,370.099823 
	C556.540527,371.151550 559.922241,371.922729 561.139343,370.984619 
	C566.120605,367.145233 570.447327,362.470947 575.235596,358.361023 
	C577.655823,356.283630 577.226685,354.251709 575.634766,352.396637 
	C566.942017,342.267151 555.349243,336.652588 542.705505,334.261078 
	C531.668335,332.173462 520.449585,332.510742 509.130951,335.702026 
	C498.175751,338.790771 488.948853,343.937866 480.952240,351.634033 
	C473.666687,358.645966 468.155609,367.421478 466.339630,376.988068 
	C463.204559,393.503784 463.150543,410.340576 472.099915,425.654755 
	C474.198761,429.246307 477.327484,432.236023 480.524170,436.042999 
M889.969299,305.820374 
	C888.049561,301.091583 885.816650,296.459808 884.311890,291.602509 
	C883.163635,287.896027 882.324097,286.827911 878.717957,289.553741 
	C876.299194,291.382141 872.950439,292.582031 869.907532,292.861359 
	C862.932007,293.501770 857.055176,287.527557 857.014038,280.330353 
	C856.955994,270.167114 856.998962,260.003326 856.998779,249.839767 
	C856.998657,245.589661 856.998718,241.339554 856.998718,237.000305 
	C865.014526,237.000305 872.341980,236.882507 879.662659,237.054733 
	C882.867920,237.130127 884.160278,236.123077 884.056946,232.785156 
	C883.861084,226.459808 883.816650,220.116776 884.069458,213.795502 
	C884.218079,210.080276 882.991699,208.799484 879.237488,208.927612 
	C871.960205,209.175949 864.668457,209.000229 856.998779,209.000229 
	C856.998779,201.147369 856.873962,193.690231 857.055969,186.240585 
	C857.136780,182.930405 855.914551,181.885361 852.685303,181.946136 
	C844.024353,182.109100 835.353577,182.169205 826.696411,181.924866 
	C822.862244,181.816650 821.815918,183.225128 821.930847,186.859314 
	C822.160706,194.129303 821.998962,201.411682 821.998962,209.080811 
	C816.456604,209.080811 811.373901,209.080811 806.243713,209.080811 
	C806.243713,218.554535 806.243713,227.624756 806.243713,237.093979 
	C811.555908,237.093979 816.638550,237.093979 821.998718,237.093979 
	C821.998718,250.623886 821.980408,263.753937 822.006348,276.883942 
	C822.019836,283.721100 822.417053,290.286316 824.710083,297.068939 
	C828.765015,309.063416 836.881409,316.429565 848.423889,318.704926 
	C860.348633,321.055634 872.710938,322.043884 884.697510,317.104858 
	C890.942017,314.531799 892.264709,312.832123 889.969299,305.820374 
M646.022705,286.253082 
	C645.348145,283.837036 644.246521,281.448303 644.089783,278.999115 
	C643.781677,274.186981 643.998718,269.341217 643.998718,264.509369 
	C643.998657,255.412064 643.998718,246.314774 643.998718,236.829391 
	C653.304871,236.829391 662.048340,236.829391 670.711182,236.829391 
	C670.711182,227.356247 670.711182,218.285568 670.711182,208.819717 
	C661.684021,208.819717 652.940796,208.819717 643.998779,208.819717 
	C643.998779,201.109039 643.842957,193.794189 644.065674,186.490891 
	C644.174133,182.933350 642.891846,181.856796 639.434570,181.938187 
	C631.108459,182.134247 622.772461,182.111343 614.444641,181.955643 
	C610.258484,181.877396 608.688538,183.381592 608.903992,187.731018 
	C609.253906,194.791382 608.998413,201.881760 608.998413,209.163147 
	C603.306885,209.163147 598.351929,209.163147 593.202759,209.163147 
	C593.202759,218.460022 593.202759,227.529846 593.202759,237.001740 
	C598.459839,237.001740 603.542419,237.001740 608.998291,237.001740 
	C608.998291,249.851242 609.261414,262.310272 608.913330,274.752197 
	C608.644531,284.362213 609.916626,293.511353 614.017456,302.252594 
	C618.360107,311.509308 626.071716,316.807739 635.560608,318.786652 
	C642.401489,320.213318 649.687622,320.237030 656.712585,319.823730 
	C662.569946,319.479126 668.368835,317.724457 674.131897,316.337769 
	C678.027527,315.400391 678.862000,312.112457 677.869019,308.935822 
	C675.815918,302.368164 673.282166,295.943329 670.707214,289.556030 
	C670.398743,288.790710 668.456482,288.045837 667.535828,288.289673 
	C665.143677,288.923157 662.869873,290.049774 660.600708,291.092468 
	C654.228577,294.020691 649.879395,292.773499 646.022705,286.253082 
M942.006714,231.500061 
	C942.006714,225.169708 941.978516,218.839203 942.016663,212.509079 
	C942.042236,208.266632 940.608398,205.807190 935.758789,205.940140 
	C927.435608,206.168289 919.098877,206.133057 910.773499,205.949417 
	C906.476990,205.854630 904.940247,207.596161 904.951782,211.831055 
	C905.044800,245.814789 905.077942,279.799225 904.912476,313.782379 
	C904.891235,318.144440 906.776978,319.066925 910.456299,319.027740 
	C918.784729,318.938934 927.114807,319.006897 935.444214,318.997711 
	C941.540771,318.990997 942.002625,318.536865 942.004028,312.462311 
	C942.010315,285.808228 942.006714,259.154114 942.006714,231.500061 
M931.917603,157.015991 
	C926.253113,157.030777 919.942444,155.432159 915.055786,157.389175 
	C904.182983,161.743515 898.360107,171.227386 903.963867,184.211945 
	C909.002197,195.886246 924.573608,197.451218 933.144470,193.210266 
	C937.956421,190.829224 941.406616,187.386108 943.475098,181.586349 
	C946.463623,173.206970 943.402832,162.441132 935.160034,159.024567 
	C934.268433,158.654968 933.552551,157.861313 931.917603,157.015991 
z"/>
<path fill="#F9FAFB" opacity="1.000000" stroke="none" 
	d="
M167.876633,140.981537 
	C174.936737,137.980591 181.399002,134.338303 188.322586,132.166962 
	C198.561508,128.955856 209.026443,126.203468 219.588638,124.371231 
	C227.486328,123.001205 235.691360,123.427856 243.756104,122.991013 
	C262.051788,122.000023 280.149902,123.860130 297.560303,129.233841 
	C309.365997,132.877670 320.680145,138.295029 331.920624,143.547440 
	C349.724396,151.866730 365.162262,163.757111 378.362671,178.141830 
	C387.167419,187.736511 395.006927,198.329865 402.395996,209.082657 
	C411.955780,222.994354 418.168976,238.677246 422.852966,254.805374 
	C425.399597,263.574127 427.076324,272.749359 427.823303,281.849792 
	C428.864685,294.536163 429.348846,307.354767 428.777374,320.058563 
	C428.352325,329.508057 426.427979,339.001648 424.158295,348.226318 
	C421.724396,358.118256 418.826904,368.028748 414.814606,377.365112 
	C410.132721,388.259460 404.582367,398.707245 397.565430,408.572968 
	C389.920959,419.321014 381.824799,429.470215 372.157410,438.279358 
	C362.313995,447.248901 352.351593,456.159454 340.151367,462.085205 
	C334.105804,465.021606 328.595734,469.130463 322.432281,471.736694 
	C314.680359,475.014648 306.555847,477.452454 298.500885,479.959625 
	C292.266449,481.900085 285.976227,483.883484 279.562469,484.981415 
	C264.357178,487.584259 249.075256,489.413147 233.589005,487.072449 
	C226.981689,486.073761 220.082153,486.464447 213.671463,484.828522 
	C202.285751,481.923035 190.989990,478.433990 180.000198,474.280029 
	C170.952942,470.860291 161.836838,466.996368 153.771606,461.758270 
	C142.906265,454.701569 132.785294,446.420929 122.778961,438.140961 
	C112.337166,429.500641 103.655174,419.054169 96.392693,407.685608 
	C89.176323,396.389252 81.754852,385.083740 77.949402,371.949371 
	C74.138252,358.795380 68.531563,345.917480 66.672409,332.508087 
	C64.655029,317.957428 65.570129,302.914490 66.145454,288.122711 
	C66.482559,279.455566 68.205719,270.761383 70.081841,262.250488 
	C75.327057,238.455933 85.694534,216.903946 100.004242,197.262222 
	C107.793411,186.570709 116.481079,176.580917 126.590767,168.028687 
	C139.128983,157.422043 152.329453,147.700104 167.876633,140.981537 
M132.966751,214.354034 
	C124.555054,223.287628 118.893524,233.974274 113.911568,245.001236 
	C103.961014,267.025665 99.775597,290.178680 101.275322,314.314514 
	C101.344681,315.430603 102.444328,317.469421 102.865555,317.419037 
	C105.927773,317.052612 109.150627,316.694000 111.855560,315.375000 
	C112.849022,314.890533 112.908173,311.802826 112.834854,309.924408 
	C112.111908,291.402679 115.583374,273.626099 121.922684,256.299652 
	C123.057983,253.196686 124.701180,251.934250 128.133636,251.974991 
	C143.129929,252.153030 158.130569,252.145660 173.127274,251.985245 
	C176.880829,251.945099 178.162659,253.303375 178.018082,256.944580 
	C177.819901,261.935822 178.115417,266.945953 177.944290,271.939240 
	C177.841385,274.941528 178.841797,276.131317 181.940247,276.017944 
	C187.099396,275.829132 192.273209,276.068695 197.435638,275.931274 
	C200.220673,275.857178 201.326218,276.882599 201.259171,279.699951 
	C201.132324,285.029541 201.049988,290.373322 201.303955,295.694275 
	C201.476990,299.319550 200.004684,300.243896 196.624146,300.170044 
	C188.129105,299.984344 179.618729,300.335754 171.131744,300.015228 
	C166.815002,299.852234 165.805374,301.428619 165.901123,305.456909 
	C166.150558,315.949921 166.251190,326.463776 165.810379,336.944061 
	C165.695541,339.673981 164.002289,342.981995 161.965134,344.873016 
	C153.940643,352.321838 145.350052,359.157410 137.240845,366.519409 
	C130.297775,372.822662 129.367477,372.802704 125.607910,364.281097 
	C124.737373,362.307922 124.079933,360.232574 123.107780,358.314026 
	C121.034584,354.222504 120.734001,350.364960 123.037453,346.102112 
	C125.569832,341.415527 123.708107,335.234375 119.447762,332.180908 
	C114.261009,328.463470 107.819405,329.382233 103.476433,334.458893 
	C99.840965,338.708557 100.381050,345.415680 104.393188,349.854431 
	C106.578735,352.272400 108.955849,354.848663 110.125664,357.798126 
	C116.462189,373.774200 124.735435,388.698853 135.753143,401.781433 
	C148.237762,416.605804 163.224503,428.763458 180.550903,437.644287 
	C204.637253,449.989929 230.180344,455.488586 257.366608,453.940338 
	C277.048920,452.819458 295.621857,448.148193 313.365265,439.728912 
	C328.202942,432.688446 341.472839,423.257477 353.081024,411.834534 
	C360.232697,404.796967 366.481384,396.634552 372.089600,388.275452 
	C387.549530,365.232300 396.454956,339.830261 396.971863,311.879791 
	C397.121918,303.764557 396.494507,295.617767 395.839783,287.516449 
	C395.666595,285.373474 394.066406,283.345825 393.121429,281.265259 
	C389.899841,282.756622 385.302917,280.502197 383.149933,285.226410 
	C382.548767,286.545532 380.513245,288.002289 379.103882,288.035278 
	C368.777191,288.276855 358.440613,288.065491 348.111145,288.237701 
	C344.727600,288.294098 343.822144,286.956360 343.898560,283.812164 
	C344.064514,276.983612 343.757751,270.140808 344.021179,263.318390 
	C344.174805,259.340698 342.748108,258.115997 338.841583,258.175781 
	C326.179230,258.369537 313.487885,257.783051 300.856537,258.438324 
	C294.190521,258.784149 290.467590,256.250427 287.392548,250.890137 
	C285.607635,247.778778 285.449554,245.611679 288.166260,243.024536 
	C293.957214,237.509674 299.682739,231.904694 305.082367,226.013351 
	C306.684814,224.264984 307.870514,221.461853 307.943695,219.101624 
	C308.253418,209.112335 308.035614,199.107651 308.086517,189.108963 
	C308.109802,184.532486 309.500061,183.569366 313.491699,185.827530 
	C318.800049,188.830597 324.001495,192.067581 329.008667,195.549561 
	C343.651642,205.732224 355.517517,218.734985 364.744904,233.829880 
	C369.199524,241.117050 374.787750,248.376083 374.120422,257.985413 
	C373.695007,264.111664 377.886230,269.233765 383.065033,269.929779 
	C389.128632,270.744751 395.040710,267.428040 396.674744,262.294739 
	C398.485931,256.604828 395.861298,250.082947 389.869598,248.144943 
	C384.918579,246.543533 382.739075,243.239304 380.966187,239.016235 
	C380.262634,237.340271 379.459229,235.689972 378.537781,234.124207 
	C369.733398,219.163620 359.173676,205.763748 346.050812,194.168015 
	C334.437012,183.905731 321.714966,175.524963 307.610474,169.672470 
	C285.038452,160.306488 261.533936,155.418793 236.795868,158.114029 
	C221.548752,159.775223 206.898743,163.035767 192.589386,168.807236 
	C170.275879,177.807083 152.075470,192.121353 136.079208,209.652496 
	C134.988205,210.848221 134.302048,212.413361 132.966751,214.354034 
z"/>
<path fill="#FBFBFB" opacity="1.000000" stroke="none" 
	d="
M588.000854,276.010529 
	C587.657349,294.079529 578.978088,306.156097 563.589294,314.051422 
	C557.043640,317.409698 550.034912,318.567749 543.059509,320.396271 
	C534.607849,322.611816 526.356934,322.109497 518.145081,321.735718 
	C510.581085,321.391418 503.096130,318.931183 495.619141,317.216370 
	C491.905396,316.364624 488.164978,315.391388 484.655548,313.942780 
	C479.466431,311.800751 474.204224,309.613586 469.474884,306.645996 
	C465.233276,303.984406 468.112793,299.701477 469.251984,296.686707 
	C471.240784,291.423462 474.549225,286.675537 476.920074,281.534302 
	C478.573273,277.949280 481.500427,276.800171 484.575043,279.258331 
	C490.249908,283.795319 497.129425,285.543030 503.700928,288.208069 
	C514.014709,292.390778 524.502258,290.541504 534.922668,290.938019 
	C544.707581,291.310364 549.454102,286.638275 552.578552,279.262970 
	C553.331726,277.485077 550.855347,273.172180 548.710022,271.589386 
	C544.889038,268.770264 540.357971,266.623077 535.815613,265.138000 
	C528.394958,262.711884 520.827393,260.356781 513.137451,259.230347 
	C503.889832,257.875763 495.561554,254.529800 487.696991,249.933990 
	C478.552704,244.590332 471.980652,237.202454 470.944489,225.973831 
	C470.636566,222.636673 468.578278,219.130356 469.218536,216.102615 
	C470.727905,208.965134 472.373993,201.520096 475.819519,195.212646 
	C480.246643,187.108170 487.796967,181.770569 496.440857,177.917358 
	C512.011536,170.976379 528.430420,171.469513 544.735779,172.240433 
	C551.789612,172.573914 558.794373,175.265778 565.679688,177.353638 
	C569.874329,178.625580 573.797913,180.790466 577.844971,182.550110 
	C582.892395,184.744690 582.804077,185.099792 580.601257,189.963547 
	C577.827271,196.088501 575.379395,202.375687 573.098389,208.703751 
	C571.808105,212.283157 571.240906,214.109848 566.748657,211.198135 
	C561.024353,207.487778 554.741760,204.414185 547.489624,203.877670 
	C541.093628,203.404480 534.762268,201.177933 528.410767,201.213486 
	C520.974243,201.255127 513.577026,202.919907 508.270813,209.178177 
	C504.070007,214.132782 505.534332,220.874710 511.234009,224.041794 
	C516.920837,227.201736 522.822632,228.970016 529.262634,230.260956 
	C540.317566,232.476944 551.286987,235.650284 561.858337,239.587006 
	C570.934082,242.966827 578.941101,248.514008 583.921143,257.417480 
	C587.082581,263.069641 588.470947,269.078613 588.000854,276.010529 
z"/>
<path fill="#68C4E2" opacity="1.000000" stroke="none" 
	d="
M695.998657,440.939362 
	C695.997070,424.193878 695.997070,407.940155 695.997070,390.418884 
	C692.563293,395.680420 689.675842,399.837463 687.064148,404.161102 
	C681.281494,413.734589 674.858215,423.031982 670.194763,433.133759 
	C666.755981,440.582794 661.930969,441.457672 654.937317,441.244873 
	C651.432251,441.138275 649.505859,439.545929 648.229004,437.419861 
	C640.954224,425.306458 634.063843,412.963043 626.901367,400.780945 
	C625.027832,397.594269 622.650879,394.703552 620.181335,391.220276 
	C620.181335,411.870605 620.181335,432.068787 620.181335,452.980591 
	C611.129150,452.980591 602.374634,453.113800 593.637390,452.785950 
	C592.706604,452.751038 591.155945,450.038422 591.118286,448.537262 
	C590.884399,439.211823 591.000305,429.877625 591.000305,420.546326 
	C591.000244,394.218719 591.094299,367.890472 590.907288,341.564209 
	C590.876221,337.190399 592.076294,335.566528 596.531311,335.921661 
	C601.001953,336.278046 605.616577,336.576233 610.000183,335.865082 
	C616.587097,334.796417 619.274841,338.667267 622.033630,343.386292 
	C626.762939,351.476044 631.848633,359.356506 636.662170,367.398254 
	C641.184082,374.953003 645.542114,382.605865 649.982727,390.209412 
	C652.672058,394.814240 655.381348,399.407440 658.513550,404.741425 
	C663.601990,395.987427 668.257690,387.905548 672.986633,379.866791 
	C676.318481,374.202972 679.739929,368.591797 683.139099,362.967804 
	C686.733948,357.020111 690.400452,351.114929 693.930359,345.129150 
	C695.260071,342.874359 695.992859,340.208679 697.579041,338.186218 
	C698.513123,336.995209 700.564941,336.165588 702.154175,336.096405 
	C707.808838,335.850311 713.499512,336.283203 719.140381,335.911102 
	C723.716858,335.609222 725.149841,336.994293 725.109741,341.734375 
	C724.882812,368.559967 725.000061,395.388428 724.999939,422.215912 
	C724.999878,431.047333 724.895264,439.880585 725.053284,448.709167 
	C725.111755,451.975342 723.957947,453.124420 720.700012,453.053192 
	C713.048584,452.885834 705.390991,452.999634 696.848206,452.999634 
	C696.560486,449.074463 696.280396,445.252808 695.998657,440.939362 
z"/>
<path fill="#FBFBFB" opacity="1.000000" stroke="none" 
	d="
M792.999939,253.054291 
	C793.000000,273.705688 792.897217,293.863983 793.086670,314.019501 
	C793.124573,318.054779 791.848022,319.191132 787.928223,319.081451 
	C778.798218,318.825989 769.656128,319.000000 760.196777,319.000000 
	C760.196777,315.995300 760.196777,313.246552 760.196777,309.678650 
	C758.034058,311.277039 756.372742,312.318695 754.930359,313.605682 
	C750.535645,317.526825 745.134827,319.635040 739.566956,319.825745 
	C730.522278,320.135529 721.241699,320.381866 712.426147,318.718323 
	C702.732483,316.889069 694.853394,311.097412 689.989441,301.934509 
	C685.205444,292.922241 685.921936,283.310516 688.254883,274.199524 
	C690.386353,265.875183 696.736755,260.531677 704.910461,256.833282 
	C716.742554,251.479584 729.017151,251.950424 741.387939,251.996552 
	C746.862244,252.016968 752.336609,252.000000 757.810120,252.000000 
	C757.726318,243.497620 750.969604,235.516434 743.187317,235.081741 
	C736.218506,234.692459 729.018188,234.003708 722.278870,235.305313 
	C716.502258,236.421005 710.996033,239.775909 705.837402,242.909592 
	C703.118652,244.561127 701.547974,243.872879 700.550293,241.932648 
	C696.779785,234.600174 693.342529,227.096298 689.690674,219.468826 
	C698.457581,213.445953 707.546326,209.881653 717.654114,207.677628 
	C725.259033,206.019333 732.836365,205.162659 740.381958,205.198578 
	C752.314941,205.255402 763.999512,207.501312 774.407898,214.031769 
	C780.631165,217.936340 785.148071,223.280777 787.981323,230.056213 
	C790.993469,237.259460 792.798584,244.730682 792.999939,253.054291 
M744.517761,294.070740 
	C753.547119,293.064148 759.386597,284.034485 757.339539,274.000244 
	C748.755127,274.000244 740.127502,273.832520 731.510437,274.062531 
	C726.265381,274.202545 722.632568,277.217896 720.541992,281.963623 
	C718.680908,286.188141 721.129089,289.331970 723.739929,292.069397 
	C724.928589,293.315674 727.110779,293.560425 728.733337,294.456757 
	C733.791626,297.251160 738.883972,296.530243 744.517761,294.070740 
z"/>
<path fill="#FBFBFB" opacity="1.000000" stroke="none" 
	d="
M1046.243652,316.315552 
	C1034.517456,321.704590 1022.310181,320.702789 1010.547485,319.743103 
	C992.491150,318.269867 978.148560,309.759735 967.795166,294.132965 
	C959.889343,282.200500 957.983032,269.354370 959.139709,255.881668 
	C960.529236,239.698441 968.211548,226.620941 981.560242,217.161316 
	C987.931396,212.646393 995.051086,209.996262 1002.616760,207.716599 
	C1013.473145,204.445419 1024.342285,204.447144 1034.949829,206.287491 
	C1046.088745,208.220032 1056.477905,213.075745 1064.030151,222.280106 
	C1066.043091,224.733246 1068.438110,227.016327 1069.843628,229.790024 
	C1071.855103,233.759644 1071.676880,236.634918 1066.201172,238.784027 
	C1059.053589,241.589417 1052.616943,246.206375 1046.974487,249.417694 
	C1040.494507,244.483963 1035.184326,238.966690 1028.704956,236.024017 
	C1024.356079,234.048935 1018.301819,235.314667 1013.106934,235.935883 
	C1010.544128,236.242340 1008.222839,238.419022 1005.751953,239.669769 
	C996.428223,244.389465 992.803162,259.773285 994.528748,268.319214 
	C995.894592,275.084015 998.357483,280.961029 1003.755798,285.168121 
	C1006.783020,287.527374 1010.265442,289.833099 1013.902893,290.780396 
	C1025.353760,293.762543 1035.458618,289.379486 1042.305908,279.227448 
	C1044.405273,276.114838 1048.113647,276.361023 1052.961548,279.498047 
	C1057.595459,282.496582 1062.379761,285.278290 1067.210449,287.951721 
	C1070.295654,289.659180 1072.388550,291.564362 1070.260986,295.254120 
	C1065.500610,303.509552 1059.250854,310.230896 1050.394165,314.210327 
	C1049.099121,314.792145 1047.831421,315.434387 1046.243652,316.315552 
z"/>
<path fill="#68C4E2" opacity="1.000000" stroke="none" 
	d="
M804.927979,334.000214 
	C814.492676,335.920166 823.672485,337.828247 831.472961,343.130066 
	C832.681274,343.951324 832.525452,348.103210 831.745850,350.261658 
	C829.878113,355.432190 827.263306,360.332886 824.403870,366.525299 
	C822.221375,365.616730 819.390442,364.181274 816.402039,363.251526 
	C811.309814,361.667236 806.139099,360.318970 800.961670,359.030975 
	C797.832214,358.252411 794.154114,356.472412 791.551575,357.419800 
	C785.227112,359.722198 777.424255,358.060760 772.511292,364.197937 
	C770.781860,366.358246 772.080627,374.070679 774.924011,375.268433 
	C780.973267,377.816742 787.127747,380.369751 793.486755,381.873260 
	C805.513794,384.716919 817.633484,387.255615 827.862793,394.591003 
	C830.819336,396.711060 832.971619,400.213806 834.914734,403.431641 
	C838.969971,410.146881 839.369019,418.060669 837.684631,425.046478 
	C834.913574,436.539001 827.710022,445.273102 816.288879,450.099426 
	C810.783691,452.425812 805.345581,454.013611 799.306335,454.120209 
	C794.788940,454.199982 790.166321,456.343231 785.806763,455.807800 
	C773.802917,454.333435 761.569458,453.422913 750.448120,447.859192 
	C747.826538,446.547668 744.736877,445.711487 742.739197,443.759521 
	C741.152649,442.209290 739.647400,438.822418 740.299988,437.066101 
	C742.184875,431.992889 745.225586,427.355530 747.695374,422.487671 
	C748.177673,421.537262 748.133728,420.319946 748.489929,418.359131 
	C751.749939,419.773193 754.632202,421.068268 757.549622,422.278534 
	C762.220398,424.216095 766.798767,426.497803 771.630188,427.893311 
	C776.747437,429.371368 782.094482,430.642273 787.377747,430.802948 
	C793.524597,430.989838 799.796265,429.859161 805.276245,426.796356 
	C809.622559,424.367157 809.193115,415.892761 804.474121,413.990265 
	C797.543823,411.196228 790.264221,409.263855 783.120667,407.004578 
	C770.932312,403.149811 757.873718,401.305908 748.536316,391.117950 
	C741.047913,382.947540 740.822815,373.036865 742.519897,363.267914 
	C744.540161,351.638824 751.740051,343.697601 762.796753,338.853973 
	C774.828369,333.583282 787.066406,331.765137 799.973450,333.913513 
	C801.434692,334.156738 802.965515,333.981384 804.927979,334.000214 
z"/>
<path fill="#68C4E2" opacity="1.000000" stroke="none" 
	d="
M480.253296,435.772827 
	C477.327484,432.236023 474.198761,429.246307 472.099915,425.654755 
	C463.150543,410.340576 463.204559,393.503784 466.339630,376.988068 
	C468.155609,367.421478 473.666687,358.645966 480.952240,351.634033 
	C488.948853,343.937866 498.175751,338.790771 509.130951,335.702026 
	C520.449585,332.510742 531.668335,332.173462 542.705505,334.261078 
	C555.349243,336.652588 566.942017,342.267151 575.634766,352.396637 
	C577.226685,354.251709 577.655823,356.283630 575.235596,358.361023 
	C570.447327,362.470947 566.120605,367.145233 561.139343,370.984619 
	C559.922241,371.922729 556.540527,371.151550 554.797607,370.099823 
	C549.829224,367.101868 545.604614,361.996277 540.325623,360.599670 
	C532.985596,358.657959 525.322449,358.202332 517.267944,361.448273 
	C509.455353,364.596741 503.598267,368.917725 499.587128,375.845062 
	C497.496246,379.456116 496.053070,383.598816 495.140594,387.685211 
	C494.432220,390.857544 494.825958,394.325470 495.030884,397.643433 
	C495.795105,410.015167 500.984863,419.800568 512.686218,424.889893 
	C518.116699,427.251831 524.213440,429.995819 529.812073,429.622986 
	C538.910950,429.017029 547.934998,426.302734 554.267456,418.467712 
	C556.325073,415.921875 558.704285,414.762360 561.775391,418.098114 
	C565.945496,422.627563 570.705750,426.620880 575.291260,430.757324 
	C577.293945,432.563965 577.560913,434.050385 575.500916,436.103180 
	C568.895874,442.685303 562.003906,448.784821 552.596375,450.990875 
	C547.873901,452.098236 543.125610,453.125061 538.350403,453.969940 
	C533.705627,454.791779 528.825073,456.501923 524.372314,455.791107 
	C508.078308,453.189972 491.791809,450.022217 480.253296,435.772827 
z"/>
<path fill="#FBFBFB" opacity="1.000000" stroke="none" 
	d="
M889.985352,306.242157 
	C892.264709,312.832123 890.942017,314.531799 884.697510,317.104858 
	C872.710938,322.043884 860.348633,321.055634 848.423889,318.704926 
	C836.881409,316.429565 828.765015,309.063416 824.710083,297.068939 
	C822.417053,290.286316 822.019836,283.721100 822.006348,276.883942 
	C821.980408,263.753937 821.998718,250.623886 821.998718,237.093979 
	C816.638550,237.093979 811.555908,237.093979 806.243713,237.093979 
	C806.243713,227.624756 806.243713,218.554535 806.243713,209.080811 
	C811.373901,209.080811 816.456604,209.080811 821.998962,209.080811 
	C821.998962,201.411682 822.160706,194.129303 821.930847,186.859314 
	C821.815918,183.225128 822.862244,181.816650 826.696411,181.924866 
	C835.353577,182.169205 844.024353,182.109100 852.685303,181.946136 
	C855.914551,181.885361 857.136780,182.930405 857.055969,186.240585 
	C856.873962,193.690231 856.998779,201.147369 856.998779,209.000229 
	C864.668457,209.000229 871.960205,209.175949 879.237488,208.927612 
	C882.991699,208.799484 884.218079,210.080276 884.069458,213.795502 
	C883.816650,220.116776 883.861084,226.459808 884.056946,232.785156 
	C884.160278,236.123077 882.867920,237.130127 879.662659,237.054733 
	C872.341980,236.882507 865.014526,237.000305 856.998718,237.000305 
	C856.998718,241.339554 856.998657,245.589661 856.998779,249.839767 
	C856.998962,260.003326 856.955994,270.167114 857.014038,280.330353 
	C857.055176,287.527557 862.932007,293.501770 869.907532,292.861359 
	C872.950439,292.582031 876.299194,291.382141 878.717957,289.553741 
	C882.324097,286.827911 883.163635,287.896027 884.311890,291.602509 
	C885.816650,296.459808 888.049561,301.091583 889.985352,306.242157 
z"/>
<path fill="#FBFBFB" opacity="1.000000" stroke="none" 
	d="
M646.226196,286.604004 
	C649.879395,292.773499 654.228577,294.020691 660.600708,291.092468 
	C662.869873,290.049774 665.143677,288.923157 667.535828,288.289673 
	C668.456482,288.045837 670.398743,288.790710 670.707214,289.556030 
	C673.282166,295.943329 675.815918,302.368164 677.869019,308.935822 
	C678.862000,312.112457 678.027527,315.400391 674.131897,316.337769 
	C668.368835,317.724457 662.569946,319.479126 656.712585,319.823730 
	C649.687622,320.237030 642.401489,320.213318 635.560608,318.786652 
	C626.071716,316.807739 618.360107,311.509308 614.017456,302.252594 
	C609.916626,293.511353 608.644531,284.362213 608.913330,274.752197 
	C609.261414,262.310272 608.998291,249.851242 608.998291,237.001740 
	C603.542419,237.001740 598.459839,237.001740 593.202759,237.001740 
	C593.202759,227.529846 593.202759,218.460022 593.202759,209.163147 
	C598.351929,209.163147 603.306885,209.163147 608.998413,209.163147 
	C608.998413,201.881760 609.253906,194.791382 608.903992,187.731018 
	C608.688538,183.381592 610.258484,181.877396 614.444641,181.955643 
	C622.772461,182.111343 631.108459,182.134247 639.434570,181.938187 
	C642.891846,181.856796 644.174133,182.933350 644.065674,186.490891 
	C643.842957,193.794189 643.998779,201.109039 643.998779,208.819717 
	C652.940796,208.819717 661.684021,208.819717 670.711182,208.819717 
	C670.711182,218.285568 670.711182,227.356247 670.711182,236.829391 
	C662.048340,236.829391 653.304871,236.829391 643.998718,236.829391 
	C643.998718,246.314774 643.998657,255.412064 643.998718,264.509369 
	C643.998718,269.341217 643.781677,274.186981 644.089783,278.999115 
	C644.246521,281.448303 645.348145,283.837036 646.226196,286.604004 
z"/>
<path fill="#FBFBFB" opacity="1.000000" stroke="none" 
	d="
M942.006714,232.000046 
	C942.006714,259.154114 942.010315,285.808228 942.004028,312.462311 
	C942.002625,318.536865 941.540771,318.990997 935.444214,318.997711 
	C927.114807,319.006897 918.784729,318.938934 910.456299,319.027740 
	C906.776978,319.066925 904.891235,318.144440 904.912476,313.782379 
	C905.077942,279.799225 905.044800,245.814789 904.951782,211.831055 
	C904.940247,207.596161 906.476990,205.854630 910.773499,205.949417 
	C919.098877,206.133057 927.435608,206.168289 935.758789,205.940140 
	C940.608398,205.807190 942.042236,208.266632 942.016663,212.509079 
	C941.978516,218.839203 942.006714,225.169708 942.006714,232.000046 
z"/>
<path fill="#FBFBFB" opacity="1.000000" stroke="none" 
	d="
M932.336365,157.140182 
	C933.552551,157.861313 934.268433,158.654968 935.160034,159.024567 
	C943.402832,162.441132 946.463623,173.206970 943.475098,181.586349 
	C941.406616,187.386108 937.956421,190.829224 933.144470,193.210266 
	C924.573608,197.451218 909.002197,195.886246 903.963867,184.211945 
	C898.360107,171.227386 904.182983,161.743515 915.055786,157.389175 
	C919.942444,155.432159 926.253113,157.030777 932.336365,157.140182 
z"/>
<path fill="#6EC5E3" opacity="1.000000" stroke="none" 
	d="
M133.197174,214.080368 
	C134.302048,212.413361 134.988205,210.848221 136.079208,209.652496 
	C152.075470,192.121353 170.275879,177.807083 192.589386,168.807236 
	C206.898743,163.035767 221.548752,159.775223 236.795868,158.114029 
	C261.533936,155.418793 285.038452,160.306488 307.610474,169.672470 
	C321.714966,175.524963 334.437012,183.905731 346.050812,194.168015 
	C359.173676,205.763748 369.733398,219.163620 378.537781,234.124207 
	C379.459229,235.689972 380.262634,237.340271 380.966187,239.016235 
	C382.739075,243.239304 384.918579,246.543533 389.869598,248.144943 
	C395.861298,250.082947 398.485931,256.604828 396.674744,262.294739 
	C395.040710,267.428040 389.128632,270.744751 383.065033,269.929779 
	C377.886230,269.233765 373.695007,264.111664 374.120422,257.985413 
	C374.787750,248.376083 369.199524,241.117050 364.744904,233.829880 
	C355.517517,218.734985 343.651642,205.732224 329.008667,195.549561 
	C324.001495,192.067581 318.800049,188.830597 313.491699,185.827530 
	C309.500061,183.569366 308.109802,184.532486 308.086517,189.108963 
	C308.035614,199.107651 308.253418,209.112335 307.943695,219.101624 
	C307.870514,221.461853 306.684814,224.264984 305.082367,226.013351 
	C299.682739,231.904694 293.957214,237.509674 288.166260,243.024536 
	C285.449554,245.611679 285.607635,247.778778 287.392548,250.890137 
	C290.467590,256.250427 294.190521,258.784149 300.856537,258.438324 
	C313.487885,257.783051 326.179230,258.369537 338.841583,258.175781 
	C342.748108,258.115997 344.174805,259.340698 344.021179,263.318390 
	C343.757751,270.140808 344.064514,276.983612 343.898560,283.812164 
	C343.822144,286.956360 344.727600,288.294098 348.111145,288.237701 
	C358.440613,288.065491 368.777191,288.276855 379.103882,288.035278 
	C380.513245,288.002289 382.548767,286.545532 383.149933,285.226410 
	C385.302917,280.502197 389.899841,282.756622 393.121460,281.265259 
	C394.066406,283.345825 395.666595,285.373474 395.839783,287.516449 
	C396.494507,295.617767 397.121918,303.764557 396.971863,311.879791 
	C396.454956,339.830261 387.549530,365.232300 372.089600,388.275452 
	C366.481384,396.634552 360.232697,404.796967 353.081024,411.834534 
	C341.472839,423.257477 328.202942,432.688446 313.365265,439.728912 
	C295.621857,448.148193 277.048920,452.819458 257.366608,453.940338 
	C230.180344,455.488586 204.637253,449.989929 180.550903,437.644287 
	C163.224503,428.763458 148.237762,416.605804 135.753143,401.781433 
	C124.735435,388.698853 116.462189,373.774200 110.125664,357.798126 
	C108.955849,354.848663 106.578735,352.272400 104.393188,349.854431 
	C100.381050,345.415680 99.840965,338.708557 103.476433,334.458893 
	C107.819405,329.382233 114.261009,328.463470 119.447762,332.180908 
	C123.708107,335.234375 125.569832,341.415527 123.037453,346.102112 
	C120.734001,350.364960 121.034584,354.222504 123.107780,358.314026 
	C124.079933,360.232574 124.737373,362.307922 125.607910,364.281097 
	C129.367477,372.802704 130.297775,372.822662 137.240845,366.519409 
	C145.350052,359.157410 153.940643,352.321838 161.965134,344.873016 
	C164.002289,342.981995 165.695541,339.673981 165.810379,336.944061 
	C166.251190,326.463776 166.150558,315.949921 165.901123,305.456909 
	C165.805374,301.428619 166.815002,299.852234 171.131744,300.015228 
	C179.618729,300.335754 188.129105,299.984344 196.624146,300.170044 
	C200.004684,300.243896 201.476990,299.319550 201.303955,295.694275 
	C201.049988,290.373322 201.132324,285.029541 201.259171,279.699951 
	C201.326218,276.882599 200.220673,275.857178 197.435638,275.931274 
	C192.273209,276.068695 187.099396,275.829132 181.940247,276.017944 
	C178.841797,276.131317 177.841385,274.941528 177.944290,271.939240 
	C178.115417,266.945953 177.819901,261.935822 178.018082,256.944580 
	C178.162659,253.303375 176.880829,251.945099 173.127274,251.985245 
	C158.130569,252.145660 143.129929,252.153030 128.133636,251.974991 
	C124.701180,251.934250 123.057983,253.196686 121.922684,256.299652 
	C115.583374,273.626099 112.111908,291.402679 112.834854,309.924408 
	C112.908173,311.802826 112.849022,314.890533 111.855560,315.375000 
	C109.150627,316.694000 105.927773,317.052612 102.865555,317.419037 
	C102.444328,317.469421 101.344681,315.430603 101.275322,314.314514 
	C99.775597,290.178680 103.961014,267.025665 113.911568,245.001236 
	C118.893524,233.974274 124.555054,223.287628 133.197174,214.080368 
M274.468506,440.162323 
	C276.895966,439.649353 279.358032,439.261932 281.745422,438.603668 
	C302.473633,432.888306 321.399200,423.894073 337.661896,409.407410 
	C341.795715,405.725067 341.099976,404.116913 337.709656,401.169861 
	C328.932892,393.540649 320.201111,385.854614 311.618439,378.008453 
	C301.925537,369.147339 304.823242,367.246796 293.226166,379.492371 
	C291.539978,381.272888 288.702576,382.743774 286.296600,382.912292 
	C279.663574,383.376953 272.975677,383.151093 266.311798,383.047882 
	C262.160400,382.983582 260.570435,384.773285 261.144836,388.894226 
	C261.885437,394.207397 261.131378,395.024628 255.780792,395.036896 
	C242.116608,395.068176 228.452301,395.045563 214.788040,395.042053 
	C201.322189,395.038605 201.409409,395.035522 201.142395,381.686310 
	C201.096054,379.369720 200.654022,376.431122 199.211716,374.879639 
	C192.408722,367.561646 185.297485,360.516357 178.016281,353.671570 
	C176.908386,352.630096 173.586334,352.240356 172.549179,353.089386 
	C161.500671,362.133209 150.701157,371.481476 139.847458,380.762756 
	C137.509918,382.761627 137.599960,384.703308 139.477402,387.223145 
	C148.201752,398.933044 158.418747,409.171173 170.330887,417.519104 
	C201.547028,439.395081 236.151672,446.465576 274.468506,440.162323 
M233.500000,336.022949 
	C240.997757,336.022003 248.500427,336.182892 255.991257,335.954651 
	C259.986053,335.832947 261.279297,337.397217 261.148773,341.242249 
	C260.934143,347.566315 261.087921,353.902985 261.090210,360.234344 
	C261.093719,370.069214 261.087372,370.127258 270.471802,371.375519 
	C273.260010,371.746429 276.183624,372.158508 278.902161,371.701385 
	C281.713837,371.228546 284.950470,370.378296 286.956451,368.548065 
	C293.718719,362.378296 300.093414,355.773041 306.426514,349.152771 
	C307.673859,347.848846 308.697052,345.758453 308.759674,343.993042 
	C309.019470,336.671143 308.809998,329.334015 308.903290,322.004150 
	C308.940643,319.065887 307.843079,317.731903 304.794952,317.832214 
	C300.634216,317.969086 296.465271,317.877014 292.300049,317.850220 
	C283.999756,317.796783 284.978638,318.679932 284.952667,310.250427 
	C284.916229,298.420898 285.046112,286.589478 284.851990,274.763000 
	C284.813416,272.412811 284.068024,269.831543 282.892334,267.792999 
	C280.410339,263.489410 277.678345,259.269165 274.535156,255.436020 
	C273.170746,253.772110 270.573883,252.290100 268.474884,252.202133 
	C259.825928,251.839676 251.147537,252.226547 242.491821,251.957062 
	C238.575317,251.835114 237.576630,253.351913 237.798965,256.926636 
	C238.046722,260.910095 237.868408,264.920654 237.859970,268.919373 
	C237.845459,275.786621 237.575760,276.056458 230.948380,276.033264 
	C226.949677,276.019287 222.935547,276.229584 218.956528,275.945038 
	C214.893097,275.654480 213.754272,277.396240 213.840897,281.203705 
	C214.034119,289.696655 213.822647,298.198090 213.937500,306.693878 
	C213.988983,310.501892 212.545502,312.029694 208.599182,311.928925 
	C199.940842,311.707977 191.270996,311.968231 182.610001,311.807495 
	C179.108963,311.742523 177.836395,313.108643 177.956619,316.521088 
	C178.126663,321.347137 177.726166,326.208038 178.143311,331.004150 
	C178.338882,333.252716 179.382843,335.834106 180.892258,337.489777 
	C186.720444,343.882721 192.880356,349.973999 198.961853,356.133087 
	C199.324295,356.500122 200.081741,356.477173 201.233368,356.795410 
	C201.233368,351.386139 201.438599,346.408020 201.169266,341.455719 
	C200.948715,337.400299 202.250824,335.810150 206.510696,335.944946 
	C215.165955,336.218903 223.836029,336.024445 233.500000,336.022949 
M226.487503,216.974564 
	C228.318466,216.972504 230.169739,217.144852 231.976410,216.934296 
	C236.626938,216.392303 238.261978,218.372772 237.932877,222.949615 
	C237.611343,227.420914 237.970520,231.936935 237.815445,236.425873 
	C237.706879,239.568451 238.831314,240.808350 242.108658,240.970367 
	C271.671997,242.431732 271.669800,242.475281 292.326508,221.303314 
	C292.791443,220.826767 293.466125,220.437729 293.695282,219.868042 
	C294.830353,217.045822 296.641174,214.209595 296.761719,211.317810 
	C297.149567,202.012863 296.705475,192.675598 296.979675,183.362503 
	C297.106903,179.041595 295.408844,176.904739 291.375214,175.996246 
	C285.569855,174.688721 279.870422,172.750992 274.007111,171.898193 
	C265.338440,170.637329 256.545135,169.256149 247.842560,169.468674 
	C238.302414,169.701630 228.822815,171.862457 219.280701,172.824982 
	C215.221130,173.234451 213.808914,175.022842 213.863144,178.894470 
	C213.986694,187.714676 213.897949,196.537811 213.903442,205.359756 
	C213.910675,216.986603 213.913971,216.986603 226.487503,216.974564 
M371.632660,365.118713 
	C381.424042,345.942200 385.693726,325.563324 385.051239,304.081818 
	C384.964478,301.180969 383.989960,299.849487 380.932770,299.875000 
	C369.771881,299.968201 358.609558,299.951996 347.448334,299.881836 
	C344.922424,299.865967 343.778198,300.760101 343.869568,303.373566 
	C343.985901,306.701233 343.720398,310.047455 343.936829,313.364960 
	C344.170837,316.951538 342.598175,318.032654 339.218903,317.908264 
	C334.061554,317.718414 328.889465,317.957428 323.728760,317.820557 
	C320.936859,317.746521 319.866180,318.788818 319.924011,321.600494 
	C320.054138,327.928345 319.546234,334.296967 320.086914,340.581085 
	C320.648438,347.107666 318.824554,352.320465 313.837555,356.393951 
	C310.164734,359.394012 310.566040,361.822052 314.039948,364.807373 
	C325.376099,374.549133 336.565674,384.462585 347.740448,394.390106 
	C349.794861,396.215210 351.391815,396.552277 353.008698,394.046967 
	C359.091980,384.621399 365.184479,375.201752 371.632660,365.118713 
M186.296997,184.796967 
	C184.926163,185.393723 183.470947,185.849045 182.197357,186.608795 
	C167.070114,195.632812 153.923645,207.067444 142.476791,220.361557 
	C138.408340,225.086548 135.374069,230.716568 131.994080,236.014099 
	C130.109818,238.967316 130.255890,240.968063 134.605942,240.938873 
	C147.591537,240.851669 160.578583,240.847214 173.563965,240.950241 
	C176.742004,240.975479 178.128967,239.867004 178.034958,236.601685 
	C177.891266,231.611160 178.113876,226.609787 177.958542,221.619965 
	C177.850693,218.155563 179.285690,216.838531 182.705704,216.951675 
	C187.694931,217.116745 192.694534,216.938385 197.688019,217.016098 
	C200.234314,217.055710 201.883636,216.375702 201.872711,213.440521 
	C201.834320,203.118408 201.879013,192.795975 201.834946,182.473907 
	C201.821243,179.267227 200.385544,178.290359 197.347672,179.755463 
	C193.926743,181.405304 190.417450,182.871918 186.296997,184.796967 
M225.850571,243.511566 
	C225.844101,239.850021 225.845657,236.188461 225.828674,232.526962 
	C225.814957,229.571564 224.751968,227.996597 221.357635,228.065796 
	C212.420013,228.248016 203.474976,228.191528 194.535095,228.068909 
	C191.428589,228.026306 189.913940,229.020706 189.947632,232.335815 
	C190.044022,241.821625 190.036285,251.309631 189.943573,260.795532 
	C189.913849,263.838531 191.235840,264.908844 194.160797,264.880554 
	C203.147461,264.793610 212.135818,264.800751 221.122803,264.868164 
	C224.538055,264.893768 225.924988,263.292877 225.876480,259.985229 
	C225.800842,254.826813 225.853745,249.666519 225.850571,243.511566 
M298.077362,270.182892 
	C297.428864,271.404083 296.238220,272.616486 296.218140,273.847900 
	C296.066223,283.176270 296.134796,292.508362 296.154602,301.839264 
	C296.161285,304.975830 297.761932,306.195587 300.892853,306.156067 
	C309.889160,306.042542 318.889404,306.018890 327.884705,306.165649 
	C331.152313,306.218964 332.291229,304.989594 332.245544,301.777557 
	C332.115204,292.615051 332.092163,283.447510 332.259125,274.286194 
	C332.318237,271.040771 331.254395,269.881866 327.968079,269.939819 
	C318.306885,270.110229 308.641083,270.019623 298.077362,270.182892 
M213.899841,376.368378 
	C213.900818,383.921570 213.900803,383.913757 221.593216,383.904236 
	C229.089645,383.894958 236.589188,383.777710 244.081223,383.960114 
	C247.616165,384.046234 249.246704,383.055389 249.161179,379.197662 
	C248.958115,370.039734 248.978851,360.872498 249.137848,351.713013 
	C249.199341,348.170959 247.779343,347.059479 244.395584,347.118408 
	C235.902191,347.266418 227.400177,347.324707 218.910355,347.095581 
	C214.866028,346.986450 213.723007,348.598572 213.830658,352.408661 
	C214.047012,360.065643 213.898117,367.732941 213.899841,376.368378 
z"/>
<path fill="#F9FAFA" opacity="1.000000" stroke="none" 
	d="
M274.042084,440.210175 
	C236.151672,446.465576 201.547028,439.395081 170.330887,417.519104 
	C158.418747,409.171173 148.201752,398.933044 139.477402,387.223145 
	C137.599960,384.703308 137.509918,382.761627 139.847458,380.762756 
	C150.701157,371.481476 161.500671,362.133209 172.549179,353.089386 
	C173.586334,352.240356 176.908386,352.630096 178.016281,353.671570 
	C185.297485,360.516357 192.408722,367.561646 199.211716,374.879639 
	C200.654022,376.431122 201.096054,379.369720 201.142395,381.686310 
	C201.409409,395.035522 201.322189,395.038605 214.788040,395.042053 
	C228.452301,395.045563 242.116608,395.068176 255.780792,395.036896 
	C261.131378,395.024628 261.885437,394.207397 261.144836,388.894226 
	C260.570435,384.773285 262.160400,382.983582 266.311798,383.047882 
	C272.975677,383.151093 279.663574,383.376953 286.296600,382.912292 
	C288.702576,382.743774 291.539978,381.272888 293.226166,379.492371 
	C304.823242,367.246796 301.925537,369.147339 311.618439,378.008453 
	C320.201111,385.854614 328.932892,393.540649 337.709656,401.169861 
	C341.099976,404.116913 341.795715,405.725067 337.661896,409.407410 
	C321.399200,423.894073 302.473633,432.888306 281.745422,438.603668 
	C279.358032,439.261932 276.895966,439.649353 274.042084,440.210175 
z"/>
<path fill="#F8FAFA" opacity="1.000000" stroke="none" 
	d="
M233.000000,336.023010 
	C223.836029,336.024445 215.165955,336.218903 206.510696,335.944946 
	C202.250824,335.810150 200.948715,337.400299 201.169266,341.455719 
	C201.438599,346.408020 201.233368,351.386139 201.233368,356.795410 
	C200.081741,356.477173 199.324295,356.500122 198.961853,356.133087 
	C192.880356,349.973999 186.720444,343.882721 180.892258,337.489777 
	C179.382843,335.834106 178.338882,333.252716 178.143311,331.004150 
	C177.726166,326.208038 178.126663,321.347137 177.956619,316.521088 
	C177.836395,313.108643 179.108963,311.742523 182.610001,311.807495 
	C191.270996,311.968231 199.940842,311.707977 208.599182,311.928925 
	C212.545502,312.029694 213.988983,310.501892 213.937500,306.693878 
	C213.822647,298.198090 214.034119,289.696655 213.840897,281.203705 
	C213.754272,277.396240 214.893097,275.654480 218.956528,275.945038 
	C222.935547,276.229584 226.949677,276.019287 230.948380,276.033264 
	C237.575760,276.056458 237.845459,275.786621 237.859970,268.919373 
	C237.868408,264.920654 238.046722,260.910095 237.798965,256.926636 
	C237.576630,253.351913 238.575317,251.835114 242.491821,251.957062 
	C251.147537,252.226547 259.825928,251.839676 268.474884,252.202133 
	C270.573883,252.290100 273.170746,253.772110 274.535156,255.436020 
	C277.678345,259.269165 280.410339,263.489410 282.892334,267.792999 
	C284.068024,269.831543 284.813416,272.412811 284.851990,274.763000 
	C285.046112,286.589478 284.916229,298.420898 284.952667,310.250427 
	C284.978638,318.679932 283.999756,317.796783 292.300049,317.850220 
	C296.465271,317.877014 300.634216,317.969086 304.794952,317.832214 
	C307.843079,317.731903 308.940643,319.065887 308.903290,322.004150 
	C308.809998,329.334015 309.019470,336.671143 308.759674,343.993042 
	C308.697052,345.758453 307.673859,347.848846 306.426514,349.152771 
	C300.093414,355.773041 293.718719,362.378296 286.956451,368.548065 
	C284.950470,370.378296 281.713837,371.228546 278.902161,371.701385 
	C276.183624,372.158508 273.260010,371.746429 270.471802,371.375519 
	C261.087372,370.127258 261.093719,370.069214 261.090210,360.234344 
	C261.087921,353.902985 260.934143,347.566315 261.148773,341.242249 
	C261.279297,337.397217 259.986053,335.832947 255.991257,335.954651 
	C248.500427,336.182892 240.997757,336.022003 233.000000,336.023010 
z"/>
<path fill="#F9FAFA" opacity="1.000000" stroke="none" 
	d="
M225.998260,216.975098 
	C213.913971,216.986603 213.910675,216.986603 213.903442,205.359756 
	C213.897949,196.537811 213.986694,187.714676 213.863144,178.894470 
	C213.808914,175.022842 215.221130,173.234451 219.280701,172.824982 
	C228.822815,171.862457 238.302414,169.701630 247.842560,169.468674 
	C256.545135,169.256149 265.338440,170.637329 274.007111,171.898193 
	C279.870422,172.750992 285.569855,174.688721 291.375214,175.996246 
	C295.408844,176.904739 297.106903,179.041595 296.979675,183.362503 
	C296.705475,192.675598 297.149567,202.012863 296.761719,211.317810 
	C296.641174,214.209595 294.830353,217.045822 293.695282,219.868042 
	C293.466125,220.437729 292.791443,220.826767 292.326508,221.303314 
	C271.669800,242.475281 271.671997,242.431732 242.108658,240.970367 
	C238.831314,240.808350 237.706879,239.568451 237.815445,236.425873 
	C237.970520,231.936935 237.611343,227.420914 237.932877,222.949615 
	C238.261978,218.372772 236.626938,216.392303 231.976410,216.934296 
	C230.169739,217.144852 228.318466,216.972504 225.998260,216.975098 
z"/>
<path fill="#F9FAFA" opacity="1.000000" stroke="none" 
	d="
M371.453094,365.449280 
	C365.184479,375.201752 359.091980,384.621399 353.008698,394.046967 
	C351.391815,396.552277 349.794861,396.215210 347.740448,394.390106 
	C336.565674,384.462585 325.376099,374.549133 314.039948,364.807373 
	C310.566040,361.822052 310.164734,359.394012 313.837555,356.393951 
	C318.824554,352.320465 320.648438,347.107666 320.086914,340.581085 
	C319.546234,334.296967 320.054138,327.928345 319.924011,321.600494 
	C319.866180,318.788818 320.936859,317.746521 323.728760,317.820557 
	C328.889465,317.957428 334.061554,317.718414 339.218903,317.908264 
	C342.598175,318.032654 344.170837,316.951538 343.936829,313.364960 
	C343.720398,310.047455 343.985901,306.701233 343.869568,303.373566 
	C343.778198,300.760101 344.922424,299.865967 347.448334,299.881836 
	C358.609558,299.951996 369.771881,299.968201 380.932770,299.875000 
	C383.989960,299.849487 384.964478,301.180969 385.051239,304.081818 
	C385.693726,325.563324 381.424042,345.942200 371.453094,365.449280 
z"/>
<path fill="#F6F8FA" opacity="1.000000" stroke="none" 
	d="
M186.621796,184.607605 
	C190.417450,182.871918 193.926743,181.405304 197.347672,179.755463 
	C200.385544,178.290359 201.821243,179.267227 201.834946,182.473907 
	C201.879013,192.795975 201.834320,203.118408 201.872711,213.440521 
	C201.883636,216.375702 200.234314,217.055710 197.688019,217.016098 
	C192.694534,216.938385 187.694931,217.116745 182.705704,216.951675 
	C179.285690,216.838531 177.850693,218.155563 177.958542,221.619965 
	C178.113876,226.609787 177.891266,231.611160 178.034958,236.601685 
	C178.128967,239.867004 176.742004,240.975479 173.563965,240.950241 
	C160.578583,240.847214 147.591537,240.851669 134.605942,240.938873 
	C130.255890,240.968063 130.109818,238.967316 131.994080,236.014099 
	C135.374069,230.716568 138.408340,225.086548 142.476791,220.361557 
	C153.923645,207.067444 167.070114,195.632812 182.197357,186.608795 
	C183.470947,185.849045 184.926163,185.393723 186.621796,184.607605 
z"/>
<path fill="#F4F7F9" opacity="1.000000" stroke="none" 
	d="
M225.851379,244.009308 
	C225.853745,249.666519 225.800842,254.826813 225.876480,259.985229 
	C225.924988,263.292877 224.538055,264.893768 221.122803,264.868164 
	C212.135818,264.800751 203.147461,264.793610 194.160797,264.880554 
	C191.235840,264.908844 189.913849,263.838531 189.943573,260.795532 
	C190.036285,251.309631 190.044022,241.821625 189.947632,232.335815 
	C189.913940,229.020706 191.428589,228.026306 194.535095,228.068909 
	C203.474976,228.191528 212.420013,228.248016 221.357635,228.065796 
	C224.751968,227.996597 225.814957,229.571564 225.828674,232.526962 
	C225.845657,236.188461 225.844101,239.850021 225.851379,244.009308 
z"/>
<path fill="#F7F9FA" opacity="1.000000" stroke="none" 
	d="
M298.527222,270.107056 
	C308.641083,270.019623 318.306885,270.110229 327.968079,269.939819 
	C331.254395,269.881866 332.318237,271.040771 332.259125,274.286194 
	C332.092163,283.447510 332.115204,292.615051 332.245544,301.777557 
	C332.291229,304.989594 331.152313,306.218964 327.884705,306.165649 
	C318.889404,306.018890 309.889160,306.042542 300.892853,306.156067 
	C297.761932,306.195587 296.161285,304.975830 296.154602,301.839264 
	C296.134796,292.508362 296.066223,283.176270 296.218140,273.847900 
	C296.238220,272.616486 297.428864,271.404083 298.527222,270.107056 
z"/>
<path fill="#F6F9FA" opacity="1.000000" stroke="none" 
	d="
M213.899902,375.882202 
	C213.898117,367.732941 214.047012,360.065643 213.830658,352.408661 
	C213.723007,348.598572 214.866028,346.986450 218.910355,347.095581 
	C227.400177,347.324707 235.902191,347.266418 244.395584,347.118408 
	C247.779343,347.059479 249.199341,348.170959 249.137848,351.713013 
	C248.978851,360.872498 248.958115,370.039734 249.161179,379.197662 
	C249.246704,383.055389 247.616165,384.046234 244.081223,383.960114 
	C236.589188,383.777710 229.089645,383.894958 221.593216,383.904236 
	C213.900803,383.913757 213.900818,383.921570 213.899902,375.882202 
z"/>
</svg>