<svg version="1.1" id="Layer_1" xmlns="http://www.w3.org/2000/svg" xmlns:xlink="http://www.w3.org/1999/xlink" x="0px" y="0px"
	 width="100%" viewBox="0 0 984 984" enable-background="new 0 0 984 984" xml:space="preserve">
<path class="no-fill" fill="none" opacity="1.000000" stroke="none" 
	d="
M1.000000,352.000000 
	C1.000000,234.666687 1.000000,117.833359 1.000000,1.000031 
	C328.999939,1.000021 656.999878,1.000021 984.999878,1.000010 
	C984.999878,328.999908 984.999878,656.999817 984.999939,984.999756 
	C657.000122,984.999878 329.000275,984.999878 1.000197,984.999939 
	C1.000000,774.166687 1.000000,563.333313 1.000000,352.000000 
M725.083374,66.604408 
	C723.188232,65.401932 721.335815,64.124023 719.385254,63.019424 
	C717.640503,62.031445 715.787598,61.234539 713.982361,60.353317 
	C711.842468,58.869785 709.300720,58.389038 707.077087,57.273937 
	C703.356445,55.408112 699.947205,52.914093 696.206604,51.096886 
	C692.076965,49.090679 687.698303,47.603531 683.470886,45.790585 
	C678.333008,43.587261 673.345581,40.986332 668.099121,39.095646 
	C662.257629,36.990551 656.132629,35.682747 650.250854,33.676514 
	C643.686707,31.437527 637.301697,28.674856 630.743164,26.417542 
	C628.693359,25.712023 626.333923,25.906155 624.024170,25.679434 
	C624.215881,24.642986 624.350830,23.913870 624.437744,23.443966 
	C620.646912,22.956505 616.240723,23.569271 613.341248,21.763222 
	C607.876709,18.359449 602.179321,19.420731 596.533936,18.831043 
	C595.611572,18.734699 594.524719,18.479662 593.881104,17.894239 
	C593.103638,17.187031 592.717590,16.049574 592.183167,15.134392 
	C581.188599,14.528832 570.321350,13.816540 559.290283,11.474919 
	C546.546448,8.769736 533.044739,9.374235 519.860046,9.075504 
	C505.035156,8.739612 490.196777,8.999093 475.364258,9.000761 
	C471.531189,9.001192 467.397308,8.062901 463.917267,9.172718 
	C449.117310,13.892540 433.527008,8.202909 418.561401,13.627003 
	C410.399811,16.585070 400.768890,14.002951 392.073608,17.775969 
	C387.783966,19.637306 382.406738,18.992174 377.548004,19.478546 
	C377.633453,19.946650 377.777069,20.733200 378.024139,22.086256 
	C372.536041,22.512100 367.184753,22.927330 362.911804,23.258886 
	C361.913177,24.461395 361.417542,25.667944 360.622559,25.916290 
	C355.547638,27.501642 350.362244,28.737339 345.301575,30.363186 
	C341.132446,31.702604 337.173615,33.743301 332.963928,34.898926 
	C326.425934,36.693707 320.081482,38.689735 313.976288,41.834595 
	C306.139221,45.871571 297.863770,49.069752 289.722992,52.500660 
	C284.003326,54.911205 277.247375,55.977249 272.727020,59.761425 
	C269.201874,62.712460 266.055664,62.784760 263.054474,62.993599 
	C261.861481,68.823227 257.139191,66.076637 255.148346,66.933723 
	C254.612045,68.304871 254.397095,69.808464 253.932266,69.890152 
	C250.569962,70.481010 248.421677,72.939514 245.764297,74.645576 
	C242.683517,76.623466 239.088409,77.811127 236.048279,79.839096 
	C230.511658,83.532387 225.295502,87.702972 219.804932,91.469292 
	C214.027191,95.432594 207.962250,98.983101 202.249786,103.034035 
	C196.919479,106.813965 191.783966,110.889847 186.755173,115.067169 
	C182.459564,118.635422 178.434021,122.529091 174.294617,126.284988 
	C169.385330,130.739456 164.505081,135.226227 159.569275,139.651077 
	C155.142105,143.619949 150.473251,147.338409 146.252945,151.513016 
	C142.649261,155.077713 139.637802,159.232895 136.170609,162.945953 
	C132.084549,167.321747 127.499260,171.259766 123.670792,175.839355 
	C120.135849,180.067825 117.322395,184.898438 114.177155,189.454178 
	C112.905861,191.295593 111.745888,193.242538 110.272865,194.909622 
	C107.692856,197.829529 104.662231,200.376816 102.274834,203.434967 
	C99.219269,207.349014 97.359428,212.555130 93.637550,215.505524 
	C88.185127,219.827805 87.793663,226.843109 83.157608,231.513947 
	C80.306137,234.386841 79.118767,238.860107 76.950600,242.474670 
	C73.768013,247.780411 69.936081,252.741470 67.190788,258.252838 
	C64.094208,264.469482 60.581131,270.533081 57.436008,276.681030 
	C55.505219,280.455231 53.617615,284.738434 51.811935,288.550598 
	C48.393208,295.768188 43.465546,302.564240 42.545898,310.895721 
	C42.463760,311.639893 41.490356,312.309296 40.878578,312.964630 
	C40.289642,313.595490 39.272175,314.057587 39.062508,314.774902 
	C37.279419,320.875488 35.638329,327.017548 33.951015,333.146179 
	C33.907211,333.305298 33.862572,333.498627 33.749832,333.599396 
	C28.794516,338.028809 32.512455,345.970490 27.032526,350.182251 
	C27.463663,359.630798 23.170372,367.963348 20.873135,376.779907 
	C19.061176,383.734009 19.027136,391.304688 16.363405,397.853027 
	C9.943087,413.636261 11.611771,430.730408 7.288227,446.855438 
	C5.284824,454.327301 6.110994,462.614746 6.039719,470.535919 
	C5.889771,487.200317 5.993415,503.867035 5.995697,520.532776 
	C5.995902,522.032532 5.869763,523.550049 6.050087,525.029114 
	C7.328601,535.516052 8.636175,545.999695 10.005584,556.475159 
	C11.105684,564.890442 11.855386,573.386414 13.581429,581.675659 
	C15.506497,590.920715 18.475357,599.943481 20.775530,609.116760 
	C23.110624,618.429321 24.934200,627.875427 27.451393,637.135376 
	C29.467695,644.552673 32.265091,651.754761 34.540504,659.106628 
	C35.113644,660.958435 34.356781,664.255554 35.334969,664.775940 
	C40.595924,667.574707 38.435966,672.405701 39.060894,675.937195 
	C40.207970,676.348694 41.778412,676.537903 41.863491,677.000366 
	C42.726345,681.690613 44.160847,685.982239 46.834820,690.110107 
	C49.482185,694.196777 50.863163,699.083862 53.026138,703.509094 
	C56.238136,710.080566 59.639851,716.559448 62.980034,723.067871 
	C64.808746,726.631226 66.444427,730.321716 68.581604,733.692078 
	C71.831581,738.817322 75.701401,743.559448 78.803047,748.765137 
	C80.719421,751.981506 80.764275,757.569214 83.305794,758.879517 
	C87.763924,761.178040 86.049133,764.814270 87.690315,767.293701 
	C88.814560,767.638184 89.872467,768.164368 90.452591,769.016052 
	C92.466545,771.972656 94.075394,775.229736 96.271347,778.033264 
	C102.509773,785.997925 108.973969,793.785400 115.326271,801.661255 
	C119.873589,807.299133 124.044495,813.285400 128.985916,818.550720 
	C137.505661,827.629089 146.411011,836.352539 155.314133,845.061768 
	C161.824234,851.430176 168.473267,857.669128 175.291916,863.704285 
	C178.645523,866.672607 182.618042,868.929749 186.136353,871.727722 
	C188.978882,873.988220 191.479874,876.673889 194.276382,878.997559 
	C198.726837,882.695618 203.122681,886.500549 207.864624,889.795349 
	C212.848206,893.258057 216.735962,898.476074 223.181274,899.699158 
	C223.800018,899.816528 224.419495,900.123718 224.951416,900.474915 
	C230.058426,903.846680 235.157745,907.230530 240.234818,910.647217 
	C242.292587,912.031982 244.220428,913.619324 246.328217,914.918518 
	C252.205338,918.541138 258.142914,922.065796 264.064301,925.616455 
	C264.883759,926.107849 265.714722,926.603699 266.594299,926.967041 
	C270.730103,928.675476 275.269379,929.753174 278.936707,932.163574 
	C283.680115,935.281250 288.650452,937.639038 293.938507,939.451660 
	C297.671173,940.731140 300.659363,943.885925 305.047577,943.671265 
	C305.723633,943.638184 306.490875,945.469482 307.284729,946.530579 
	C309.818298,947.062195 313.940643,946.716309 315.534058,948.558289 
	C317.678314,951.036987 319.682281,950.845032 322.139343,951.043091 
	C323.718536,951.170410 326.019135,951.144592 326.698181,952.105042 
	C329.490540,956.055420 333.512817,954.443909 337.051300,955.150696 
	C338.807068,955.501404 340.341583,956.959839 342.691406,958.335999 
	C346.137665,959.190186 350.655121,960.297729 355.166351,961.430115 
	C373.827484,966.114319 392.475037,970.853394 411.153809,975.466003 
	C416.660004,976.825806 422.205292,978.432068 427.815735,978.876465 
	C437.864777,979.672363 447.978210,979.638855 458.060760,980.049683 
	C459.265289,980.098816 460.496033,980.645142 461.621155,981.163879 
	C462.639618,981.633423 463.527374,982.920105 464.477631,982.925171 
	C484.301941,983.030640 504.127014,983.004761 524.071472,983.004761 
	C523.646240,982.094055 523.302124,981.356873 522.690369,980.046631 
	C538.945251,979.853149 554.673035,980.243225 570.135925,976.136780 
	C582.174133,972.939636 594.650757,971.408813 606.720642,968.311951 
	C621.570007,964.501892 636.189514,959.800049 650.934631,955.575378 
	C653.117737,954.949951 656.387878,955.646912 657.535828,954.325439 
	C661.609619,949.636169 668.907593,952.675415 672.732239,947.338867 
	C673.566101,946.175354 677.147461,946.980896 679.478577,946.878967 
	C679.362122,945.988586 679.251648,945.144165 679.218628,944.891907 
	C682.544189,941.820190 687.049927,944.594604 690.408813,940.308411 
	C692.814209,937.238831 698.418884,936.654358 702.622375,935.028870 
	C703.959534,934.511780 705.545471,934.483521 706.733093,933.762817 
	C710.221558,931.645813 713.306824,928.098389 717.024414,927.288391 
	C724.179932,925.729370 728.771057,919.968689 735.352051,917.697998 
	C737.965393,916.796326 740.397644,915.248779 742.752258,913.744751 
	C746.874329,911.111755 750.872742,908.285278 755.757385,904.974243 
	C755.734070,904.999390 756.385742,903.801025 757.385437,903.306946 
	C760.670715,901.683350 765.053833,901.161926 767.231506,898.662659 
	C771.094727,894.229187 776.546814,892.358276 780.718750,888.371155 
	C787.772217,881.630310 796.206116,876.351868 803.892090,870.247681 
	C808.067932,866.931274 811.913513,863.196716 815.877075,859.616394 
	C817.504761,858.146179 819.007263,856.536804 820.642090,855.075073 
	C826.771423,849.594604 833.294495,844.499146 838.989929,838.602478 
	C846.261780,831.073669 852.778381,822.821472 859.805115,815.047852 
	C864.695618,809.637512 870.242981,804.791199 874.847961,799.161987 
	C878.433594,794.778931 880.967346,789.544128 884.073914,784.756226 
	C885.312378,782.847473 886.826782,781.116821 888.229065,779.315552 
	C890.479126,776.425232 892.949219,773.680481 894.949585,770.627380 
	C898.214111,765.645203 900.610901,759.992249 904.390442,755.472412 
	C910.887024,747.703491 915.930481,739.201721 919.962646,730.007690 
	C920.150574,729.579224 919.972473,728.625183 920.113953,728.594055 
	C925.304993,727.452942 923.559814,721.777588 926.503662,718.578430 
	C931.032654,713.656738 932.422424,705.866821 935.225342,699.328613 
	C937.000916,695.186890 938.814392,691.054138 940.812500,687.017151 
	C942.737671,683.127380 945.388367,679.538025 946.877319,675.505493 
	C948.854431,670.150940 949.756958,664.407959 951.582581,658.987305 
	C954.695557,649.744751 958.167664,640.623169 961.512512,631.385559 
	C961.487915,631.368896 962.142334,631.813599 963.004822,632.399658 
	C963.004822,630.509094 962.781128,628.810669 963.042664,627.190613 
	C964.351746,619.080139 968.001526,611.450989 968.024963,603.069031 
	C972.866272,599.753540 970.551514,594.742188 970.983215,590.402893 
	C971.421753,585.994751 971.647522,581.565735 972.035095,577.151855 
	C972.099609,576.416931 972.505554,575.709534 972.768616,574.994812 
	C973.510132,572.980347 974.786072,571.001892 974.914856,568.950378 
	C975.484253,559.880798 975.480347,550.772339 976.154053,541.712952 
	C976.804321,532.969238 978.823608,524.269958 978.841003,515.548340 
	C978.878357,496.843842 980.187561,478.095734 977.068909,459.429504 
	C975.824585,451.981873 977.010498,444.118164 975.675964,436.698242 
	C974.160339,428.271790 976.172180,419.673676 972.337280,411.201111 
	C969.026917,403.887451 973.452026,394.647491 968.202515,386.923218 
	C966.595093,384.557953 967.606934,380.537079 966.929443,377.379456 
	C966.287476,374.387177 964.710510,371.594727 964.075928,368.601776 
	C963.275696,364.827209 963.014160,360.938385 962.655823,358.153015 
	C961.442505,357.395050 960.303650,357.092041 960.092712,356.472900 
	C959.529480,354.820160 959.558533,352.967346 959.008301,351.308167 
	C956.708740,344.374420 954.367126,337.451904 951.871216,330.586975 
	C950.420410,326.596863 947.116394,322.622223 947.368347,318.821014 
	C947.776733,312.659637 943.577576,308.776428 941.914001,303.797119 
	C938.997375,295.067474 932.412659,287.737671 930.936096,278.226929 
	C930.872742,277.818726 930.429993,277.478577 930.200684,277.085327 
	C929.128723,275.246979 928.035156,273.419708 927.025757,271.547272 
	C926.696350,270.936249 926.722900,270.126251 926.370972,269.535736 
	C925.306213,267.748901 924.086731,266.053833 923.032288,264.261383 
	C922.650208,263.611877 922.802002,262.426666 922.306030,262.100494 
	C917.944336,259.231934 917.326294,254.004440 915.370300,249.920425 
	C913.623962,246.274109 910.980164,243.364243 909.131958,239.873077 
	C906.357117,234.631683 902.278381,230.093552 898.909973,225.150162 
	C894.609314,218.838760 890.587402,212.335251 886.211487,206.078079 
	C882.894775,201.335526 879.258911,196.812057 875.678589,192.259079 
	C872.326477,187.996323 868.930908,183.763397 865.424622,179.627441 
	C862.032593,175.626266 858.490417,171.751633 854.986206,167.846527 
	C850.935181,163.332169 846.975647,158.726501 842.748535,154.382172 
	C839.013306,150.543320 834.945007,147.030121 831.061462,143.333527 
	C827.934998,140.357513 825.002991,137.161926 821.737854,134.350479 
	C816.700500,130.013046 811.350220,126.038498 806.320557,121.692619 
	C800.811218,116.932243 795.613892,111.810463 790.097839,107.058281 
	C784.819519,102.510948 778.338379,99.781204 772.796143,95.395828 
	C764.375977,88.733200 754.673706,83.694763 745.544739,77.921028 
	C743.233582,76.459320 741.147949,74.608681 738.752808,73.319191 
	C734.531982,71.046745 730.152771,69.068619 725.083374,66.604408 
z"/>
<path fill="#FAFBFB" opacity="1.000000" stroke="none" 
	d="
M725.461609,66.785843 
	C730.152771,69.068619 734.531982,71.046745 738.752808,73.319191 
	C741.147949,74.608681 743.233582,76.459320 745.544739,77.921028 
	C754.673706,83.694763 764.375977,88.733200 772.796143,95.395828 
	C778.338379,99.781204 784.819519,102.510948 790.097839,107.058281 
	C795.613892,111.810463 800.811218,116.932243 806.320557,121.692619 
	C811.350220,126.038498 816.700500,130.013046 821.737854,134.350479 
	C825.002991,137.161926 827.934998,140.357513 831.061462,143.333527 
	C834.945007,147.030121 839.013306,150.543320 842.748535,154.382172 
	C846.975647,158.726501 850.935181,163.332169 854.986206,167.846527 
	C858.490417,171.751633 862.032593,175.626266 865.424622,179.627441 
	C868.930908,183.763397 872.326477,187.996323 875.678589,192.259079 
	C879.258911,196.812057 882.894775,201.335526 886.211487,206.078079 
	C890.587402,212.335251 894.609314,218.838760 898.909973,225.150162 
	C902.278381,230.093552 906.357117,234.631683 909.131958,239.873077 
	C910.980164,243.364243 913.623962,246.274109 915.370300,249.920425 
	C917.326294,254.004440 917.944336,259.231934 922.306030,262.100494 
	C922.802002,262.426666 922.650208,263.611877 923.032288,264.261383 
	C924.086731,266.053833 925.306213,267.748901 926.370972,269.535736 
	C926.722900,270.126251 926.696350,270.936249 927.025757,271.547272 
	C928.035156,273.419708 929.128723,275.246979 930.200684,277.085327 
	C930.429993,277.478577 930.872742,277.818726 930.936096,278.226929 
	C932.412659,287.737671 938.997375,295.067474 941.914001,303.797119 
	C943.577576,308.776428 947.776733,312.659637 947.368347,318.821014 
	C947.116394,322.622223 950.420410,326.596863 951.871216,330.586975 
	C954.367126,337.451904 956.708740,344.374420 959.008301,351.308167 
	C959.558533,352.967346 959.529480,354.820160 960.092712,356.472900 
	C960.303650,357.092041 961.442505,357.395050 962.655823,358.153015 
	C963.014160,360.938385 963.275696,364.827209 964.075928,368.601776 
	C964.710510,371.594727 966.287476,374.387177 966.929443,377.379456 
	C967.606934,380.537079 966.595093,384.557953 968.202515,386.923218 
	C973.452026,394.647491 969.026917,403.887451 972.337280,411.201111 
	C976.172180,419.673676 974.160339,428.271790 975.675964,436.698242 
	C977.010498,444.118164 975.824585,451.981873 977.068909,459.429504 
	C980.187561,478.095734 978.878357,496.843842 978.841003,515.548340 
	C978.823608,524.269958 976.804321,532.969238 976.154053,541.712952 
	C975.480347,550.772339 975.484253,559.880798 974.914856,568.950378 
	C974.786072,571.001892 973.510132,572.980347 972.768616,574.994812 
	C972.505554,575.709534 972.099609,576.416931 972.035095,577.151855 
	C971.647522,581.565735 971.421753,585.994751 970.983215,590.402893 
	C970.551514,594.742188 972.866272,599.753540 968.024963,603.069031 
	C968.001526,611.450989 964.351746,619.080139 963.042664,627.190613 
	C962.781128,628.810669 963.004822,630.509094 963.004822,632.399658 
	C962.142334,631.813599 961.487915,631.368896 961.512512,631.385559 
	C958.167664,640.623169 954.695557,649.744751 951.582581,658.987305 
	C949.756958,664.407959 948.854431,670.150940 946.877319,675.505493 
	C945.388367,679.538025 942.737671,683.127380 940.812500,687.017151 
	C938.814392,691.054138 937.000916,695.186890 935.225342,699.328613 
	C932.422424,705.866821 931.032654,713.656738 926.503662,718.578430 
	C923.559814,721.777588 925.304993,727.452942 920.113953,728.594055 
	C919.972473,728.625183 920.150574,729.579224 919.962646,730.007690 
	C915.930481,739.201721 910.887024,747.703491 904.390442,755.472412 
	C900.610901,759.992249 898.214111,765.645203 894.949585,770.627380 
	C892.949219,773.680481 890.479126,776.425232 888.229065,779.315552 
	C886.826782,781.116821 885.312378,782.847473 884.073914,784.756226 
	C880.967346,789.544128 878.433594,794.778931 874.847961,799.161987 
	C870.242981,804.791199 864.695618,809.637512 859.805115,815.047852 
	C852.778381,822.821472 846.261780,831.073669 838.989929,838.602478 
	C833.294495,844.499146 826.771423,849.594604 820.642090,855.075073 
	C819.007263,856.536804 817.504761,858.146179 815.877075,859.616394 
	C811.913513,863.196716 808.067932,866.931274 803.892090,870.247681 
	C796.206116,876.351868 787.772217,881.630310 780.718750,888.371155 
	C776.546814,892.358276 771.094727,894.229187 767.231506,898.662659 
	C765.053833,901.161926 760.670715,901.683350 757.385437,903.306946 
	C756.385742,903.801025 755.734070,904.999390 755.757385,904.974243 
	C750.872742,908.285278 746.874329,911.111755 742.752258,913.744751 
	C740.397644,915.248779 737.965393,916.796326 735.352051,917.697998 
	C728.771057,919.968689 724.179932,925.729370 717.024414,927.288391 
	C713.306824,928.098389 710.221558,931.645813 706.733093,933.762817 
	C705.545471,934.483521 703.959534,934.511780 702.622375,935.028870 
	C698.418884,936.654358 692.814209,937.238831 690.408813,940.308411 
	C687.049927,944.594604 682.544189,941.820190 679.218628,944.891907 
	C679.251648,945.144165 679.362122,945.988586 679.478577,946.878967 
	C677.147461,946.980896 673.566101,946.175354 672.732239,947.338867 
	C668.907593,952.675415 661.609619,949.636169 657.535828,954.325439 
	C656.387878,955.646912 653.117737,954.949951 650.934631,955.575378 
	C636.189514,959.800049 621.570007,964.501892 606.720642,968.311951 
	C594.650757,971.408813 582.174133,972.939636 570.135925,976.136780 
	C554.673035,980.243225 538.945251,979.853149 522.690369,980.046631 
	C523.302124,981.356873 523.646240,982.094055 524.071472,983.004761 
	C504.127014,983.004761 484.301941,983.030640 464.477631,982.925171 
	C463.527374,982.920105 462.639618,981.633423 461.621155,981.163879 
	C460.496033,980.645142 459.265289,980.098816 458.060760,980.049683 
	C447.978210,979.638855 437.864777,979.672363 427.815735,978.876465 
	C422.205292,978.432068 416.660004,976.825806 411.153809,975.466003 
	C392.475037,970.853394 373.827484,966.114319 355.166351,961.430115 
	C350.655121,960.297729 346.137665,959.190186 342.691406,958.335999 
	C340.341583,956.959839 338.807068,955.501404 337.051300,955.150696 
	C333.512817,954.443909 329.490540,956.055420 326.698181,952.105042 
	C326.019135,951.144592 323.718536,951.170410 322.139343,951.043091 
	C319.682281,950.845032 317.678314,951.036987 315.534058,948.558289 
	C313.940643,946.716309 309.818298,947.062195 307.284729,946.530579 
	C306.490875,945.469482 305.723633,943.638184 305.047577,943.671265 
	C300.659363,943.885925 297.671173,940.731140 293.938507,939.451660 
	C288.650452,937.639038 283.680115,935.281250 278.936707,932.163574 
	C275.269379,929.753174 270.730103,928.675476 266.594299,926.967041 
	C265.714722,926.603699 264.883759,926.107849 264.064301,925.616455 
	C258.142914,922.065796 252.205338,918.541138 246.328217,914.918518 
	C244.220428,913.619324 242.292587,912.031982 240.234818,910.647217 
	C235.157745,907.230530 230.058426,903.846680 224.951416,900.474915 
	C224.419495,900.123718 223.800018,899.816528 223.181274,899.699158 
	C216.735962,898.476074 212.848206,893.258057 207.864624,889.795349 
	C203.122681,886.500549 198.726837,882.695618 194.276382,878.997559 
	C191.479874,876.673889 188.978882,873.988220 186.136353,871.727722 
	C182.618042,868.929749 178.645523,866.672607 175.291916,863.704285 
	C168.473267,857.669128 161.824234,851.430176 155.314133,845.061768 
	C146.411011,836.352539 137.505661,827.629089 128.985916,818.550720 
	C124.044495,813.285400 119.873589,807.299133 115.326271,801.661255 
	C108.973969,793.785400 102.509773,785.997925 96.271347,778.033264 
	C94.075394,775.229736 92.466545,771.972656 90.452591,769.016052 
	C89.872467,768.164368 88.814560,767.638184 87.690315,767.293701 
	C86.049133,764.814270 87.763924,761.178040 83.305794,758.879517 
	C80.764275,757.569214 80.719421,751.981506 78.803047,748.765137 
	C75.701401,743.559448 71.831581,738.817322 68.581604,733.692078 
	C66.444427,730.321716 64.808746,726.631226 62.980034,723.067871 
	C59.639851,716.559448 56.238136,710.080566 53.026138,703.509094 
	C50.863163,699.083862 49.482185,694.196777 46.834820,690.110107 
	C44.160847,685.982239 42.726345,681.690613 41.863491,677.000366 
	C41.778412,676.537903 40.207970,676.348694 39.060894,675.937195 
	C38.435966,672.405701 40.595924,667.574707 35.334969,664.775940 
	C34.356781,664.255554 35.113644,660.958435 34.540504,659.106628 
	C32.265091,651.754761 29.467695,644.552673 27.451393,637.135376 
	C24.934200,627.875427 23.110624,618.429321 20.775530,609.116760 
	C18.475357,599.943481 15.506497,590.920715 13.581429,581.675659 
	C11.855386,573.386414 11.105684,564.890442 10.005584,556.475159 
	C8.636175,545.999695 7.328601,535.516052 6.050087,525.029114 
	C5.869763,523.550049 5.995902,522.032532 5.995697,520.532776 
	C5.993415,503.867035 5.889771,487.200317 6.039719,470.535919 
	C6.110994,462.614746 5.284824,454.327301 7.288227,446.855438 
	C11.611771,430.730408 9.943087,413.636261 16.363405,397.853027 
	C19.027136,391.304688 19.061176,383.734009 20.873135,376.779907 
	C23.170372,367.963348 27.463663,359.630798 27.032526,350.182251 
	C32.512455,345.970490 28.794516,338.028809 33.749832,333.599396 
	C33.862572,333.498627 33.907211,333.305298 33.951015,333.146179 
	C35.638329,327.017548 37.279419,320.875488 39.062508,314.774902 
	C39.272175,314.057587 40.289642,313.595490 40.878578,312.964630 
	C41.490356,312.309296 42.463760,311.639893 42.545898,310.895721 
	C43.465546,302.564240 48.393208,295.768188 51.811935,288.550598 
	C53.617615,284.738434 55.505219,280.455231 57.436008,276.681030 
	C60.581131,270.533081 64.094208,264.469482 67.190788,258.252838 
	C69.936081,252.741470 73.768013,247.780411 76.950600,242.474670 
	C79.118767,238.860107 80.306137,234.386841 83.157608,231.513947 
	C87.793663,226.843109 88.185127,219.827805 93.637550,215.505524 
	C97.359428,212.555130 99.219269,207.349014 102.274834,203.434967 
	C104.662231,200.376816 107.692856,197.829529 110.272865,194.909622 
	C111.745888,193.242538 112.905861,191.295593 114.177155,189.454178 
	C117.322395,184.898438 120.135849,180.067825 123.670792,175.839355 
	C127.499260,171.259766 132.084549,167.321747 136.170609,162.945953 
	C139.637802,159.232895 142.649261,155.077713 146.252945,151.513016 
	C150.473251,147.338409 155.142105,143.619949 159.569275,139.651077 
	C164.505081,135.226227 169.385330,130.739456 174.294617,126.284988 
	C178.434021,122.529091 182.459564,118.635422 186.755173,115.067169 
	C191.783966,110.889847 196.919479,106.813965 202.249786,103.034035 
	C207.962250,98.983101 214.027191,95.432594 219.804932,91.469292 
	C225.295502,87.702972 230.511658,83.532387 236.048279,79.839096 
	C239.088409,77.811127 242.683517,76.623466 245.764297,74.645576 
	C248.421677,72.939514 250.569962,70.481010 253.932266,69.890152 
	C254.397095,69.808464 254.612045,68.304871 255.148346,66.933723 
	C257.139191,66.076637 261.861481,68.823227 263.054474,62.993599 
	C266.055664,62.784760 269.201874,62.712460 272.727020,59.761425 
	C277.247375,55.977249 284.003326,54.911205 289.722992,52.500660 
	C297.863770,49.069752 306.139221,45.871571 313.976288,41.834595 
	C320.081482,38.689735 326.425934,36.693707 332.963928,34.898926 
	C337.173615,33.743301 341.132446,31.702604 345.301575,30.363186 
	C350.362244,28.737339 355.547638,27.501642 360.622559,25.916290 
	C361.417542,25.667944 361.913177,24.461395 362.911804,23.258886 
	C367.184753,22.927330 372.536041,22.512100 378.024139,22.086256 
	C377.777069,20.733200 377.633453,19.946650 377.548004,19.478546 
	C382.406738,18.992174 387.783966,19.637306 392.073608,17.775969 
	C400.768890,14.002951 410.399811,16.585070 418.561401,13.627003 
	C433.527008,8.202909 449.117310,13.892540 463.917267,9.172718 
	C467.397308,8.062901 471.531189,9.001192 475.364258,9.000761 
	C490.196777,8.999093 505.035156,8.739612 519.860046,9.075504 
	C533.044739,9.374235 546.546448,8.769736 559.290283,11.474919 
	C570.321350,13.816540 581.188599,14.528832 592.183167,15.134392 
	C592.717590,16.049574 593.103638,17.187031 593.881104,17.894239 
	C594.524719,18.479662 595.611572,18.734699 596.533936,18.831043 
	C602.179321,19.420731 607.876709,18.359449 613.341248,21.763222 
	C616.240723,23.569271 620.646912,22.956505 624.437744,23.443966 
	C624.350830,23.913870 624.215881,24.642986 624.024170,25.679434 
	C626.333923,25.906155 628.693359,25.712023 630.743164,26.417542 
	C637.301697,28.674856 643.686707,31.437527 650.250854,33.676514 
	C656.132629,35.682747 662.257629,36.990551 668.099121,39.095646 
	C673.345581,40.986332 678.333008,43.587261 683.470886,45.790585 
	C687.698303,47.603531 692.076965,49.090679 696.206604,51.096886 
	C699.947205,52.914093 703.356445,55.408112 707.077087,57.273937 
	C709.300720,58.389038 711.842468,58.869785 713.982361,60.353317 
	C715.787598,61.234539 717.640503,62.031445 719.385254,63.019424 
	C721.335815,64.124023 723.188232,65.401932 725.461609,66.785843 
M164.795029,648.596741 
	C163.144623,644.614319 161.596420,640.585693 159.823929,636.658386 
	C155.153625,626.310242 151.172684,616.218567 159.723328,605.571411 
	C162.141754,602.560059 163.511154,597.953674 163.656906,594.015686 
	C164.041748,583.616760 159.236725,574.519531 151.968048,567.932129 
	C142.643127,559.481262 129.865021,557.541321 119.217178,563.103455 
	C109.145454,568.364624 100.168396,576.584167 100.773727,590.965332 
	C101.212418,601.387573 103.097725,609.879028 111.753273,616.637390 
	C116.037872,619.982910 119.761269,624.753601 122.171555,629.650696 
	C127.732521,640.949402 131.818802,652.977966 137.449982,664.237000 
	C145.835754,681.003540 153.038788,698.422974 164.391586,713.631165 
	C173.805511,726.242126 181.431976,740.419495 192.072998,751.830078 
	C209.780930,770.818665 226.917770,790.453308 248.063690,806.179749 
	C259.746002,814.868164 270.828033,824.385559 283.250061,832.095398 
	C291.964355,837.503967 300.455963,843.356567 309.536072,848.068481 
	C320.424347,853.718750 331.868622,858.289551 343.007568,863.466736 
	C361.607208,872.111450 381.065125,878.386414 400.931824,883.070801 
	C416.539886,886.751099 432.458557,889.398804 448.378723,891.390076 
	C464.165558,893.364685 480.152130,895.175171 496.005737,894.849609 
	C520.191162,894.353027 544.434875,892.985535 568.313538,888.370300 
	C577.409180,886.612244 586.610474,885.245544 595.560669,882.919739 
	C620.693054,876.388916 645.109802,867.893372 668.514587,856.429504 
	C691.550842,845.146179 713.869019,832.770630 734.073608,816.893066 
	C746.342651,807.251587 758.797852,797.753662 770.248840,787.192932 
	C779.965271,778.231689 788.407898,767.881165 797.332275,758.070862 
	C817.906250,735.454102 835.523621,710.770752 849.206787,683.367676 
	C857.892517,665.972595 867.246033,648.888672 872.752625,630.064270 
	C877.453857,613.993103 883.292297,598.215820 887.234070,581.970398 
	C893.002991,558.194519 894.994690,533.831116 895.771362,509.384216 
	C896.534241,485.374023 894.253357,461.547333 891.697021,437.733551 
	C890.845825,429.804626 886.149719,429.156677 879.393494,430.555542 
	C874.581970,431.551758 869.868225,433.082062 865.028381,433.862457 
	C859.918762,434.686401 857.637390,437.252289 858.387878,442.352325 
	C859.383606,449.119232 858.739563,449.916077 851.865417,449.927399 
	C822.532349,449.975708 793.199219,449.976135 763.866211,450.030731 
	C752.886353,450.051178 752.857971,450.096741 752.848877,439.102631 
	C752.831238,417.769501 752.871277,396.436371 752.836853,375.103302 
	C752.827637,369.391296 751.890381,368.748688 746.372986,369.396698 
	C742.914673,369.802856 739.408020,369.947784 735.922791,369.951599 
	C699.256409,369.991547 662.589722,369.900391 625.923950,370.052307 
	C619.087646,370.080627 612.364502,370.820099 610.278259,362.006317 
	C610.209045,361.714233 609.862061,361.494659 609.668152,361.224365 
	C605.420288,355.304626 601.069153,349.454956 596.971741,343.432739 
	C594.626892,339.986389 594.130493,336.387634 597.513916,333.043793 
	C614.459595,316.296204 631.229492,299.366730 648.389587,282.842194 
	C653.933228,277.503906 657.384155,272.278595 657.228394,263.990479 
	C656.686890,235.166794 656.942932,206.328018 656.909668,177.494995 
	C656.901367,170.305893 657.660461,169.766220 664.768616,171.894318 
	C665.858704,172.220673 666.925537,172.716095 667.908569,173.294113 
	C675.904236,177.995514 684.097534,182.404694 691.807312,187.538605 
	C704.207886,195.796127 716.340454,204.461945 728.465149,213.124680 
	C732.238220,215.820450 735.775696,218.899307 739.150818,222.088684 
	C748.812622,231.218933 758.876038,240.007721 767.766724,249.847702 
	C777.291016,260.389160 785.782227,271.880066 794.486084,283.140747 
	C799.453552,289.567383 804.565613,296.014160 808.516846,303.065826 
	C815.675781,315.842224 821.992004,329.089813 828.706238,342.116882 
	C832.401123,349.285736 834.437134,356.319977 833.454468,364.910889 
	C831.278564,383.932983 841.649475,397.746246 858.463928,400.542542 
	C881.474304,404.369263 900.166077,385.200806 895.160767,362.909729 
	C892.565369,351.350922 880.425659,339.822632 868.322937,338.107452 
	C863.449097,337.416718 860.545837,335.459473 858.851685,330.798248 
	C857.209229,326.279541 854.783569,322.049103 852.765320,317.662811 
	C844.797424,300.345978 833.255798,285.224579 823.309692,269.115601 
	C809.704163,247.079514 790.418823,230.008041 774.259766,210.235718 
	C771.194214,206.484711 766.326843,204.252991 762.503357,201.065323 
	C753.327698,193.415634 744.720581,185.003510 735.072083,178.021011 
	C721.375061,168.108582 707.427368,158.348953 692.701477,150.105591 
	C677.652222,141.681244 661.758789,134.626938 645.814331,127.982323 
	C632.368286,122.378899 618.413574,117.924377 604.504578,113.528931 
	C595.176453,110.581085 585.628601,108.112823 576.009949,106.354988 
	C564.100647,104.178528 552.043579,102.709709 540.000183,101.395073 
	C527.449524,100.025085 514.855286,98.614792 502.251373,98.267448 
	C478.595337,97.615517 455.192017,100.718681 431.960175,104.899597 
	C418.604462,107.303154 405.364685,110.344765 392.052032,112.995201 
	C368.662415,117.651917 347.331055,127.925400 325.862183,137.642410 
	C314.845673,142.628586 304.479248,149.081192 293.937286,155.078979 
	C275.402527,165.624283 257.639954,177.478302 241.979355,191.893509 
	C221.921448,210.356308 202.339676,229.249069 185.177811,250.746078 
	C169.512894,270.368011 156.187607,291.309448 144.372360,313.182373 
	C136.355820,328.022949 130.137421,343.954010 124.354324,359.848328 
	C118.589447,375.692566 113.587486,391.912720 109.681190,408.308807 
	C105.264923,426.845337 101.512955,445.635468 101.825134,464.905731 
	C101.838394,465.724030 101.521255,466.542145 101.456108,467.368073 
	C100.684967,477.145813 99.388145,486.921997 99.333900,496.704742 
	C99.283379,505.815613 100.604042,514.930847 101.231834,524.050293 
	C101.480911,527.668457 103.417763,528.572449 106.629753,527.878052 
	C112.787384,526.546692 118.902611,524.918152 125.122177,524.001465 
	C132.052490,522.979919 132.189316,523.261658 131.939835,516.313660 
	C130.861679,486.286163 132.609711,456.526642 138.898682,427.033569 
	C144.036026,402.941284 150.056564,379.164673 160.027374,356.572968 
	C160.785141,354.856049 163.699142,353.048859 165.619339,353.039581 
	C210.784576,352.821381 255.951080,352.882050 301.116974,352.757019 
	C304.909698,352.746521 306.708374,354.029114 306.693481,357.785065 
	C306.621582,375.921356 306.646759,394.059021 306.389771,412.192719 
	C306.339417,415.745483 307.829437,416.504425 310.814636,416.479034 
	C328.803040,416.325989 346.792328,416.260315 364.780334,416.071991 
	C368.865295,416.029205 370.254181,417.811401 370.266235,421.833008 
	C370.314667,437.986969 370.986633,454.146729 370.702179,470.291565 
	C370.481384,482.823395 371.066681,481.897064 359.677795,481.176910 
	C358.515656,481.103455 357.345123,481.161407 356.178467,481.161926 
	C331.208710,481.173187 306.238983,481.193268 281.269226,481.191071 
	C274.465118,481.190460 274.189728,481.417450 274.191040,488.176788 
	C274.197357,521.176514 274.268066,554.176453 274.113922,587.175415 
	C274.101898,589.748413 273.243103,592.986389 271.559296,594.755676 
	C266.756042,599.802795 261.411896,604.353577 256.122314,608.916199 
	C238.006683,624.542175 219.841751,640.111084 201.656799,655.656433 
	C194.260422,661.979126 186.764404,668.185303 178.246140,675.341431 
	C173.435104,665.841614 169.251663,657.580994 164.795029,648.596741 
z"/>
<path fill="#65C2E2" opacity="1.000000" stroke="none" 
	d="
M164.931610,648.958618 
	C169.251663,657.580994 173.435104,665.841614 178.246140,675.341431 
	C186.764404,668.185303 194.260422,661.979126 201.656799,655.656433 
	C219.841751,640.111084 238.006683,624.542175 256.122314,608.916199 
	C261.411896,604.353577 266.756042,599.802795 271.559296,594.755676 
	C273.243103,592.986389 274.101898,589.748413 274.113922,587.175415 
	C274.268066,554.176453 274.197357,521.176514 274.191040,488.176788 
	C274.189728,481.417450 274.465118,481.190460 281.269226,481.191071 
	C306.238983,481.193268 331.208710,481.173187 356.178467,481.161926 
	C357.345123,481.161407 358.515656,481.103455 359.677795,481.176910 
	C371.066681,481.897064 370.481384,482.823395 370.702179,470.291565 
	C370.986633,454.146729 370.314667,437.986969 370.266235,421.833008 
	C370.254181,417.811401 368.865295,416.029205 364.780334,416.071991 
	C346.792328,416.260315 328.803040,416.325989 310.814636,416.479034 
	C307.829437,416.504425 306.339417,415.745483 306.389771,412.192719 
	C306.646759,394.059021 306.621582,375.921356 306.693481,357.785065 
	C306.708374,354.029114 304.909698,352.746521 301.116974,352.757019 
	C255.951080,352.882050 210.784576,352.821381 165.619339,353.039581 
	C163.699142,353.048859 160.785141,354.856049 160.027374,356.572968 
	C150.056564,379.164673 144.036026,402.941284 138.898682,427.033569 
	C132.609711,456.526642 130.861679,486.286163 131.939835,516.313660 
	C132.189316,523.261658 132.052490,522.979919 125.122177,524.001465 
	C118.902611,524.918152 112.787384,526.546692 106.629753,527.878052 
	C103.417763,528.572449 101.480911,527.668457 101.231834,524.050293 
	C100.604042,514.930847 99.283379,505.815613 99.333900,496.704742 
	C99.388145,486.921997 100.684967,477.145813 101.456108,467.368073 
	C101.521255,466.542145 101.838394,465.724030 101.825134,464.905731 
	C101.512955,445.635468 105.264923,426.845337 109.681190,408.308807 
	C113.587486,391.912720 118.589447,375.692566 124.354324,359.848328 
	C130.137421,343.954010 136.355820,328.022949 144.372360,313.182373 
	C156.187607,291.309448 169.512894,270.368011 185.177811,250.746078 
	C202.339676,229.249069 221.921448,210.356308 241.979355,191.893509 
	C257.639954,177.478302 275.402527,165.624283 293.937286,155.078979 
	C304.479248,149.081192 314.845673,142.628586 325.862183,137.642410 
	C347.331055,127.925400 368.662415,117.651917 392.052032,112.995201 
	C405.364685,110.344765 418.604462,107.303154 431.960175,104.899597 
	C455.192017,100.718681 478.595337,97.615517 502.251373,98.267448 
	C514.855286,98.614792 527.449524,100.025085 540.000183,101.395073 
	C552.043579,102.709709 564.100647,104.178528 576.009949,106.354988 
	C585.628601,108.112823 595.176453,110.581085 604.504578,113.528931 
	C618.413574,117.924377 632.368286,122.378899 645.814331,127.982323 
	C661.758789,134.626938 677.652222,141.681244 692.701477,150.105591 
	C707.427368,158.348953 721.375061,168.108582 735.072083,178.021011 
	C744.720581,185.003510 753.327698,193.415634 762.503357,201.065323 
	C766.326843,204.252991 771.194214,206.484711 774.259766,210.235718 
	C790.418823,230.008041 809.704163,247.079514 823.309692,269.115601 
	C833.255798,285.224579 844.797424,300.345978 852.765320,317.662811 
	C854.783569,322.049103 857.209229,326.279541 858.851685,330.798248 
	C860.545837,335.459473 863.449097,337.416718 868.322937,338.107452 
	C880.425659,339.822632 892.565369,351.350922 895.160767,362.909729 
	C900.166077,385.200806 881.474304,404.369263 858.463928,400.542542 
	C841.649475,397.746246 831.278564,383.932983 833.454468,364.910889 
	C834.437134,356.319977 832.401123,349.285736 828.706238,342.116882 
	C821.992004,329.089813 815.675781,315.842224 808.516846,303.065826 
	C804.565613,296.014160 799.453552,289.567383 794.486084,283.140747 
	C785.782227,271.880066 777.291016,260.389160 767.766724,249.847702 
	C758.876038,240.007721 748.812622,231.218933 739.150818,222.088684 
	C735.775696,218.899307 732.238220,215.820450 728.465149,213.124680 
	C716.340454,204.461945 704.207886,195.796127 691.807312,187.538605 
	C684.097534,182.404694 675.904236,177.995514 667.908569,173.294113 
	C666.925537,172.716095 665.858704,172.220673 664.768616,171.894318 
	C657.660461,169.766220 656.901367,170.305893 656.909668,177.494995 
	C656.942932,206.328018 656.686890,235.166794 657.228394,263.990479 
	C657.384155,272.278595 653.933228,277.503906 648.389587,282.842194 
	C631.229492,299.366730 614.459595,316.296204 597.513916,333.043793 
	C594.130493,336.387634 594.626892,339.986389 596.971741,343.432739 
	C601.069153,349.454956 605.420288,355.304626 609.668152,361.224365 
	C609.862061,361.494659 610.209045,361.714233 610.278259,362.006317 
	C612.364502,370.820099 619.087646,370.080627 625.923950,370.052307 
	C662.589722,369.900391 699.256409,369.991547 735.922791,369.951599 
	C739.408020,369.947784 742.914673,369.802856 746.372986,369.396698 
	C751.890381,368.748688 752.827637,369.391296 752.836853,375.103302 
	C752.871277,396.436371 752.831238,417.769501 752.848877,439.102631 
	C752.857971,450.096741 752.886353,450.051178 763.866211,450.030731 
	C793.199219,449.976135 822.532349,449.975708 851.865417,449.927399 
	C858.739563,449.916077 859.383606,449.119232 858.387878,442.352325 
	C857.637390,437.252289 859.918762,434.686401 865.028381,433.862457 
	C869.868225,433.082062 874.581970,431.551758 879.393494,430.555542 
	C886.149719,429.156677 890.845825,429.804626 891.697021,437.733551 
	C894.253357,461.547333 896.534241,485.374023 895.771362,509.384216 
	C894.994690,533.831116 893.002991,558.194519 887.234070,581.970398 
	C883.292297,598.215820 877.453857,613.993103 872.752625,630.064270 
	C867.246033,648.888672 857.892517,665.972595 849.206787,683.367676 
	C835.523621,710.770752 817.906250,735.454102 797.332275,758.070862 
	C788.407898,767.881165 779.965271,778.231689 770.248840,787.192932 
	C758.797852,797.753662 746.342651,807.251587 734.073608,816.893066 
	C713.869019,832.770630 691.550842,845.146179 668.514587,856.429504 
	C645.109802,867.893372 620.693054,876.388916 595.560669,882.919739 
	C586.610474,885.245544 577.409180,886.612244 568.313538,888.370300 
	C544.434875,892.985535 520.191162,894.353027 496.005737,894.849609 
	C480.152130,895.175171 464.165558,893.364685 448.378723,891.390076 
	C432.458557,889.398804 416.539886,886.751099 400.931824,883.070801 
	C381.065125,878.386414 361.607208,872.111450 343.007568,863.466736 
	C331.868622,858.289551 320.424347,853.718750 309.536072,848.068481 
	C300.455963,843.356567 291.964355,837.503967 283.250061,832.095398 
	C270.828033,824.385559 259.746002,814.868164 248.063690,806.179749 
	C226.917770,790.453308 209.780930,770.818665 192.072998,751.830078 
	C181.431976,740.419495 173.805511,726.242126 164.391586,713.631165 
	C153.038788,698.422974 145.835754,681.003540 137.449982,664.237000 
	C131.818802,652.977966 127.732521,640.949402 122.171555,629.650696 
	C119.761269,624.753601 116.037872,619.982910 111.753273,616.637390 
	C103.097725,609.879028 101.212418,601.387573 100.773727,590.965332 
	C100.168396,576.584167 109.145454,568.364624 119.217178,563.103455 
	C129.865021,557.541321 142.643127,559.481262 151.968048,567.932129 
	C159.236725,574.519531 164.041748,583.616760 163.656906,594.015686 
	C163.511154,597.953674 162.141754,602.560059 159.723328,605.571411 
	C151.172684,616.218567 155.153625,626.310242 159.823929,636.658386 
	C161.596420,640.585693 163.144623,644.614319 164.931610,648.958618 
M308.948822,576.756226 
	C309.296814,577.168274 309.644806,577.580383 310.563416,578.331604 
	C329.957489,597.613098 349.351562,616.894592 368.745636,636.176025 
	C369.224915,635.987244 369.704193,635.798401 370.183502,635.609619 
	C370.411407,633.234680 370.856903,630.857483 370.831940,628.485168 
	C370.670990,613.170410 370.514130,597.853882 370.105743,582.544617 
	C369.996948,578.466064 371.190399,577.023865 375.430237,577.030457 
	C424.249176,577.106262 473.068390,577.008484 521.887512,576.977478 
	C529.425903,576.972717 531.017578,578.560425 531.015747,585.994934 
	C531.009949,610.321228 530.988281,634.647583 530.935791,658.973816 
	C530.931519,660.958801 530.931396,663.017700 530.434143,664.912292 
	C529.371765,668.960205 530.578918,670.976135 534.894897,671.053467 
	C551.361023,671.348450 567.833801,672.097717 584.286804,671.779724 
	C589.070984,671.687256 595.005615,669.869202 598.349854,666.679321 
	C616.911438,648.974365 634.899902,630.664490 652.900208,612.380249 
	C655.116821,610.128662 657.597168,606.819580 657.647095,603.960205 
	C658.057068,580.474365 657.927917,556.979126 657.940247,533.486694 
	C657.941772,530.540710 656.675476,528.853027 653.434204,528.822632 
	C635.786316,528.657104 618.139160,528.263184 600.491882,528.271362 
	C594.104004,528.274292 593.923767,528.471863 593.926392,522.373230 
	C593.942322,485.050964 593.964905,447.728577 593.862366,410.406586 
	C593.853882,407.314087 593.774902,403.723114 592.285339,401.224030 
	C587.218262,392.722595 581.448120,384.643127 576.056824,376.330963 
	C572.555603,370.932770 569.067932,365.510712 565.907959,359.911011 
	C563.426514,355.513763 560.493896,352.796082 554.967712,352.827728 
	C527.476868,352.985138 499.984436,352.853821 472.492676,352.898529 
	C470.912109,352.901123 469.332581,353.560120 467.022278,354.187073 
	C466.682129,355.903778 466.056976,357.618805 466.046814,359.337463 
	C465.963043,373.489777 466.030029,387.642975 465.956390,401.795410 
	C465.942688,404.425446 465.309021,407.052460 465.298737,409.682190 
	C465.276978,415.244568 461.803253,416.035278 457.322540,416.066040 
	C452.560120,416.098694 447.800232,416.501434 442.161560,416.848419 
	C437.153595,416.746979 432.145599,416.645569 426.916473,416.006500 
	C425.898926,416.190643 424.881378,416.374817 422.992035,416.714996 
	C420.035553,416.664886 417.079071,416.614746 413.799316,415.913544 
	C405.432007,413.320435 402.020355,415.599335 402.011902,423.895599 
	C401.986908,448.490417 402.060394,473.085541 401.943726,497.679840 
	C401.921875,502.285309 401.198395,506.887451 400.111389,511.693481 
	C399.400269,511.769348 398.689148,511.845215 397.366791,511.372040 
	C391.923004,511.540436 386.479218,511.708801 380.096710,511.954926 
	C360.719238,511.930023 341.341797,511.905121 321.351410,511.345428 
	C318.201294,511.235931 315.038971,510.923889 311.906769,511.112183 
	C310.571930,511.192413 309.299988,512.318298 307.900146,513.701477 
	C307.748657,514.423584 307.597198,515.145691 306.809998,516.251465 
	C306.569824,516.673645 306.120789,517.095215 306.119507,517.518066 
	C306.064209,535.880127 305.997864,554.242737 306.147003,572.603455 
	C306.156555,573.776978 307.872955,574.936584 308.862061,576.125732 
	C308.862061,576.125732 308.880310,576.193970 308.948822,576.756226 
M435.837616,382.000000 
	C437.077576,382.158081 438.317566,382.316162 439.585815,382.477814 
	C439.764496,381.686737 439.966309,381.209625 439.966675,380.732361 
	C439.988159,352.205536 439.990967,323.678711 440.001709,295.151886 
	C440.003235,291.096100 438.080261,288.969696 433.024445,288.995941 
	C429.703125,289.065186 426.380615,289.098785 423.060699,289.209808 
	C407.628479,289.725739 392.198212,290.614380 376.764771,290.669342 
	C366.491425,290.705963 356.218933,289.448578 345.936157,288.995422 
	C340.360504,288.749695 339.160339,290.010223 339.146637,295.625275 
	C339.078827,323.423126 339.059296,351.221161 339.074341,379.019135 
	C339.077606,385.079895 340.065125,386.007568 345.985168,386.008057 
	C373.616577,386.010345 401.248322,385.932678 428.879028,386.068634 
	C432.206177,386.084991 434.282532,385.293427 435.837616,382.000000 
M566.500000,703.901672 
	C556.835571,703.909180 547.171204,703.905640 537.506775,703.928528 
	C532.048950,703.941528 529.432495,706.979492 529.986633,712.277100 
	C530.469238,716.891174 530.891479,721.528625 530.984314,726.162842 
	C531.155273,734.691833 529.778625,735.984497 521.227905,735.977844 
	C472.569733,735.940308 423.911530,735.848999 375.253540,735.928711 
	C371.307983,735.935181 370.071442,734.845886 370.130249,730.852661 
	C370.319214,718.025574 370.347260,705.185242 369.910919,692.367981 
	C369.809021,689.375366 368.315033,685.818787 366.278534,683.614746 
	C359.413025,676.184509 351.992065,669.269165 344.825226,662.115173 
	C331.390625,648.704590 318.002319,635.247681 304.556213,621.848633 
	C300.978546,618.283508 297.161621,617.877258 293.995789,620.636902 
	C284.982178,628.494202 275.973053,636.357178 267.025055,644.288818 
	C261.546356,649.145142 256.304047,654.272888 250.745575,659.033569 
	C234.712631,672.765259 218.501221,686.289246 202.519974,700.080322 
	C197.816055,704.139526 197.771652,707.106567 201.593857,712.104431 
	C206.431030,718.429321 211.219147,724.812866 216.409592,730.843079 
	C245.737198,764.915161 279.372986,793.911377 318.526001,816.200684 
	C339.241730,827.993896 361.221222,837.157104 383.804657,844.619751 
	C403.175934,851.020874 422.996094,855.609802 443.291901,858.739075 
	C459.696838,861.268372 476.004150,861.812195 492.455994,862.310974 
	C522.327820,863.216614 551.784058,860.395447 580.721313,853.014893 
	C592.928650,849.901306 605.079834,846.327759 616.897339,841.985901 
	C631.520691,836.613098 646.017944,830.749023 660.104980,824.110962 
	C671.641663,818.674683 682.769592,812.226501 693.579285,805.432312 
	C704.521240,798.554871 714.957581,790.849243 725.406982,783.220825 
	C731.798645,778.554688 737.790894,773.342102 743.976135,768.391968 
	C746.752502,766.169983 747.094421,763.657104 744.535645,761.182739 
	C738.435425,755.283569 732.372192,749.329956 726.007263,743.723877 
	C708.563232,728.359680 690.850281,713.299377 673.489868,697.842285 
	C664.928345,690.219482 656.938232,681.956787 648.634216,674.041809 
	C644.759827,670.348999 640.371765,669.695740 637.665039,672.676514 
	C629.848633,681.284485 622.142639,689.996643 614.567627,698.817627 
	C611.829346,702.006409 609.085999,704.164062 604.491394,704.057007 
	C592.166443,703.769653 579.831177,703.921753 566.500000,703.901672 
M438.500000,258.059540 
	C444.496613,258.039856 450.493256,258.030121 456.489807,257.998230 
	C466.387695,257.945557 467.181519,258.777496 467.144531,268.916809 
	C467.087372,284.574982 467.097046,300.233459 467.007843,315.891418 
	C466.986389,319.661041 467.539764,322.209198 472.407166,322.165894 
	C498.558197,321.933319 524.711487,321.955719 550.864014,321.895020 
	C556.530945,321.881866 561.831482,320.623993 566.008484,316.592377 
	C582.397705,300.773529 598.756348,284.922150 615.021851,268.976227 
	C621.189819,262.929382 626.035950,256.258057 625.977661,246.867065 
	C625.795837,217.550522 625.855957,188.232010 625.956360,158.914734 
	C625.969421,155.104248 624.491394,152.987152 620.921875,152.026199 
	C602.205017,146.987396 583.547424,141.715469 564.753479,136.984116 
	C559.014648,135.539383 552.906067,135.575165 546.971313,134.893707 
	C536.118896,133.647598 525.292786,131.591904 514.414551,131.272064 
	C491.994751,130.612930 469.544006,130.214645 447.335907,134.881531 
	C435.496979,137.369370 423.413574,138.681412 411.545471,141.050018 
	C407.834717,141.790604 403.051147,142.517319 403.053619,148.339951 
	C403.068390,183.321304 403.059906,218.302795 402.962402,253.283951 
	C402.952087,256.988342 404.375244,258.220459 408.016846,258.150940 
	C417.841553,257.963348 427.671906,258.070312 438.500000,258.059540 
M862.856201,505.483704 
	C862.854431,499.154205 862.817139,492.824432 862.862488,486.495270 
	C862.896240,481.787415 861.041626,479.876312 855.951599,479.911255 
	C823.640503,480.133179 791.327271,480.035522 759.014709,480.047516 
	C753.099426,480.049713 752.086243,480.926331 752.043030,487.019440 
	C751.961609,498.511169 752.032593,510.004272 752.093811,521.496521 
	C752.132812,528.810974 752.176086,528.815979 744.619812,528.821289 
	C728.324463,528.832764 712.029114,528.818542 695.733826,528.855103 
	C688.208557,528.872009 688.097778,528.947632 688.086853,536.321838 
	C688.050598,560.805969 688.210205,585.291870 687.906494,609.772278 
	C687.868042,612.872437 686.187622,616.516785 684.119019,618.920288 
	C678.158020,625.846497 671.388916,632.074219 665.371155,638.955688 
	C661.596252,643.272522 662.183838,645.888855 666.383057,649.578247 
	C669.008850,651.885132 671.587402,654.248169 674.263977,656.494446 
	C687.736755,667.801147 701.486389,678.793152 714.661438,690.435730 
	C731.847656,705.622864 748.585571,721.317322 765.516541,736.793335 
	C765.762329,737.018005 766.001282,737.251343 766.258240,737.462646 
	C768.769531,739.528015 771.239929,739.270264 773.343262,736.982056 
	C776.716309,733.312744 780.190979,729.689819 783.156250,725.700562 
	C798.242065,705.405029 813.243469,685.033264 823.679504,661.791016 
	C830.066895,647.565735 836.731812,633.444763 842.501831,618.969910 
	C846.107422,609.924927 848.702820,600.411011 850.998230,590.925171 
	C854.657104,575.804932 858.501831,560.650940 860.732605,545.288208 
	C862.586975,532.517212 862.231689,519.425293 862.856201,505.483704 
M208.396072,272.880615 
	C199.453812,286.267395 190.445267,299.610809 181.632645,313.082397 
	C180.110703,315.408936 179.419998,318.279236 177.901749,321.979523 
	C181.007889,321.979523 182.624832,321.979431 184.241760,321.979553 
	C223.054565,321.982513 261.867828,321.898285 300.679626,322.095947 
	C305.669281,322.121338 307.021149,320.369049 306.967194,315.732147 
	C306.777252,299.409393 306.862823,283.083435 306.842407,266.758698 
	C306.832947,259.200073 308.046936,258.000092 315.453949,258.022278 
	C332.111603,258.072174 348.769897,258.025757 365.426636,258.167816 
	C368.705139,258.195740 370.275208,257.410431 370.264709,253.754181 
	C370.174866,222.437637 370.241089,191.120682 370.202332,159.803925 
	C370.197083,155.577026 367.928040,154.216858 363.996460,156.000259 
	C361.440704,157.159592 359.073792,158.735641 356.516724,159.891418 
	C348.216736,163.642868 339.564453,166.734116 331.611389,171.105042 
	C320.450714,177.238739 309.613831,184.016602 298.973328,191.027176 
	C287.084930,198.859970 274.772705,206.343384 264.087646,215.637497 
	C249.316620,228.485641 235.775513,242.766373 221.958939,256.683044 
	C217.180466,261.496155 213.152466,267.054321 208.396072,272.880615 
M699.499390,497.156525 
	C703.496155,497.163757 707.493103,497.154907 711.489746,497.181488 
	C720.375977,497.240631 721.893799,495.848206 721.827454,486.857208 
	C721.751587,476.574768 721.332581,466.294708 721.270935,456.012360 
	C721.173157,439.693512 721.224426,423.373627 721.269165,407.054321 
	C721.278687,403.590576 721.019043,400.790894 716.359436,400.811371 
	C687.883850,400.936432 659.407654,400.934235 630.931702,400.975372 
	C627.019653,400.981018 625.119019,402.987976 625.119324,406.855347 
	C625.121460,434.332458 625.058777,461.809845 625.185974,489.286407 
	C625.213318,495.193817 627.641418,497.187103 633.553650,497.186005 
	C655.202332,497.182007 676.851074,497.167328 699.499390,497.156525 
M498.113586,634.500000 
	C498.104218,627.501282 497.934235,620.497620 498.148621,613.505798 
	C498.268280,609.602661 496.678070,608.037781 492.923218,608.040283 
	C464.428894,608.058899 435.934540,608.062317 407.440369,607.993103 
	C404.440674,607.985840 403.134094,609.317688 403.087311,612.131104 
	C403.037476,615.129639 403.069855,618.129517 403.067505,621.128845 
	C403.047302,646.957031 403.004456,672.785217 403.024353,698.613403 
	C403.028961,704.606201 404.526337,705.990173 410.491699,705.785400 
	C414.145142,705.659973 417.792969,705.208313 421.444000,705.200073 
	C444.939026,705.146790 468.435272,705.059082 491.928467,705.273315 
	C496.762390,705.317322 498.293335,703.770386 498.245728,698.986450 
	C498.035126,677.825989 498.128967,656.662415 498.113586,634.500000 
z"/>
<path fill="#FAFBFB" opacity="1.000000" stroke="none" 
	d="
M567.000000,703.900513 
	C579.831177,703.921753 592.166443,703.769653 604.491394,704.057007 
	C609.085999,704.164062 611.829346,702.006409 614.567627,698.817627 
	C622.142639,689.996643 629.848633,681.284485 637.665039,672.676514 
	C640.371765,669.695740 644.759827,670.348999 648.634216,674.041809 
	C656.938232,681.956787 664.928345,690.219482 673.489868,697.842285 
	C690.850281,713.299377 708.563232,728.359680 726.007263,743.723877 
	C732.372192,749.329956 738.435425,755.283569 744.535645,761.182739 
	C747.094421,763.657104 746.752502,766.169983 743.976135,768.391968 
	C737.790894,773.342102 731.798645,778.554688 725.406982,783.220825 
	C714.957581,790.849243 704.521240,798.554871 693.579285,805.432312 
	C682.769592,812.226501 671.641663,818.674683 660.104980,824.110962 
	C646.017944,830.749023 631.520691,836.613098 616.897339,841.985901 
	C605.079834,846.327759 592.928650,849.901306 580.721313,853.014893 
	C551.784058,860.395447 522.327820,863.216614 492.455994,862.310974 
	C476.004150,861.812195 459.696838,861.268372 443.291901,858.739075 
	C422.996094,855.609802 403.175934,851.020874 383.804657,844.619751 
	C361.221222,837.157104 339.241730,827.993896 318.526001,816.200684 
	C279.372986,793.911377 245.737198,764.915161 216.409592,730.843079 
	C211.219147,724.812866 206.431030,718.429321 201.593857,712.104431 
	C197.771652,707.106567 197.816055,704.139526 202.519974,700.080322 
	C218.501221,686.289246 234.712631,672.765259 250.745575,659.033569 
	C256.304047,654.272888 261.546356,649.145142 267.025055,644.288818 
	C275.973053,636.357178 284.982178,628.494202 293.995789,620.636902 
	C297.161621,617.877258 300.978546,618.283508 304.556213,621.848633 
	C318.002319,635.247681 331.390625,648.704590 344.825226,662.115173 
	C351.992065,669.269165 359.413025,676.184509 366.278534,683.614746 
	C368.315033,685.818787 369.809021,689.375366 369.910919,692.367981 
	C370.347260,705.185242 370.319214,718.025574 370.130249,730.852661 
	C370.071442,734.845886 371.307983,735.935181 375.253540,735.928711 
	C423.911530,735.848999 472.569733,735.940308 521.227905,735.977844 
	C529.778625,735.984497 531.155273,734.691833 530.984314,726.162842 
	C530.891479,721.528625 530.469238,716.891174 529.986633,712.277100 
	C529.432495,706.979492 532.048950,703.941528 537.506775,703.928528 
	C547.171204,703.905640 556.835571,703.909180 567.000000,703.900513 
z"/>
<path fill="#FAFBFB" opacity="1.000000" stroke="none" 
	d="
M414.122589,416.564636 
	C417.079071,416.614746 420.035553,416.664886 423.826904,416.780273 
	C425.487091,416.745056 426.312347,416.644623 427.137634,416.544189 
	C432.145599,416.645569 437.153595,416.746979 442.870178,417.116272 
	C449.029724,417.562286 454.499268,418.098022 459.926361,417.816467 
	C465.189484,417.543365 467.889587,414.651550 467.888855,410.175476 
	C467.885834,391.421539 467.804932,372.667572 467.752563,353.913635 
	C469.332581,353.560120 470.912109,352.901123 472.492676,352.898529 
	C499.984436,352.853821 527.476868,352.985138 554.967712,352.827728 
	C560.493896,352.796082 563.426514,355.513763 565.907959,359.911011 
	C569.067932,365.510712 572.555603,370.932770 576.056824,376.330963 
	C581.448120,384.643127 587.218262,392.722595 592.285339,401.224030 
	C593.774902,403.723114 593.853882,407.314087 593.862366,410.406586 
	C593.964905,447.728577 593.942322,485.050964 593.926392,522.373230 
	C593.923767,528.471863 594.104004,528.274292 600.491882,528.271362 
	C618.139160,528.263184 635.786316,528.657104 653.434204,528.822632 
	C656.675476,528.853027 657.941772,530.540710 657.940247,533.486694 
	C657.927917,556.979126 658.057068,580.474365 657.647095,603.960205 
	C657.597168,606.819580 655.116821,610.128662 652.900208,612.380249 
	C634.899902,630.664490 616.911438,648.974365 598.349854,666.679321 
	C595.005615,669.869202 589.070984,671.687256 584.286804,671.779724 
	C567.833801,672.097717 551.361023,671.348450 534.894897,671.053467 
	C530.578918,670.976135 529.371765,668.960205 530.434143,664.912292 
	C530.931396,663.017700 530.931519,660.958801 530.935791,658.973816 
	C530.988281,634.647583 531.009949,610.321228 531.015747,585.994934 
	C531.017578,578.560425 529.425903,576.972717 521.887512,576.977478 
	C473.068390,577.008484 424.249176,577.106262 375.430237,577.030457 
	C371.190399,577.023865 369.996948,578.466064 370.105743,582.544617 
	C370.514130,597.853882 370.670990,613.170410 370.831940,628.485168 
	C370.856903,630.857483 370.411407,633.234680 370.183502,635.609619 
	C369.704193,635.798401 369.224915,635.987244 368.745636,636.176025 
	C349.351562,616.894592 329.957489,597.613098 310.258545,577.872314 
	C309.595886,577.006653 309.238098,576.600342 308.880310,576.193970 
	C308.880310,576.193970 308.862061,576.125732 308.878448,575.680664 
	C308.558502,567.003784 308.101471,558.774780 307.914917,550.539551 
	C307.653137,538.984680 307.592438,527.425293 307.445740,515.867798 
	C307.597198,515.145691 307.748657,514.423584 308.412964,513.320923 
	C313.271973,512.586914 317.618134,512.233582 321.964325,511.880249 
	C341.341797,511.905121 360.719238,511.930023 380.859039,512.205261 
	C387.073578,512.277466 392.525818,512.099243 397.978027,511.921082 
	C398.689148,511.845215 399.400269,511.769348 400.823059,511.605774 
	C402.311890,508.946106 403.746979,506.378510 403.764099,503.801483 
	C403.930847,478.694489 403.862030,453.585938 403.856873,428.477814 
	C403.854675,417.812805 403.850983,417.812805 414.122589,416.564636 
z"/>
<path fill="#F9FBFB" opacity="1.000000" stroke="none" 
	d="
M438.000000,258.059967 
	C427.671906,258.070312 417.841553,257.963348 408.016846,258.150940 
	C404.375244,258.220459 402.952087,256.988342 402.962402,253.283951 
	C403.059906,218.302795 403.068390,183.321304 403.053619,148.339951 
	C403.051147,142.517319 407.834717,141.790604 411.545471,141.050018 
	C423.413574,138.681412 435.496979,137.369370 447.335907,134.881531 
	C469.544006,130.214645 491.994751,130.612930 514.414551,131.272064 
	C525.292786,131.591904 536.118896,133.647598 546.971313,134.893707 
	C552.906067,135.575165 559.014648,135.539383 564.753479,136.984116 
	C583.547424,141.715469 602.205017,146.987396 620.921875,152.026199 
	C624.491394,152.987152 625.969421,155.104248 625.956360,158.914734 
	C625.855957,188.232010 625.795837,217.550522 625.977661,246.867065 
	C626.035950,256.258057 621.189819,262.929382 615.021851,268.976227 
	C598.756348,284.922150 582.397705,300.773529 566.008484,316.592377 
	C561.831482,320.623993 556.530945,321.881866 550.864014,321.895020 
	C524.711487,321.955719 498.558197,321.933319 472.407166,322.165894 
	C467.539764,322.209198 466.986389,319.661041 467.007843,315.891418 
	C467.097046,300.233459 467.087372,284.574982 467.144531,268.916809 
	C467.181519,258.777496 466.387695,257.945557 456.489807,257.998230 
	C450.493256,258.030121 444.496613,258.039856 438.000000,258.059967 
z"/>
<path fill="#FAFBFB" opacity="1.000000" stroke="none" 
	d="
M862.855713,505.979614 
	C862.231689,519.425293 862.586975,532.517212 860.732605,545.288208 
	C858.501831,560.650940 854.657104,575.804932 850.998230,590.925171 
	C848.702820,600.411011 846.107422,609.924927 842.501831,618.969910 
	C836.731812,633.444763 830.066895,647.565735 823.679504,661.791016 
	C813.243469,685.033264 798.242065,705.405029 783.156250,725.700562 
	C780.190979,729.689819 776.716309,733.312744 773.343262,736.982056 
	C771.239929,739.270264 768.769531,739.528015 766.258240,737.462646 
	C766.001282,737.251343 765.762329,737.018005 765.516541,736.793335 
	C748.585571,721.317322 731.847656,705.622864 714.661438,690.435730 
	C701.486389,678.793152 687.736755,667.801147 674.263977,656.494446 
	C671.587402,654.248169 669.008850,651.885132 666.383057,649.578247 
	C662.183838,645.888855 661.596252,643.272522 665.371155,638.955688 
	C671.388916,632.074219 678.158020,625.846497 684.119019,618.920288 
	C686.187622,616.516785 687.868042,612.872437 687.906494,609.772278 
	C688.210205,585.291870 688.050598,560.805969 688.086853,536.321838 
	C688.097778,528.947632 688.208557,528.872009 695.733826,528.855103 
	C712.029114,528.818542 728.324463,528.832764 744.619812,528.821289 
	C752.176086,528.815979 752.132812,528.810974 752.093811,521.496521 
	C752.032593,510.004272 751.961609,498.511169 752.043030,487.019440 
	C752.086243,480.926331 753.099426,480.049713 759.014709,480.047516 
	C791.327271,480.035522 823.640503,480.133179 855.951599,479.911255 
	C861.041626,479.876312 862.896240,481.787415 862.862488,486.495270 
	C862.817139,492.824432 862.854431,499.154205 862.855713,505.979614 
z"/>
<path fill="#F9FBFB" opacity="1.000000" stroke="none" 
	d="
M208.588867,272.576416 
	C213.152466,267.054321 217.180466,261.496155 221.958939,256.683044 
	C235.775513,242.766373 249.316620,228.485641 264.087646,215.637497 
	C274.772705,206.343384 287.084930,198.859970 298.973328,191.027176 
	C309.613831,184.016602 320.450714,177.238739 331.611389,171.105042 
	C339.564453,166.734116 348.216736,163.642868 356.516724,159.891418 
	C359.073792,158.735641 361.440704,157.159592 363.996460,156.000259 
	C367.928040,154.216858 370.197083,155.577026 370.202332,159.803925 
	C370.241089,191.120682 370.174866,222.437637 370.264709,253.754181 
	C370.275208,257.410431 368.705139,258.195740 365.426636,258.167816 
	C348.769897,258.025757 332.111603,258.072174 315.453949,258.022278 
	C308.046936,258.000092 306.832947,259.200073 306.842407,266.758698 
	C306.862823,283.083435 306.777252,299.409393 306.967194,315.732147 
	C307.021149,320.369049 305.669281,322.121338 300.679626,322.095947 
	C261.867828,321.898285 223.054565,321.982513 184.241760,321.979553 
	C182.624832,321.979431 181.007889,321.979523 177.901749,321.979523 
	C179.419998,318.279236 180.110703,315.408936 181.632645,313.082397 
	C190.445267,299.610809 199.453812,286.267395 208.588867,272.576416 
z"/>
<path fill="#FAFBFB" opacity="1.000000" stroke="none" 
	d="
M698.999573,497.156586 
	C676.851074,497.167328 655.202332,497.182007 633.553650,497.186005 
	C627.641418,497.187103 625.213318,495.193817 625.185974,489.286407 
	C625.058777,461.809845 625.121460,434.332458 625.119324,406.855347 
	C625.119019,402.987976 627.019653,400.981018 630.931702,400.975372 
	C659.407654,400.934235 687.883850,400.936432 716.359436,400.811371 
	C721.019043,400.790894 721.278687,403.590576 721.269165,407.054321 
	C721.224426,423.373627 721.173157,439.693512 721.270935,456.012360 
	C721.332581,466.294708 721.751587,476.574768 721.827454,486.857208 
	C721.893799,495.848206 720.375977,497.240631 711.489746,497.181488 
	C707.493103,497.154907 703.496155,497.163757 698.999573,497.156586 
z"/>
<path fill="#F8FAFB" opacity="1.000000" stroke="none" 
	d="
M435.078186,381.990417 
	C434.282532,385.293427 432.206177,386.084991 428.879028,386.068634 
	C401.248322,385.932678 373.616577,386.010345 345.985168,386.008057 
	C340.065125,386.007568 339.077606,385.079895 339.074341,379.019135 
	C339.059296,351.221161 339.078827,323.423126 339.146637,295.625275 
	C339.160339,290.010223 340.360504,288.749695 345.936157,288.995422 
	C356.218933,289.448578 366.491425,290.705963 376.764771,290.669342 
	C392.198212,290.614380 407.628479,289.725739 423.060699,289.209808 
	C426.380615,289.098785 429.703125,289.065186 433.531616,289.315735 
	C434.313080,290.426483 434.587311,291.217407 434.831726,292.258972 
	C434.847809,292.671448 434.893707,292.833313 434.895813,293.462616 
	C434.927368,323.283508 435.002777,352.636963 435.078186,381.990417 
z"/>
<path fill="#F9FBFB" opacity="1.000000" stroke="none" 
	d="
M498.113098,635.000000 
	C498.128967,656.662415 498.035126,677.825989 498.245728,698.986450 
	C498.293335,703.770386 496.762390,705.317322 491.928467,705.273315 
	C468.435272,705.059082 444.939026,705.146790 421.444000,705.200073 
	C417.792969,705.208313 414.145142,705.659973 410.491699,705.785400 
	C404.526337,705.990173 403.028961,704.606201 403.024353,698.613403 
	C403.004456,672.785217 403.047302,646.957031 403.067505,621.128845 
	C403.069855,618.129517 403.037476,615.129639 403.087311,612.131104 
	C403.134094,609.317688 404.440674,607.985840 407.440369,607.993103 
	C435.934540,608.062317 464.428894,608.058899 492.923218,608.040283 
	C496.678070,608.037781 498.268280,609.602661 498.148621,613.505798 
	C497.934235,620.497620 498.104218,627.501282 498.113098,635.000000 
z"/>
<path fill="#50B8DE" opacity="1.000000" stroke="none" 
	d="
M435.457886,381.995209 
	C435.002777,352.636963 434.927368,323.283508 435.077454,293.375549 
	C435.155823,292.550140 435.008698,292.279236 434.861542,292.008331 
	C434.587311,291.217407 434.313080,290.426483 433.990845,289.325043 
	C438.080261,288.969696 440.003235,291.096100 440.001709,295.151886 
	C439.990967,323.678711 439.988159,352.205536 439.966675,380.732361 
	C439.966309,381.209625 439.764496,381.686737 439.585815,382.477814 
	C438.317566,382.316162 437.077576,382.158081 435.457886,381.995209 
z"/>
<path fill="#95CDE3" opacity="1.000000" stroke="none" 
	d="
M413.960938,416.239075 
	C403.850983,417.812805 403.854675,417.812805 403.856873,428.477814 
	C403.862030,453.585938 403.930847,478.694489 403.764099,503.801483 
	C403.746979,506.378510 402.311890,508.946106 401.166718,511.504639 
	C401.198395,506.887451 401.921875,502.285309 401.943726,497.679840 
	C402.060394,473.085541 401.986908,448.490417 402.011902,423.895599 
	C402.020355,415.599335 405.432007,413.320435 413.960938,416.239075 
z"/>
<path fill="#95CDE3" opacity="1.000000" stroke="none" 
	d="
M467.387421,354.050354 
	C467.804932,372.667572 467.885834,391.421539 467.888855,410.175476 
	C467.889587,414.651550 465.189484,417.543365 459.926361,417.816467 
	C454.499268,418.098022 449.029724,417.562286 443.309021,417.063354 
	C447.800232,416.501434 452.560120,416.098694 457.322540,416.066040 
	C461.803253,416.035278 465.276978,415.244568 465.298737,409.682190 
	C465.309021,407.052460 465.942688,404.425446 465.956390,401.795410 
	C466.030029,387.642975 465.963043,373.489777 466.046814,359.337463 
	C466.056976,357.618805 466.682129,355.903778 467.387421,354.050354 
z"/>
<path fill="#95CDE3" opacity="1.000000" stroke="none" 
	d="
M307.127869,516.059631 
	C307.592438,527.425293 307.653137,538.984680 307.914917,550.539551 
	C308.101471,558.774780 308.558502,567.003784 308.845093,575.669189 
	C307.872955,574.936584 306.156555,573.776978 306.147003,572.603455 
	C305.997864,554.242737 306.064209,535.880127 306.119507,517.518066 
	C306.120789,517.095215 306.569824,516.673645 307.127869,516.059631 
z"/>
<path fill="#95CDE3" opacity="1.000000" stroke="none" 
	d="
M397.672424,511.646545 
	C392.525818,512.099243 387.073578,512.277466 381.328400,512.166382 
	C386.479218,511.708801 391.923004,511.540436 397.672424,511.646545 
z"/>
<path fill="#95CDE3" opacity="1.000000" stroke="none" 
	d="
M321.657867,511.612823 
	C317.618134,512.233582 313.271973,512.586914 308.462646,512.954712 
	C309.299988,512.318298 310.571930,511.192413 311.906769,511.112183 
	C315.038971,510.923889 318.201294,511.235931 321.657867,511.612823 
z"/>
<path fill="#95CDE3" opacity="1.000000" stroke="none" 
	d="
M427.027039,416.275330 
	C426.312347,416.644623 425.487091,416.745056 424.262817,416.702271 
	C424.881378,416.374817 425.898926,416.190643 427.027039,416.275330 
z"/>
<path fill="#95CDE3" opacity="1.000000" stroke="none" 
	d="
M308.914551,576.475098 
	C309.238098,576.600342 309.595886,577.006653 309.973206,577.702759 
	C309.644806,577.580383 309.296814,577.168274 308.914551,576.475098 
z"/>
<path fill="#65C2E2" opacity="1.000000" stroke="none" 
	d="
M434.831726,292.258972 
	C435.008698,292.279236 435.155823,292.550140 435.121307,292.908112 
	C434.893707,292.833313 434.847809,292.671448 434.831726,292.258972 
z"/>
</svg>