<svg version="1.1" id="Layer_1" xmlns="http://www.w3.org/2000/svg" xmlns:xlink="http://www.w3.org/1999/xlink" x="0px" y="0px"
	 width="100%" viewBox="0 0 1280 640" enable-background="new 0 0 1280 640" xml:space="preserve">
<path class="no-fill" fill="none" opacity="1.000000" stroke="none"
	d="
M783.000000,641.000000
	C522.033875,641.000000 261.567780,641.000000 1.050843,641.000000
	C1.050843,427.728333 1.050843,214.456650 1.050843,1.092481
	C427.549469,1.092481 854.098938,1.092481 1280.824219,1.092481
	C1280.824219,214.333221 1280.824219,427.666595 1280.824219,641.000000
	C1115.123169,641.000000 949.311584,641.000000 783.000000,641.000000
M64.000557,320.196991
	C64.340988,324.113739 64.163689,328.161774 65.117630,331.922913
	C68.138870,343.834839 71.210541,355.758484 74.948448,367.458496
	C80.925453,386.167114 90.907585,402.888519 102.921257,418.238251
	C116.688789,435.828888 133.172119,450.683167 152.605713,461.849762
	C160.990952,466.667877 169.872360,470.827118 178.926697,474.223969
	C190.050858,478.397339 201.480072,481.897980 212.995956,484.831543
	C219.408585,486.465118 226.322098,486.011566 232.910431,487.100372
	C248.099548,489.610657 263.146606,487.599915 278.013733,485.260803
	C287.986267,483.691742 297.577362,479.760620 307.379944,477.033173
	C320.360229,473.421570 332.266968,467.345306 343.293976,459.919708
	C353.585419,452.989471 363.273773,445.064819 372.679474,436.943085
	C384.391174,426.830200 393.829620,414.514130 401.719666,401.352081
	C407.827393,391.163300 412.524139,380.018585 416.866241,368.914825
	C420.627380,359.296631 424.255096,349.315521 425.692596,339.175934
	C427.604340,325.690918 428.291565,311.857422 427.733765,298.246185
	C427.171173,284.517761 425.398376,270.660553 422.351318,257.270416
	C420.041626,247.120499 414.914093,237.609146 411.012817,227.824661
	C404.182678,210.694275 393.549133,195.915741 380.958527,182.801315
	C371.531708,172.982285 360.721069,164.437668 350.126923,155.816772
	C345.008759,151.651917 339.268555,147.970078 333.282501,145.216263
	C323.214539,140.584625 312.567352,137.220413 302.453308,132.678497
	C289.356079,126.796936 275.393951,125.459808 261.462189,124.131126
	C253.702454,123.391068 245.813721,124.054878 237.984024,123.985710
	C224.534637,123.866913 211.432053,126.135857 198.571503,129.829880
	C192.325058,131.624084 186.106689,133.634689 180.086365,136.068619
	C171.847473,139.399490 163.321548,142.431656 155.807404,147.040771
	C146.244919,152.906326 137.541290,160.180847 128.521606,166.920502
	C115.667244,176.525482 105.202560,188.528900 96.263199,201.629395
	C83.843300,219.830582 74.272469,239.672897 69.242256,261.181366
	C66.337685,273.600830 65.390160,286.515656 64.114471,299.262878
	C63.454178,305.860901 63.998310,312.579437 64.000557,320.196991
M700.000549,267.709198
	C701.003601,261.993408 701.442383,256.094971 703.212341,250.627457
	C704.349854,247.113678 706.999023,243.754944 709.763367,241.176620
	C714.504150,236.754898 720.838928,238.534729 726.591248,237.882950
	C733.326843,237.119751 740.355835,245.447449 740.902527,251.138641
	C741.627380,258.685516 741.869019,266.296082 741.954529,273.883362
	C742.110413,287.714264 742.082520,301.549042 741.938965,315.380219
	C741.903870,318.762207 742.807922,320.161072 746.434265,320.070099
	C755.095093,319.852936 763.767822,319.871704 772.429871,320.063141
	C775.882568,320.139465 777.121338,319.070282 777.067017,315.512878
	C776.886292,303.682861 776.580811,291.828918 777.132080,280.021881
	C777.566406,270.721069 775.747253,261.493286 778.716919,252.026627
	C782.402710,240.277084 798.962158,232.505234 809.311035,239.192749
	C811.104492,240.351700 812.786316,242.021698 813.895569,243.837006
	C817.093872,249.071365 817.925720,255.027191 817.961060,261.019958
	C818.067383,279.018463 817.931274,297.018646 818.110168,315.015991
	C818.126709,316.681702 819.667053,319.745422 820.574280,319.773651
	C831.322266,320.108551 842.084412,319.989258 853.001038,319.989258
	C853.001038,297.391876 853.205383,275.405060 852.864807,253.426697
	C852.773865,247.560730 851.258667,241.666763 849.976562,235.878845
	C846.333313,219.432281 834.250732,210.943253 819.354736,207.404999
	C810.181213,205.225998 800.282654,205.301300 790.440063,208.662613
	C781.420532,211.742844 774.118896,216.502090 768.164978,222.235458
	C747.071045,201.623550 724.357544,202.101212 700.253174,215.786057
	C699.768738,207.124359 698.104004,206.620041 690.837158,206.937241
	C683.850830,207.242172 676.840515,207.034073 669.841125,206.989441
	C666.565369,206.968552 664.989624,208.452454 664.991394,211.766724
	C665.009888,246.598343 664.968567,281.430145 665.142822,316.260895
	C665.149109,317.511871 667.185364,319.803802 668.322876,319.834137
	C678.762878,320.112610 689.213440,319.998077 700.000549,319.998077
	C700.000549,302.591827 700.000549,285.631531 700.000549,267.709198
M914.003357,337.499115
	C914.003357,329.017212 914.003357,320.535309 914.003357,312.361572
	C919.192261,315.128754 923.545776,319.072876 928.323975,319.681274
	C940.558167,321.238983 952.859192,322.985840 965.196411,318.231506
	C975.435486,314.285767 983.314026,308.298981 990.075928,299.737915
	C996.716797,291.330078 999.005249,281.461212 1000.631897,271.665649
	C1001.669922,265.414520 1001.176270,258.643829 999.500671,251.794693
	C997.329773,242.921234 994.460327,235.010117 989.268677,227.517410
	C983.349426,218.974640 975.429321,213.426147 965.970154,210.092941
	C960.254028,208.078705 954.148743,206.721985 948.118408,206.178497
	C942.611328,205.682175 936.968079,206.655319 931.390503,207.058380
	C930.907410,207.093292 930.511536,207.810196 929.998535,208.037445
	C924.400696,210.517303 918.787598,212.962708 913.193787,215.410858
	C912.741882,207.120819 912.617981,207.003113 904.294739,207.003098
	C897.629944,207.003082 890.957092,207.203522 884.303101,206.935455
	C879.548035,206.743851 877.904480,208.564453 877.929871,213.304977
	C878.078308,240.962982 878.002808,268.622223 878.002686,296.281036
	C878.002625,315.942139 878.006592,335.603210 877.996643,355.264313
	C877.995422,357.642517 877.659180,360.054260 881.311279,360.026611
	C891.777161,359.947388 902.243896,359.998718 914.003357,359.998718
	C914.003357,352.574524 914.003357,345.536469 914.003357,337.499115
M492.718292,180.027328
	C492.211884,180.453384 491.766235,181.001892 491.190216,181.287643
	C475.116425,189.262009 469.481415,203.500595 468.115784,220.141785
	C467.946014,222.210541 469.788605,224.378433 469.925446,226.549118
	C470.780426,240.114548 479.437927,247.803864 490.548187,252.985992
	C497.395874,256.179901 504.948181,257.914581 512.258118,260.051453
	C519.605835,262.199402 527.160889,263.690216 534.403931,266.126373
	C539.233459,267.750793 543.999084,270.066772 548.151184,272.986389
	C550.145508,274.388702 552.294922,278.608124 551.551819,280.343140
	C548.216797,288.130707 543.025635,292.321136 533.834229,291.952789
	C523.411743,291.535126 512.728333,293.813110 502.689911,289.018219
	C496.341949,285.986023 489.780548,283.375610 483.564789,280.101624
	C480.133972,278.294525 477.620270,278.959839 475.919037,282.620483
	C473.532593,287.755463 470.739777,292.704742 468.043732,297.691803
	C465.481476,302.431335 466.155365,306.386658 470.658722,308.831024
	C475.161316,311.274963 480.086609,312.932678 484.627991,315.313873
	C494.389801,320.432251 505.304688,321.272400 515.766052,322.594666
	C524.098267,323.647827 532.829590,323.715393 541.651306,321.457703
	C548.943787,319.591461 556.269958,318.249695 563.151917,315.002808
	C575.711609,309.077209 587.384338,294.259521 586.931274,279.181030
	C586.781311,274.189484 586.983948,269.350555 585.365356,264.161224
	C582.716736,255.669708 577.084290,250.667831 570.544739,245.801697
	C561.703369,239.222687 550.859680,237.773712 540.888794,234.209961
	C532.666260,231.271103 523.756165,230.315735 515.328125,227.870163
	C510.104248,226.354355 505.285492,222.200073 504.966888,217.990692
	C504.588837,212.995987 507.714233,208.096329 512.872009,205.579178
	C522.631409,200.816238 533.038269,200.951141 543.004456,203.296753
	C552.191040,205.458878 560.864441,209.800949 570.394104,213.422241
	C570.772705,212.550812 571.494324,210.998413 572.128601,209.411087
	C574.449036,203.604324 576.521484,197.686661 579.101685,191.998718
	C581.916626,185.793289 581.694275,185.488098 576.076477,182.435684
	C566.150696,177.042603 555.096069,174.488907 544.403992,173.447083
	C527.257507,171.776321 509.656555,171.599075 492.718292,180.027328
M697.659180,338.845398
	C696.822083,339.762909 695.792114,340.567200 695.177307,341.615143
	C687.777954,354.226837 680.458618,366.885468 673.079468,379.509094
	C668.092773,388.040009 663.044312,396.534882 658.222412,404.708801
	C654.663574,399.262360 651.184570,394.332306 648.120483,389.156647
	C643.481812,381.321289 639.211914,373.268433 634.637512,365.393829
	C629.812988,357.088623 624.912659,348.822968 619.808533,340.688690
	C618.818787,339.111389 616.783203,337.248779 615.153992,337.173950
	C607.232483,336.810181 599.285095,337.009583 591.270874,337.009583
	C591.270874,375.904846 591.270874,414.283905 591.270874,452.704163
	C600.936951,452.704163 610.329590,452.704163 620.244873,452.704163
	C620.244873,432.481262 620.244873,412.549652 620.244873,391.910706
	C630.442505,408.673584 640.177917,424.676636 650.028442,440.868927
	C654.986694,440.868927 660.297363,440.868927 665.167297,440.868927
	C674.998047,424.542725 684.653503,408.507568 694.999939,391.324951
	C694.999939,394.261932 694.999939,395.851807 694.999878,397.441650
	C694.999634,414.431152 694.935791,431.421295 695.107300,448.409058
	C695.122742,449.939087 696.609131,452.742645 697.494629,452.776062
	C706.240967,453.106110 715.004700,452.975586 723.678406,452.975586
	C723.678406,413.991150 723.678406,375.611664 723.678406,337.000031
	C716.547424,337.000031 709.735840,336.933044 702.927429,337.048401
	C701.281433,337.076263 699.645569,337.706635 697.659180,338.845398
M1178.050659,297.488983
	C1173.984375,292.795288 1170.044556,287.978821 1165.722900,283.533295
	C1165.033325,282.823975 1162.024536,283.165619 1161.118530,284.062531
	C1154.391235,290.720947 1145.625854,292.262512 1136.968994,293.843140
	C1134.858032,294.228546 1132.397461,292.648987 1130.087891,292.007690
	C1126.405273,290.985168 1122.440430,290.539673 1119.089600,288.862000
	C1113.614014,286.120483 1110.280762,281.181061 1107.597290,274.998688
	C1109.763916,274.998688 1111.377197,274.998688 1112.990479,274.998688
	C1136.989868,274.998718 1160.989380,275.007416 1184.988770,274.984406
	C1187.206787,274.982300 1190.141235,275.717285 1189.969971,271.960388
	C1189.569946,263.183472 1190.212646,254.528198 1187.398804,245.693314
	C1184.952515,238.012634 1181.594116,231.257217 1176.623901,225.313248
	C1168.269531,215.322083 1157.004761,209.510071 1144.493164,207.230072
	C1134.472046,205.403885 1124.345093,205.641190 1114.017578,208.653763
	C1104.461182,211.441376 1096.045410,215.508530 1089.030762,222.107315
	C1078.324707,232.178665 1072.473022,244.821854 1072.029175,259.670410
	C1071.764893,268.505524 1071.559692,277.382202 1075.880005,285.560852
	C1078.242798,290.033447 1080.077637,294.890656 1083.040283,298.920197
	C1090.993652,309.737366 1102.174194,317.097137 1114.895142,319.496155
	C1126.885376,321.757416 1139.690308,321.565094 1151.902588,320.260132
	C1164.151367,318.951294 1174.627441,312.332367 1183.253052,302.853516
	C1181.646729,301.149475 1180.145020,299.556458 1178.050659,297.488983
M790.578918,358.009674
	C800.390686,360.744324 811.247681,359.832397 819.950928,366.714691
	C820.924988,367.484985 824.819336,366.366882 825.747192,365.016602
	C827.694031,362.183380 828.645142,358.641205 829.860901,355.337097
	C831.159363,351.808167 832.291626,348.218079 833.454590,344.778412
	C830.571960,343.246582 828.534973,341.889923 826.306641,341.028778
	C817.923523,337.789215 809.393555,335.678772 800.296936,334.721802
	C783.756348,332.981598 768.337097,334.832123 754.398987,344.295227
	C746.641296,349.562195 743.130066,357.846375 741.175171,366.490662
	C739.724670,372.904663 740.724548,379.800201 744.187073,385.434723
	C746.983765,389.985718 750.759766,394.497070 755.176514,397.377441
	C765.461365,404.084656 777.730103,405.767883 789.345276,409.086517
	C794.527466,410.567108 799.546021,412.717987 804.488953,414.903656
	C807.758362,416.349304 808.389832,419.111969 807.187500,422.506531
	C805.506958,427.251129 801.804077,429.801117 796.268982,430.045135
	C793.463867,430.168793 790.679810,430.768738 787.780457,431.167908
	C785.563599,430.805237 783.106506,430.083710 780.642700,430.060394
	C773.389893,429.991699 766.858826,427.874390 760.524170,424.408539
	C756.529236,422.222748 752.051514,420.919434 748.165649,419.369965
	C745.600464,425.009247 743.674927,429.570099 741.474243,433.994141
	C738.962280,439.043884 739.416626,444.075531 743.657532,445.706696
	C752.674805,449.175079 761.763855,453.040619 771.184753,454.737244
	C784.902832,457.207825 798.895630,457.037628 812.292114,451.976868
	C815.368042,450.814850 818.365295,449.288513 821.146423,447.530518
	C829.611267,442.179718 835.287903,435.061798 837.252808,424.750519
	C838.777710,416.748596 837.828186,409.478180 834.014221,402.650604
	C826.993408,390.082367 813.503296,388.205017 801.562195,384.112946
	C793.978699,381.514191 785.972656,380.175568 778.261353,377.912964
	C773.309204,376.459930 771.025391,372.786713 772.035095,367.574432
	C772.804810,363.601013 775.318787,361.482574 779.428101,360.805115
	C782.913879,360.230469 786.292419,359.004730 790.578918,358.009674
M575.987793,355.653534
	C572.364380,351.788025 569.298645,347.085052 565.005066,344.225952
	C555.140198,337.657104 543.773438,334.587585 532.007690,334.111725
	C517.667969,333.531830 503.936249,335.889557 491.398529,343.847748
	C477.978455,352.365997 468.313263,363.774078 465.248657,379.285736
	C462.921051,391.066986 462.829803,403.051178 466.677460,415.144562
	C470.352295,426.694794 477.301544,435.575714 486.052429,442.744537
	C496.730988,451.492523 509.973907,455.179474 523.763611,455.942322
	C535.877075,456.612396 547.677795,454.543518 558.420715,448.853455
	C563.916138,445.942780 568.746704,441.699554 573.642090,437.765411
	C576.173523,435.731049 577.042725,432.685699 574.377747,430.152069
	C569.923645,425.917542 565.272827,421.858795 560.411743,418.105713
	C559.232910,417.195618 556.003052,416.953308 555.258545,417.784790
	C549.404358,424.323181 542.165649,428.247314 533.671143,429.619965
	C522.909302,431.358948 513.309265,428.136444 505.072723,421.220367
	C494.848663,412.635254 492.880554,400.884308 494.188110,388.559265
	C494.787628,382.908417 496.986694,377.538635 501.085938,372.822784
	C507.257599,365.722748 514.224670,361.380676 523.780518,360.483948
	C534.578430,359.470581 543.965210,361.561951 552.085144,369.082306
	C557.913696,374.480530 556.241394,374.948303 562.433044,369.716705
	C567.258057,365.639740 571.494873,360.866577 575.987793,355.653534
M1018.002808,307.472992
	C1018.002808,309.970795 1018.220215,312.492126 1017.953308,314.961090
	C1017.523621,318.934753 1019.022339,320.214294 1023.018433,320.084198
	C1031.501953,319.807953 1040.010132,319.762878 1048.489502,320.097076
	C1052.928833,320.272064 1054.121582,318.847504 1054.097534,314.465179
	C1053.922363,282.494263 1054.003296,250.521896 1054.003296,218.549988
	C1054.003296,203.230118 1053.942627,187.909836 1054.044067,172.590637
	C1054.070557,168.575485 1052.984985,166.686478 1048.424316,166.893066
	C1040.115356,167.269455 1031.766479,167.251602 1023.455322,166.900009
	C1018.923279,166.708267 1017.901794,168.313202 1017.915466,172.599854
	C1018.057495,217.226868 1018.002808,261.854492 1018.002808,307.472992
M604.002502,236.500000
	C604.002502,262.645538 603.992493,288.791046 604.020996,314.936554
	C604.023376,317.127075 603.219055,319.983276 606.987793,319.990448
	C617.580750,320.010529 628.173706,319.997437 638.999573,319.997437
	C638.999573,283.169495 638.980591,246.890823 639.035217,210.612259
	C639.039612,207.676453 637.719177,206.936295 635.060547,206.966812
	C626.568542,207.064270 618.072937,207.105545 609.582336,206.957809
	C605.571960,206.888046 603.879028,208.465317 603.958862,212.519440
	C604.109741,220.176956 604.002502,227.839523 604.002502,236.500000
M608.599670,160.998871
	C607.743591,161.822220 606.885071,162.643066 606.031921,163.469391
	C600.113281,169.202011 598.977539,180.200821 603.324890,186.911346
	C608.245728,194.507111 615.457458,195.975693 623.874146,196.178894
	C630.932251,196.349274 640.672180,190.137878 642.751099,181.790466
	C645.296326,171.570679 639.072632,159.382675 629.410095,158.257416
	C622.822510,157.490250 615.536560,156.155121 608.599670,160.998871
z"/>
<path class="no-fill" fill="#e6ebef" opacity="1.000000" stroke="none"
	d="
M63.999424,319.720276
	C63.998310,312.579437 63.454178,305.860901 64.114471,299.262878
	C65.390160,286.515656 66.337685,273.600830 69.242256,261.181366
	C74.272469,239.672897 83.843300,219.830582 96.263199,201.629395
	C105.202560,188.528900 115.667244,176.525482 128.521606,166.920502
	C137.541290,160.180847 146.244919,152.906326 155.807404,147.040771
	C163.321548,142.431656 171.847473,139.399490 180.086365,136.068619
	C186.106689,133.634689 192.325058,131.624084 198.571503,129.829880
	C211.432053,126.135857 224.534637,123.866913 237.984024,123.985710
	C245.813721,124.054878 253.702454,123.391068 261.462189,124.131126
	C275.393951,125.459808 289.356079,126.796936 302.453308,132.678497
	C312.567352,137.220413 323.214539,140.584625 333.282501,145.216263
	C339.268555,147.970078 345.008759,151.651917 350.126923,155.816772
	C360.721069,164.437668 371.531708,172.982285 380.958527,182.801315
	C393.549133,195.915741 404.182678,210.694275 411.012817,227.824661
	C414.914093,237.609146 420.041626,247.120499 422.351318,257.270416
	C425.398376,270.660553 427.171173,284.517761 427.733765,298.246185
	C428.291565,311.857422 427.604340,325.690918 425.692596,339.175934
	C424.255096,349.315521 420.627380,359.296631 416.866241,368.914825
	C412.524139,380.018585 407.827393,391.163300 401.719666,401.352081
	C393.829620,414.514130 384.391174,426.830200 372.679474,436.943085
	C363.273773,445.064819 353.585419,452.989471 343.293976,459.919708
	C332.266968,467.345306 320.360229,473.421570 307.379944,477.033173
	C297.577362,479.760620 287.986267,483.691742 278.013733,485.260803
	C263.146606,487.599915 248.099548,489.610657 232.910431,487.100372
	C226.322098,486.011566 219.408585,486.465118 212.995956,484.831543
	C201.480072,481.897980 190.050858,478.397339 178.926697,474.223969
	C169.872360,470.827118 160.990952,466.667877 152.605713,461.849762
	C133.172119,450.683167 116.688789,435.828888 102.921257,418.238251
	C90.907585,402.888519 80.925453,386.167114 74.948448,367.458496
	C71.210541,355.758484 68.138870,343.834839 65.117630,331.922913
	C64.163689,328.161774 64.340988,324.113739 63.999424,319.720276
M373.803070,264.161163
	C374.540649,265.063049 375.228424,266.011658 376.024048,266.859039
	C380.390961,271.510010 384.857544,272.103058 390.835663,268.866821
	C394.899231,266.667023 396.925262,261.473236 395.901093,256.367157
	C394.867981,251.216583 390.827637,249.390701 386.713470,247.395813
	C384.988373,246.559357 383.019623,245.259781 382.211853,243.645309
	C373.359100,225.950943 362.050842,210.180756 347.264618,196.897125
	C329.417358,180.863541 309.211853,169.471756 285.802979,163.674896
	C269.441223,159.623138 253.142990,157.333633 236.155579,158.958618
	C218.780930,160.620636 202.009598,164.340561 186.356079,171.733170
	C156.188004,185.980545 132.665710,207.724762 117.004974,237.363831
	C109.242599,252.054688 103.114296,267.461334 101.922722,284.330902
	C101.233727,294.085205 100.680733,303.851501 100.283485,313.621216
	C100.228317,314.977875 101.109901,317.276947 102.089310,317.619293
	C107.100960,319.371124 112.057945,315.515747 111.856613,310.140381
	C111.170479,291.821472 114.529312,274.226746 120.947701,257.130157
	C121.985123,254.366760 123.305466,252.783432 126.666801,252.820740
	C141.827621,252.989029 156.992355,252.988235 172.153336,252.826797
	C175.953064,252.786362 177.157364,254.259933 177.012848,257.839386
	C176.831528,262.330566 177.195847,266.847931 176.927277,271.330200
	C176.685104,275.371918 177.953918,277.137756 182.244629,276.855804
	C186.889908,276.550598 191.576233,276.924713 196.234528,276.742981
	C199.317886,276.622650 200.359665,277.839966 200.266113,280.834900
	C200.110123,285.828522 200.031189,290.842133 200.307068,295.825928
	C200.520233,299.676239 199.355209,301.133148 195.285645,300.993530
	C186.797852,300.702301 178.288971,301.060059 169.797302,300.832397
	C166.129456,300.734070 164.823700,301.806183 164.905304,305.612335
	C165.133789,316.271362 165.160690,326.943359 164.853775,337.598358
	C164.786545,339.932068 163.566772,342.792297 161.906250,344.417175
	C156.572708,349.636261 150.784134,354.390259 145.171524,359.324127
	C141.680984,362.392609 138.262344,365.547882 134.683929,368.510193
	C129.761963,372.584778 128.176666,372.238251 125.403580,366.452881
	C123.826569,363.162781 122.046677,359.832428 121.310089,356.320526
	C120.721245,353.513000 121.383606,350.374695 121.843933,347.438629
	C122.169853,345.359833 123.700989,343.347687 123.617043,341.351074
	C123.405602,336.322662 118.303612,331.066437 113.547096,330.297241
	C108.687645,329.511383 103.682655,332.154724 101.120216,336.860352
	C98.948997,340.847534 100.459381,346.477936 103.841942,350.554291
	C106.635559,353.920898 109.290100,357.701569 110.843727,361.745422
	C116.749146,377.116455 125.232292,390.950378 135.985001,403.218323
	C151.515823,420.937714 170.117142,434.541290 192.116150,443.590637
	C210.865234,451.303101 230.447021,454.663086 250.364731,454.521057
	C262.617218,454.433716 275.009308,451.750275 287.051575,448.983002
	C311.931061,443.265778 333.063507,430.160370 351.341492,412.755798
	C367.760681,397.121155 379.816040,378.262604 387.345184,356.819946
	C390.510986,347.803833 393.681488,338.467926 394.591095,329.059021
	C395.844391,316.095062 394.830933,302.922302 395.032654,289.842743
	C395.163361,281.369476 394.579041,281.154846 386.128876,283.122772
	C384.672028,283.462036 383.572754,285.236115 382.247131,286.268982
	C381.018219,287.226532 379.723419,288.831482 378.430237,288.858887
	C368.104126,289.077667 357.769897,288.886139 347.441803,289.050476
	C343.847870,289.107635 342.829773,287.597534 342.903564,284.263031
	C343.058380,277.268311 342.808624,270.263733 343.009216,263.271362
	C343.104492,259.950256 341.906586,258.992371 338.675476,259.032013
	C326.180634,259.185364 313.670227,258.761353 301.191132,259.230377
	C294.441406,259.484070 289.702911,258.295258 286.452271,251.529907
	C284.608643,247.692810 284.765503,245.634430 287.565704,242.934265
	C293.202148,237.499130 298.843689,232.049026 304.122314,226.275177
	C305.717865,224.529953 306.867950,221.722794 306.946014,219.359879
	C307.259491,209.872818 307.060089,200.369171 307.074646,190.871689
	C307.084381,184.515427 307.703156,184.014328 313.075165,186.990326
	C329.363647,196.013855 344.031219,207.146301 355.090576,222.277634
	C364.102905,234.608261 374.254211,246.651154 373.803070,264.161163
z"/>
<path class="no-fill" fill="#a3b5c4" opacity="1.000000" stroke="none"
	d="
M700.000549,268.190216
	C700.000549,285.631531 700.000549,302.591827 700.000549,319.998077
	C689.213440,319.998077 678.762878,320.112610 668.322876,319.834137
	C667.185364,319.803802 665.149109,317.511871 665.142822,316.260895
	C664.968567,281.430145 665.009888,246.598343 664.991394,211.766724
	C664.989624,208.452454 666.565369,206.968552 669.841125,206.989441
	C676.840515,207.034073 683.850830,207.242172 690.837158,206.937241
	C698.104004,206.620041 699.768738,207.124359 700.253174,215.786057
	C724.357544,202.101212 747.071045,201.623550 768.164978,222.235458
	C774.118896,216.502090 781.420532,211.742844 790.440063,208.662613
	C800.282654,205.301300 810.181213,205.225998 819.354736,207.404999
	C834.250732,210.943253 846.333313,219.432281 849.976562,235.878845
	C851.258667,241.666763 852.773865,247.560730 852.864807,253.426697
	C853.205383,275.405060 853.001038,297.391876 853.001038,319.989258
	C842.084412,319.989258 831.322266,320.108551 820.574280,319.773651
	C819.667053,319.745422 818.126709,316.681702 818.110168,315.015991
	C817.931274,297.018646 818.067383,279.018463 817.961060,261.019958
	C817.925720,255.027191 817.093872,249.071365 813.895569,243.837006
	C812.786316,242.021698 811.104492,240.351700 809.311035,239.192749
	C798.962158,232.505234 782.402710,240.277084 778.716919,252.026627
	C775.747253,261.493286 777.566406,270.721069 777.132080,280.021881
	C776.580811,291.828918 776.886292,303.682861 777.067017,315.512878
	C777.121338,319.070282 775.882568,320.139465 772.429871,320.063141
	C763.767822,319.871704 755.095093,319.852936 746.434265,320.070099
	C742.807922,320.161072 741.903870,318.762207 741.938965,315.380219
	C742.082520,301.549042 742.110413,287.714264 741.954529,273.883362
	C741.869019,266.296082 741.627380,258.685516 740.902527,251.138641
	C740.355835,245.447449 733.326843,237.119751 726.591248,237.882950
	C720.838928,238.534729 714.504150,236.754898 709.763367,241.176620
	C706.999023,243.754944 704.349854,247.113678 703.212341,250.627457
	C701.442383,256.094971 701.003601,261.993408 700.000549,268.190216
z"/>
<path class="no-fill" fill="#a3b5c4" opacity="1.000000" stroke="none"
	d="
M914.003357,337.998749
	C914.003357,345.536469 914.003357,352.574524 914.003357,359.998718
	C902.243896,359.998718 891.777161,359.947388 881.311279,360.026611
	C877.659180,360.054260 877.995422,357.642517 877.996643,355.264313
	C878.006592,335.603210 878.002625,315.942139 878.002686,296.281036
	C878.002808,268.622223 878.078308,240.962982 877.929871,213.304977
	C877.904480,208.564453 879.548035,206.743851 884.303101,206.935455
	C890.957092,207.203522 897.629944,207.003082 904.294739,207.003098
	C912.617981,207.003113 912.741882,207.120819 913.193787,215.410858
	C918.787598,212.962708 924.400696,210.517303 929.998535,208.037445
	C930.511536,207.810196 930.907410,207.093292 931.390503,207.058380
	C936.968079,206.655319 942.611328,205.682175 948.118408,206.178497
	C954.148743,206.721985 960.254028,208.078705 965.970154,210.092941
	C975.429321,213.426147 983.349426,218.974640 989.268677,227.517410
	C994.460327,235.010117 997.329773,242.921234 999.500671,251.794693
	C1001.176270,258.643829 1001.669922,265.414520 1000.631897,271.665649
	C999.005249,281.461212 996.716797,291.330078 990.075928,299.737915
	C983.314026,308.298981 975.435486,314.285767 965.196411,318.231506
	C952.859192,322.985840 940.558167,321.238983 928.323975,319.681274
	C923.545776,319.072876 919.192261,315.128754 914.003357,312.361572
	C914.003357,320.535309 914.003357,329.017212 914.003357,337.998749
M913.001160,259.949951
	C913.663269,264.413422 913.934204,268.977936 915.056396,273.322571
	C919.551941,290.726929 932.385742,293.948395 946.534058,291.484619
	C951.012024,290.704803 956.060425,287.278290 958.790222,283.554596
	C965.463379,274.451721 967.400940,264.486725 963.340759,252.921021
	C960.051270,243.550812 953.568604,238.419678 945.375244,236.369949
	C937.125977,234.306259 928.753723,236.094330 921.619324,242.549271
	C916.433289,247.241470 915.774292,253.529709 913.001160,259.949951
z"/>
<path class="no-fill" fill="#a3b5c4" opacity="1.000000" stroke="none"
	d="
M493.107117,179.990189
	C509.656555,171.599075 527.257507,171.776321 544.403992,173.447083
	C555.096069,174.488907 566.150696,177.042603 576.076477,182.435684
	C581.694275,185.488098 581.916626,185.793289 579.101685,191.998718
	C576.521484,197.686661 574.449036,203.604324 572.128601,209.411087
	C571.494324,210.998413 570.772705,212.550812 570.394104,213.422241
	C560.864441,209.800949 552.191040,205.458878 543.004456,203.296753
	C533.038269,200.951141 522.631409,200.816238 512.872009,205.579178
	C507.714233,208.096329 504.588837,212.995987 504.966888,217.990692
	C505.285492,222.200073 510.104248,226.354355 515.328125,227.870163
	C523.756165,230.315735 532.666260,231.271103 540.888794,234.209961
	C550.859680,237.773712 561.703369,239.222687 570.544739,245.801697
	C577.084290,250.667831 582.716736,255.669708 585.365356,264.161224
	C586.983948,269.350555 586.781311,274.189484 586.931274,279.181030
	C587.384338,294.259521 575.711609,309.077209 563.151917,315.002808
	C556.269958,318.249695 548.943787,319.591461 541.651306,321.457703
	C532.829590,323.715393 524.098267,323.647827 515.766052,322.594666
	C505.304688,321.272400 494.389801,320.432251 484.627991,315.313873
	C480.086609,312.932678 475.161316,311.274963 470.658722,308.831024
	C466.155365,306.386658 465.481476,302.431335 468.043732,297.691803
	C470.739777,292.704742 473.532593,287.755463 475.919037,282.620483
	C477.620270,278.959839 480.133972,278.294525 483.564789,280.101624
	C489.780548,283.375610 496.341949,285.986023 502.689911,289.018219
	C512.728333,293.813110 523.411743,291.535126 533.834229,291.952789
	C543.025635,292.321136 548.216797,288.130707 551.551819,280.343140
	C552.294922,278.608124 550.145508,274.388702 548.151184,272.986389
	C543.999084,270.066772 539.233459,267.750793 534.403931,266.126373
	C527.160889,263.690216 519.605835,262.199402 512.258118,260.051453
	C504.948181,257.914581 497.395874,256.179901 490.548187,252.985992
	C479.437927,247.803864 470.780426,240.114548 469.925446,226.549118
	C469.788605,224.378433 467.946014,222.210541 468.115784,220.141785
	C469.481415,203.500595 475.116425,189.262009 491.190216,181.287643
	C491.766235,181.001892 492.211884,180.453384 493.107117,179.990189
z"/>
<path class="no-fill" fill="#68C4E2" opacity="1.000000" stroke="none"
	d="
M697.832153,338.452667
	C699.645569,337.706635 701.281433,337.076263 702.927429,337.048401
	C709.735840,336.933044 716.547424,337.000031 723.678406,337.000031
	C723.678406,375.611664 723.678406,413.991150 723.678406,452.975586
	C715.004700,452.975586 706.240967,453.106110 697.494629,452.776062
	C696.609131,452.742645 695.122742,449.939087 695.107300,448.409058
	C694.935791,431.421295 694.999634,414.431152 694.999878,397.441650
	C694.999939,395.851807 694.999939,394.261932 694.999939,391.324951
	C684.653503,408.507568 674.998047,424.542725 665.167297,440.868927
	C660.297363,440.868927 654.986694,440.868927 650.028442,440.868927
	C640.177917,424.676636 630.442505,408.673584 620.244873,391.910706
	C620.244873,412.549652 620.244873,432.481262 620.244873,452.704163
	C610.329590,452.704163 600.936951,452.704163 591.270874,452.704163
	C591.270874,414.283905 591.270874,375.904846 591.270874,337.009583
	C599.285095,337.009583 607.232483,336.810181 615.153992,337.173950
	C616.783203,337.248779 618.818787,339.111389 619.808533,340.688690
	C624.912659,348.822968 629.812988,357.088623 634.637512,365.393829
	C639.211914,373.268433 643.481812,381.321289 648.120483,389.156647
	C651.184570,394.332306 654.663574,399.262360 658.222412,404.708801
	C663.044312,396.534882 668.092773,388.040009 673.079468,379.509094
	C680.458618,366.885468 687.777954,354.226837 695.177307,341.615143
	C695.792114,340.567200 696.822083,339.762909 697.832153,338.452667
z"/>
<path class="no-fill" fill="#a3b5c4" opacity="1.000000" stroke="none"
	d="
M1178.347046,297.726196
	C1180.145020,299.556458 1181.646729,301.149475 1183.253052,302.853516
	C1174.627441,312.332367 1164.151367,318.951294 1151.902588,320.260132
	C1139.690308,321.565094 1126.885376,321.757416 1114.895142,319.496155
	C1102.174194,317.097137 1090.993652,309.737366 1083.040283,298.920197
	C1080.077637,294.890656 1078.242798,290.033447 1075.880005,285.560852
	C1071.559692,277.382202 1071.764893,268.505524 1072.029175,259.670410
	C1072.473022,244.821854 1078.324707,232.178665 1089.030762,222.107315
	C1096.045410,215.508530 1104.461182,211.441376 1114.017578,208.653763
	C1124.345093,205.641190 1134.472046,205.403885 1144.493164,207.230072
	C1157.004761,209.510071 1168.269531,215.322083 1176.623901,225.313248
	C1181.594116,231.257217 1184.952515,238.012634 1187.398804,245.693314
	C1190.212646,254.528198 1189.569946,263.183472 1189.969971,271.960388
	C1190.141235,275.717285 1187.206787,274.982300 1184.988770,274.984406
	C1160.989380,275.007416 1136.989868,274.998718 1112.990479,274.998688
	C1111.377197,274.998688 1109.763916,274.998688 1107.597290,274.998688
	C1110.280762,281.181061 1113.614014,286.120483 1119.089600,288.862000
	C1122.440430,290.539673 1126.405273,290.985168 1130.087891,292.007690
	C1132.397461,292.648987 1134.858032,294.228546 1136.968994,293.843140
	C1145.625854,292.262512 1154.391235,290.720947 1161.118530,284.062531
	C1162.024536,283.165619 1165.033325,282.823975 1165.722900,283.533295
	C1170.044556,287.978821 1173.984375,292.795288 1178.347046,297.726196
M1127.098877,233.448639
	C1126.430298,233.964386 1125.806396,234.852570 1125.086182,234.939240
	C1116.218018,236.006531 1108.822510,243.463074 1107.482422,252.909882
	C1123.794922,252.909882 1140.094849,252.909882 1156.189941,252.909882
	C1152.296509,238.479507 1141.843994,233.241669 1127.098877,233.448639
z"/>
<path class="no-fill" fill="#68C4E2" opacity="1.000000" stroke="none"
	d="
M790.148682,358.038391
	C786.292419,359.004730 782.913879,360.230469 779.428101,360.805115
	C775.318787,361.482574 772.804810,363.601013 772.035095,367.574432
	C771.025391,372.786713 773.309204,376.459930 778.261353,377.912964
	C785.972656,380.175568 793.978699,381.514191 801.562195,384.112946
	C813.503296,388.205017 826.993408,390.082367 834.014221,402.650604
	C837.828186,409.478180 838.777710,416.748596 837.252808,424.750519
	C835.287903,435.061798 829.611267,442.179718 821.146423,447.530518
	C818.365295,449.288513 815.368042,450.814850 812.292114,451.976868
	C798.895630,457.037628 784.902832,457.207825 771.184753,454.737244
	C761.763855,453.040619 752.674805,449.175079 743.657532,445.706696
	C739.416626,444.075531 738.962280,439.043884 741.474243,433.994141
	C743.674927,429.570099 745.600464,425.009247 748.165649,419.369965
	C752.051514,420.919434 756.529236,422.222748 760.524170,424.408539
	C766.858826,427.874390 773.389893,429.991699 780.642700,430.060394
	C783.106506,430.083710 785.563599,430.805237 787.780457,431.167908
	C790.679810,430.768738 793.463867,430.168793 796.268982,430.045135
	C801.804077,429.801117 805.506958,427.251129 807.187500,422.506531
	C808.389832,419.111969 807.758362,416.349304 804.488953,414.903656
	C799.546021,412.717987 794.527466,410.567108 789.345276,409.086517
	C777.730103,405.767883 765.461365,404.084656 755.176514,397.377441
	C750.759766,394.497070 746.983765,389.985718 744.187073,385.434723
	C740.724548,379.800201 739.724670,372.904663 741.175171,366.490662
	C743.130066,357.846375 746.641296,349.562195 754.398987,344.295227
	C768.337097,334.832123 783.756348,332.981598 800.296936,334.721802
	C809.393555,335.678772 817.923523,337.789215 826.306641,341.028778
	C828.534973,341.889923 830.571960,343.246582 833.454590,344.778412
	C832.291626,348.218079 831.159363,351.808167 829.860901,355.337097
	C828.645142,358.641205 827.694031,362.183380 825.747192,365.016602
	C824.819336,366.366882 820.924988,367.484985 819.950928,366.714691
	C811.247681,359.832397 800.390686,360.744324 790.148682,358.038391
z"/>
<path class="no-fill" fill="#68C4E2" opacity="1.000000" stroke="none"
	d="
M575.990479,356.028198
	C571.494873,360.866577 567.258057,365.639740 562.433044,369.716705
	C556.241394,374.948303 557.913696,374.480530 552.085144,369.082306
	C543.965210,361.561951 534.578430,359.470581 523.780518,360.483948
	C514.224670,361.380676 507.257599,365.722748 501.085938,372.822784
	C496.986694,377.538635 494.787628,382.908417 494.188110,388.559265
	C492.880554,400.884308 494.848663,412.635254 505.072723,421.220367
	C513.309265,428.136444 522.909302,431.358948 533.671143,429.619965
	C542.165649,428.247314 549.404358,424.323181 555.258545,417.784790
	C556.003052,416.953308 559.232910,417.195618 560.411743,418.105713
	C565.272827,421.858795 569.923645,425.917542 574.377747,430.152069
	C577.042725,432.685699 576.173523,435.731049 573.642090,437.765411
	C568.746704,441.699554 563.916138,445.942780 558.420715,448.853455
	C547.677795,454.543518 535.877075,456.612396 523.763611,455.942322
	C509.973907,455.179474 496.730988,451.492523 486.052429,442.744537
	C477.301544,435.575714 470.352295,426.694794 466.677460,415.144562
	C462.829803,403.051178 462.921051,391.066986 465.248657,379.285736
	C468.313263,363.774078 477.978455,352.365997 491.398529,343.847748
	C503.936249,335.889557 517.667969,333.531830 532.007690,334.111725
	C543.773438,334.587585 555.140198,337.657104 565.005066,344.225952
	C569.298645,347.085052 572.364380,351.788025 575.990479,356.028198
z"/>
<path class="no-fill" fill="#a3b5c4" opacity="1.000000" stroke="none"
	d="
M1018.002808,306.977478
	C1018.002808,261.854492 1018.057495,217.226868 1017.915466,172.599854
	C1017.901794,168.313202 1018.923279,166.708267 1023.455322,166.900009
	C1031.766479,167.251602 1040.115356,167.269455 1048.424316,166.893066
	C1052.984985,166.686478 1054.070557,168.575485 1054.044067,172.590637
	C1053.942627,187.909836 1054.003296,203.230118 1054.003296,218.549988
	C1054.003296,250.521896 1053.922363,282.494263 1054.097534,314.465179
	C1054.121582,318.847504 1052.928833,320.272064 1048.489502,320.097076
	C1040.010132,319.762878 1031.501953,319.807953 1023.018433,320.084198
	C1019.022339,320.214294 1017.523621,318.934753 1017.953308,314.961090
	C1018.220215,312.492126 1018.002808,309.970795 1018.002808,306.977478
z"/>
<path class="no-fill" fill="#a3b5c4" opacity="1.000000" stroke="none"
	d="
M604.002502,236.000000
	C604.002502,227.839523 604.109741,220.176956 603.958862,212.519440
	C603.879028,208.465317 605.571960,206.888046 609.582336,206.957809
	C618.072937,207.105545 626.568542,207.064270 635.060547,206.966812
	C637.719177,206.936295 639.039612,207.676453 639.035217,210.612259
	C638.980591,246.890823 638.999573,283.169495 638.999573,319.997437
	C628.173706,319.997437 617.580750,320.010529 606.987793,319.990448
	C603.219055,319.983276 604.023376,317.127075 604.020996,314.936554
	C603.992493,288.791046 604.002502,262.645538 604.002502,236.000000
z"/>
<path class="no-fill" fill="#a3b5c4" opacity="1.000000" stroke="none"
	d="
M609.012939,160.974777
	C615.536560,156.155121 622.822510,157.490250 629.410095,158.257416
	C639.072632,159.382675 645.296326,171.570679 642.751099,181.790466
	C640.672180,190.137878 630.932251,196.349274 623.874146,196.178894
	C615.457458,195.975693 608.245728,194.507111 603.324890,186.911346
	C598.977539,180.200821 600.113281,169.202011 606.031921,163.469391
	C606.885071,162.643066 607.743591,161.822220 609.012939,160.974777
z"/>
<path class="no-fill" fill="#6EC5E3" opacity="1.000000" stroke="none"
	d="
M373.601624,263.811279
	C374.254211,246.651154 364.102905,234.608261 355.090576,222.277634
	C344.031219,207.146301 329.363647,196.013855 313.075165,186.990326
	C307.703156,184.014328 307.084381,184.515427 307.074646,190.871689
	C307.060089,200.369171 307.259491,209.872818 306.946014,219.359879
	C306.867950,221.722794 305.717865,224.529953 304.122314,226.275177
	C298.843689,232.049026 293.202148,237.499130 287.565704,242.934265
	C284.765503,245.634430 284.608643,247.692810 286.452271,251.529907
	C289.702911,258.295258 294.441406,259.484070 301.191132,259.230377
	C313.670227,258.761353 326.180634,259.185364 338.675476,259.032013
	C341.906586,258.992371 343.104492,259.950256 343.009216,263.271362
	C342.808624,270.263733 343.058380,277.268311 342.903564,284.263031
	C342.829773,287.597534 343.847870,289.107635 347.441803,289.050476
	C357.769897,288.886139 368.104126,289.077667 378.430237,288.858887
	C379.723419,288.831482 381.018219,287.226532 382.247131,286.268982
	C383.572754,285.236115 384.672028,283.462036 386.128876,283.122772
	C394.579041,281.154846 395.163361,281.369476 395.032654,289.842743
	C394.830933,302.922302 395.844391,316.095062 394.591095,329.059021
	C393.681488,338.467926 390.510986,347.803833 387.345184,356.819946
	C379.816040,378.262604 367.760681,397.121155 351.341492,412.755798
	C333.063507,430.160370 311.931061,443.265778 287.051575,448.983002
	C275.009308,451.750275 262.617218,454.433716 250.364731,454.521057
	C230.447021,454.663086 210.865234,451.303101 192.116150,443.590637
	C170.117142,434.541290 151.515823,420.937714 135.985001,403.218323
	C125.232292,390.950378 116.749146,377.116455 110.843727,361.745422
	C109.290100,357.701569 106.635559,353.920898 103.841942,350.554291
	C100.459381,346.477936 98.948997,340.847534 101.120216,336.860352
	C103.682655,332.154724 108.687645,329.511383 113.547096,330.297241
	C118.303612,331.066437 123.405602,336.322662 123.617043,341.351074
	C123.700989,343.347687 122.169853,345.359833 121.843933,347.438629
	C121.383606,350.374695 120.721245,353.513000 121.310089,356.320526
	C122.046677,359.832428 123.826569,363.162781 125.403580,366.452881
	C128.176666,372.238251 129.761963,372.584778 134.683929,368.510193
	C138.262344,365.547882 141.680984,362.392609 145.171524,359.324127
	C150.784134,354.390259 156.572708,349.636261 161.906250,344.417175
	C163.566772,342.792297 164.786545,339.932068 164.853775,337.598358
	C165.160690,326.943359 165.133789,316.271362 164.905304,305.612335
	C164.823700,301.806183 166.129456,300.734070 169.797302,300.832397
	C178.288971,301.060059 186.797852,300.702301 195.285645,300.993530
	C199.355209,301.133148 200.520233,299.676239 200.307068,295.825928
	C200.031189,290.842133 200.110123,285.828522 200.266113,280.834900
	C200.359665,277.839966 199.317886,276.622650 196.234528,276.742981
	C191.576233,276.924713 186.889908,276.550598 182.244629,276.855804
	C177.953918,277.137756 176.685104,275.371918 176.927277,271.330200
	C177.195847,266.847931 176.831528,262.330566 177.012848,257.839386
	C177.157364,254.259933 175.953064,252.786362 172.153336,252.826797
	C156.992355,252.988235 141.827621,252.989029 126.666801,252.820740
	C123.305466,252.783432 121.985123,254.366760 120.947701,257.130157
	C114.529312,274.226746 111.170479,291.821472 111.856613,310.140381
	C112.057945,315.515747 107.100960,319.371124 102.089310,317.619293
	C101.109901,317.276947 100.228317,314.977875 100.283485,313.621216
	C100.680733,303.851501 101.233727,294.085205 101.922722,284.330902
	C103.114296,267.461334 109.242599,252.054688 117.004974,237.363831
	C132.665710,207.724762 156.188004,185.980545 186.356079,171.733170
	C202.009598,164.340561 218.780930,160.620636 236.155579,158.958618
	C253.142990,157.333633 269.441223,159.623138 285.802979,163.674896
	C309.211853,169.471756 329.417358,180.863541 347.264618,196.897125
	C362.050842,210.180756 373.359100,225.950943 382.211853,243.645309
	C383.019623,245.259781 384.988373,246.559357 386.713470,247.395813
	C390.827637,249.390701 394.867981,251.216583 395.901093,256.367157
	C396.925262,261.473236 394.899231,266.667023 390.835663,268.866821
	C384.857544,272.103058 380.390961,271.510010 376.024048,266.859039
	C375.228424,266.011658 374.540649,265.063049 373.601624,263.811279
M204.086639,435.512756
	C210.453171,437.272766 216.721054,439.865051 223.205109,440.633606
	C241.173065,442.763275 259.108276,443.404602 277.096741,439.390533
	C299.234955,434.450439 318.735718,424.687653 336.084747,410.285278
	C341.277313,405.974670 341.251678,405.251465 335.997772,400.669525
	C327.742279,393.469971 319.598236,386.142761 311.359863,378.923370
	C299.603424,368.621155 303.878510,368.741730 292.292084,380.095947
	C290.493469,381.858551 287.747345,383.446564 285.327118,383.629486
	C278.870087,384.117462 272.339905,384.036926 265.862000,383.715179
	C261.209229,383.484070 259.314392,385.128204 260.083649,389.741547
	C260.852203,394.350555 258.554810,395.284668 254.371918,395.226929
	C239.055893,395.015259 223.735229,395.141571 208.416321,395.131744
	C199.800415,395.126221 200.907990,395.653503 200.871155,387.668762
	C200.838928,380.685120 199.650024,374.442566 193.411514,369.777344
	C189.055634,366.520020 185.543671,362.133881 181.656097,358.250580
	C174.633652,351.235870 174.635300,351.236969 167.058334,357.271271
	C166.670197,357.580383 166.196823,357.785858 165.822388,358.108368
	C157.016434,365.692963 148.251022,373.325104 139.400055,380.856720
	C136.672028,383.178131 136.418625,385.342316 138.898270,387.993378
	C145.022675,394.541077 150.767075,401.474335 157.205826,407.691681
	C170.398773,420.431030 186.091644,429.187988 204.086639,435.512756
M189.504349,347.996643
	C192.728287,351.207245 195.952240,354.417877 199.176178,357.628479
	C199.736893,357.378723 200.297623,357.128937 200.858337,356.879181
	C200.858337,351.698547 201.058548,346.507599 200.793228,341.340607
	C200.591003,337.401855 202.027390,336.099487 205.952591,336.137970
	C222.281311,336.298004 238.613434,336.293732 254.942215,336.135315
	C258.872528,336.097168 260.250702,337.461151 260.152832,341.366730
	C259.944214,349.693329 260.243500,358.033051 260.014801,366.358612
	C259.904877,370.360382 261.802704,371.810822 265.339996,371.876404
	C270.004333,371.962921 274.713318,372.312592 279.319855,371.800446
	C281.919434,371.511444 284.852325,370.264465 286.767761,368.504883
	C293.020569,362.760864 299.027283,356.723663 304.785461,350.482574
	C306.416779,348.714447 307.595947,345.905884 307.734680,343.502441
	C308.127777,336.692963 307.676941,329.838257 307.950867,323.017120
	C308.116058,318.903748 306.403870,317.816895 302.636169,317.999298
	C297.815186,318.232727 292.966705,317.887024 288.144165,318.103912
	C284.826172,318.253113 283.845947,316.994293 283.884430,313.768097
	C284.031433,301.438782 284.118164,289.102600 283.826141,276.778473
	C283.751923,273.646393 282.685364,270.291229 281.208313,267.496490
	C278.969788,263.261078 276.119263,259.315491 273.214020,255.485458
	C272.268311,254.238708 270.354767,253.045303 268.855835,253.009811
	C259.362885,252.785034 249.861603,252.942444 240.364136,252.856552
	C237.775986,252.833160 236.782440,253.856018 236.834427,256.405945
	C236.932922,261.236359 236.679398,266.079132 236.914368,270.900085
	C237.140869,275.547455 235.096466,277.174957 230.641739,276.931244
	C226.155090,276.685760 221.637863,277.005707 217.150085,276.770996
	C213.812454,276.596436 212.798996,277.935577 212.853012,281.131012
	C212.999420,289.793610 212.794708,298.462250 212.953629,307.124390
	C213.020248,310.755676 211.759567,312.195282 208.020218,312.115814
	C199.192505,311.928070 190.357193,312.128113 181.526932,312.015228
	C178.433701,311.975677 177.091797,312.948364 176.932510,316.274200
	C176.059525,334.499359 175.987686,334.495911 189.504349,347.996643
M245.856842,170.442535
	C236.495071,171.583374 227.142944,172.814087 217.766617,173.819061
	C214.212967,174.199966 212.860947,175.938431 212.880417,179.365646
	C212.944733,190.696289 212.997147,202.028778 212.847656,213.357834
	C212.800400,216.939484 214.298065,218.038589 217.638611,217.924133
	C222.465439,217.758774 227.304749,217.973434 232.133255,217.834946
	C235.503876,217.738266 237.034760,219.014236 236.902878,222.514954
	C236.733627,227.007736 237.052094,231.522736 236.794937,236.007202
	C236.579971,239.756134 237.529114,241.415176 241.729218,241.261536
	C250.382736,240.945038 259.065186,241.382462 267.714600,241.013977
	C270.287140,240.904388 273.329865,239.740692 275.223877,238.027954
	C281.272308,232.558395 287.059143,226.765442 292.558380,220.742554
	C294.300293,218.834808 295.665710,215.843109 295.754883,213.296738
	C296.110352,203.144745 295.790283,192.971069 295.954407,182.809204
	C296.003235,179.785172 294.922882,178.334427 292.098022,177.404373
	C277.351166,172.549149 262.175415,170.543961 245.856842,170.442535
M321.927368,318.081635
	C320.939636,319.483459 319.173950,320.845184 319.099274,322.294067
	C318.782715,328.436829 318.615570,334.631378 319.066162,340.757568
	C319.550476,347.342529 318.086273,352.573547 312.693268,356.931824
	C308.592346,360.245941 309.188843,362.111847 313.326263,365.623718
	C324.207428,374.859924 335.143982,384.042938 345.710388,393.630798
	C349.033508,396.646118 351.120758,396.275574 353.278473,393.070587
	C358.266815,385.661163 363.458313,378.355225 367.931335,370.638641
	C379.698975,350.337891 384.757355,328.303650 384.072845,304.874390
	C383.977051,301.594086 383.148590,300.010559 379.532593,300.063782
	C368.881195,300.220673 358.224945,300.200928 347.572876,300.067169
	C344.191284,300.024719 342.631592,301.127838 342.848450,304.666779
	C343.041504,307.817780 342.727325,311.000671 342.935242,314.149750
	C343.143250,317.300171 341.774170,318.188782 338.833923,318.100464
	C333.511902,317.940643 328.181580,318.056427 321.927368,318.081635
M132.906082,241.161758
	C145.896606,241.163300 158.888931,241.044754 171.876511,241.240906
	C175.682800,241.298401 177.366638,240.366486 177.076172,236.246521
	C176.749008,231.606277 177.086380,226.923126 176.968918,222.262802
	C176.887695,219.040878 178.276764,217.775879 181.462677,217.861099
	C186.455429,217.994614 191.457886,217.781769 196.449448,217.935837
	C199.423615,218.027634 200.836990,216.781525 200.842880,213.901978
	C200.863678,203.742905 200.876633,193.583618 200.828979,183.424728
	C200.816513,180.765610 199.823181,179.139816 196.794922,180.504532
	C191.505920,182.888107 186.009399,184.904495 180.973343,187.738464
	C166.201538,196.051071 153.793030,207.337753 142.665985,219.972870
	C138.312943,224.915909 134.791306,230.625610 131.222748,236.198563
	C130.420212,237.451874 127.890282,240.153168 132.906082,241.161758
M295.129028,279.610809
	C295.130676,286.942169 295.216156,294.274872 295.099670,301.604340
	C295.038605,305.446198 296.691376,307.002655 300.504852,306.950378
	C309.167542,306.831665 317.834381,306.824524 326.496674,306.957581
	C329.925903,307.010254 331.285492,305.691223 331.240570,302.252716
	C331.120941,293.090118 331.107971,283.923401 331.253265,274.761505
	C331.302826,271.636139 330.044708,270.728455 327.106201,270.773834
	C319.110321,270.897369 311.111206,270.808838 303.113373,270.808533
	C295.126740,270.808228 295.126740,270.810425 295.129028,279.610809
M188.979218,248.499146
	C188.979797,252.817657 188.723175,257.160980 189.135895,261.439728
	C189.261566,262.742523 191.202042,264.880341 192.361618,264.914215
	C201.986938,265.195343 211.628006,265.202637 221.252731,264.911163
	C222.481720,264.873962 224.641403,262.672241 224.678787,261.422638
	C224.961761,251.964005 224.855377,242.492508 224.794373,233.025528
	C224.776672,230.281296 223.555786,228.902054 220.466309,228.959534
	C211.548996,229.125427 202.624847,229.104446 193.706741,228.955215
	C190.326981,228.898666 188.815552,230.044388 188.940964,233.549881
	C189.107132,238.194611 188.980408,242.849808 188.979218,248.499146
M234.490936,384.018036
	C237.656876,384.017639 240.830460,383.880219 243.986511,384.056763
	C246.941986,384.222076 248.185394,383.231781 248.138062,380.105896
	C247.994247,370.610229 248.010529,361.110321 248.115372,351.613770
	C248.146988,348.750519 246.987030,347.858429 244.250565,347.889343
	C235.087189,347.992920 225.920303,348.025940 216.758224,347.875336
	C213.549057,347.822601 212.827789,349.244904 212.860855,352.098480
	C212.968979,361.428406 212.992065,370.761749 212.851135,380.090790
	C212.803970,383.212860 214.045898,384.150696 216.999863,384.065582
	C222.494049,383.907349 227.995987,384.018646 234.490936,384.018036
z"/>
<path class="no-fill" fill="#e6ebef" opacity="1.000000" stroke="none"
	d="
M203.726532,435.348328
	C186.091644,429.187988 170.398773,420.431030 157.205826,407.691681
	C150.767075,401.474335 145.022675,394.541077 138.898270,387.993378
	C136.418625,385.342316 136.672028,383.178131 139.400055,380.856720
	C148.251022,373.325104 157.016434,365.692963 165.822388,358.108368
	C166.196823,357.785858 166.670197,357.580383 167.058334,357.271271
	C174.635300,351.236969 174.633652,351.235870 181.656097,358.250580
	C185.543671,362.133881 189.055634,366.520020 193.411514,369.777344
	C199.650024,374.442566 200.838928,380.685120 200.871155,387.668762
	C200.907990,395.653503 199.800415,395.126221 208.416321,395.131744
	C223.735229,395.141571 239.055893,395.015259 254.371918,395.226929
	C258.554810,395.284668 260.852203,394.350555 260.083649,389.741547
	C259.314392,385.128204 261.209229,383.484070 265.862000,383.715179
	C272.339905,384.036926 278.870087,384.117462 285.327118,383.629486
	C287.747345,383.446564 290.493469,381.858551 292.292084,380.095947
	C303.878510,368.741730 299.603424,368.621155 311.359863,378.923370
	C319.598236,386.142761 327.742279,393.469971 335.997772,400.669525
	C341.251678,405.251465 341.277313,405.974670 336.084747,410.285278
	C318.735718,424.687653 299.234955,434.450439 277.096741,439.390533
	C259.108276,443.404602 241.173065,442.763275 223.205109,440.633606
	C216.721054,439.865051 210.453171,437.272766 203.726532,435.348328
z"/>
<path class="no-fill" fill="#e6ebef" opacity="1.000000" stroke="none"
	d="
M189.254333,347.746460
	C175.987686,334.495911 176.059525,334.499359 176.932510,316.274200
	C177.091797,312.948364 178.433701,311.975677 181.526932,312.015228
	C190.357193,312.128113 199.192505,311.928070 208.020218,312.115814
	C211.759567,312.195282 213.020248,310.755676 212.953629,307.124390
	C212.794708,298.462250 212.999420,289.793610 212.853012,281.131012
	C212.798996,277.935577 213.812454,276.596436 217.150085,276.770996
	C221.637863,277.005707 226.155090,276.685760 230.641739,276.931244
	C235.096466,277.174957 237.140869,275.547455 236.914368,270.900085
	C236.679398,266.079132 236.932922,261.236359 236.834427,256.405945
	C236.782440,253.856018 237.775986,252.833160 240.364136,252.856552
	C249.861603,252.942444 259.362885,252.785034 268.855835,253.009811
	C270.354767,253.045303 272.268311,254.238708 273.214020,255.485458
	C276.119263,259.315491 278.969788,263.261078 281.208313,267.496490
	C282.685364,270.291229 283.751923,273.646393 283.826141,276.778473
	C284.118164,289.102600 284.031433,301.438782 283.884430,313.768097
	C283.845947,316.994293 284.826172,318.253113 288.144165,318.103912
	C292.966705,317.887024 297.815186,318.232727 302.636169,317.999298
	C306.403870,317.816895 308.116058,318.903748 307.950867,323.017120
	C307.676941,329.838257 308.127777,336.692963 307.734680,343.502441
	C307.595947,345.905884 306.416779,348.714447 304.785461,350.482574
	C299.027283,356.723663 293.020569,362.760864 286.767761,368.504883
	C284.852325,370.264465 281.919434,371.511444 279.319855,371.800446
	C274.713318,372.312592 270.004333,371.962921 265.339996,371.876404
	C261.802704,371.810822 259.904877,370.360382 260.014801,366.358612
	C260.243500,358.033051 259.944214,349.693329 260.152832,341.366730
	C260.250702,337.461151 258.872528,336.097168 254.942215,336.135315
	C238.613434,336.293732 222.281311,336.298004 205.952591,336.137970
	C202.027390,336.099487 200.591003,337.401855 200.793228,341.340607
	C201.058548,346.507599 200.858337,351.698547 200.858337,356.879181
	C200.297623,357.128937 199.736893,357.378723 199.176178,357.628479
	C195.952240,354.417877 192.728287,351.207245 189.254333,347.746460
z"/>
<path class="no-fill" fill="#e6ebef" opacity="1.000000" stroke="none"
	d="
M246.290344,170.326050
	C262.175415,170.543961 277.351166,172.549149 292.098022,177.404373
	C294.922882,178.334427 296.003235,179.785172 295.954407,182.809204
	C295.790283,192.971069 296.110352,203.144745 295.754883,213.296738
	C295.665710,215.843109 294.300293,218.834808 292.558380,220.742554
	C287.059143,226.765442 281.272308,232.558395 275.223877,238.027954
	C273.329865,239.740692 270.287140,240.904388 267.714600,241.013977
	C259.065186,241.382462 250.382736,240.945038 241.729218,241.261536
	C237.529114,241.415176 236.579971,239.756134 236.794937,236.007202
	C237.052094,231.522736 236.733627,227.007736 236.902878,222.514954
	C237.034760,219.014236 235.503876,217.738266 232.133255,217.834946
	C227.304749,217.973434 222.465439,217.758774 217.638611,217.924133
	C214.298065,218.038589 212.800400,216.939484 212.847656,213.357834
	C212.997147,202.028778 212.944733,190.696289 212.880417,179.365646
	C212.860947,175.938431 214.212967,174.199966 217.766617,173.819061
	C227.142944,172.814087 236.495071,171.583374 246.290344,170.326050
z"/>
<path class="no-fill" fill="#e6ebef" opacity="1.000000" stroke="none"
	d="
M322.391052,318.069397
	C328.181580,318.056427 333.511902,317.940643 338.833923,318.100464
	C341.774170,318.188782 343.143250,317.300171 342.935242,314.149750
	C342.727325,311.000671 343.041504,307.817780 342.848450,304.666779
	C342.631592,301.127838 344.191284,300.024719 347.572876,300.067169
	C358.224945,300.200928 368.881195,300.220673 379.532593,300.063782
	C383.148590,300.010559 383.977051,301.594086 384.072845,304.874390
	C384.757355,328.303650 379.698975,350.337891 367.931335,370.638641
	C363.458313,378.355225 358.266815,385.661163 353.278473,393.070587
	C351.120758,396.275574 349.033508,396.646118 345.710388,393.630798
	C335.143982,384.042938 324.207428,374.859924 313.326263,365.623718
	C309.188843,362.111847 308.592346,360.245941 312.693268,356.931824
	C318.086273,352.573547 319.550476,347.342529 319.066162,340.757568
	C318.615570,334.631378 318.782715,328.436829 319.099274,322.294067
	C319.173950,320.845184 320.939636,319.483459 322.391052,318.069397
z"/>
<path class="no-fill" fill="#e6ebef" opacity="1.000000" stroke="none"
	d="
M132.459503,241.148285
	C127.890282,240.153168 130.420212,237.451874 131.222748,236.198563
	C134.791306,230.625610 138.312943,224.915909 142.665985,219.972870
	C153.793030,207.337753 166.201538,196.051071 180.973343,187.738464
	C186.009399,184.904495 191.505920,182.888107 196.794922,180.504532
	C199.823181,179.139816 200.816513,180.765610 200.828979,183.424728
	C200.876633,193.583618 200.863678,203.742905 200.842880,213.901978
	C200.836990,216.781525 199.423615,218.027634 196.449448,217.935837
	C191.457886,217.781769 186.455429,217.994614 181.462677,217.861099
	C178.276764,217.775879 176.887695,219.040878 176.968918,222.262802
	C177.086380,226.923126 176.749008,231.606277 177.076172,236.246521
	C177.366638,240.366486 175.682800,241.298401 171.876511,241.240906
	C158.888931,241.044754 145.896606,241.163300 132.459503,241.148285
z"/>
<path class="no-fill" fill="#e6ebef" opacity="1.000000" stroke="none"
	d="
M295.128662,279.128052
	C295.126740,270.810425 295.126740,270.808228 303.113373,270.808533
	C311.111206,270.808838 319.110321,270.897369 327.106201,270.773834
	C330.044708,270.728455 331.302826,271.636139 331.253265,274.761505
	C331.107971,283.923401 331.120941,293.090118 331.240570,302.252716
	C331.285492,305.691223 329.925903,307.010254 326.496674,306.957581
	C317.834381,306.824524 309.167542,306.831665 300.504852,306.950378
	C296.691376,307.002655 295.038605,305.446198 295.099670,301.604340
	C295.216156,294.274872 295.130676,286.942169 295.128662,279.128052
z"/>
<path class="no-fill" fill="#e6ebef" opacity="1.000000" stroke="none"
	d="
M188.979385,247.999817
	C188.980408,242.849808 189.107132,238.194611 188.940964,233.549881
	C188.815552,230.044388 190.326981,228.898666 193.706741,228.955215
	C202.624847,229.104446 211.548996,229.125427 220.466309,228.959534
	C223.555786,228.902054 224.776672,230.281296 224.794373,233.025528
	C224.855377,242.492508 224.961761,251.964005 224.678787,261.422638
	C224.641403,262.672241 222.481720,264.873962 221.252731,264.911163
	C211.628006,265.202637 201.986938,265.195343 192.361618,264.914215
	C191.202042,264.880341 189.261566,262.742523 189.135895,261.439728
	C188.723175,257.160980 188.979797,252.817657 188.979385,247.999817
z"/>
<path class="no-fill" fill="#e6ebef" opacity="1.000000" stroke="none"
	d="
M233.992828,384.017883
	C227.995987,384.018646 222.494049,383.907349 216.999863,384.065582
	C214.045898,384.150696 212.803970,383.212860 212.851135,380.090790
	C212.992065,370.761749 212.968979,361.428406 212.860855,352.098480
	C212.827789,349.244904 213.549057,347.822601 216.758224,347.875336
	C225.920303,348.025940 235.087189,347.992920 244.250565,347.889343
	C246.987030,347.858429 248.146988,348.750519 248.115372,351.613770
	C248.010529,361.110321 247.994247,370.610229 248.138062,380.105896
	C248.185394,383.231781 246.941986,384.222076 243.986511,384.056763
	C240.830460,383.880219 237.656876,384.017639 233.992828,384.017883
z"/>
</svg>
